  0
SECTION
  2
HEADER
  9
$ACADVER
  1
AC1009
  9
$DWGCODEPAGE
  3
ANSI_1252
  9
$INSBASE
 10
0.0
 20
0.0
 30
0.0
  9
$EXTMIN
 10
1e+20
 20
1e+20
 30
1e+20
  9
$EXTMAX
 10
-1e+20
 20
-1e+20
 30
-1e+20
  9
$LIMMIN
 10
0.0
 20
0.0
  9
$LIMMAX
 10
420.0
 20
297.0
  9
$ORTHOMODE
 70
0
  9
$REGENMODE
 70
1
  9
$FILLMODE
 70
1
  9
$DRAGMODE
 70
2
  9
$QTEXTMODE
 70
0
  9
$MIRRTEXT
 70
1
  9
$OSMODE
 70
20583
  9
$LTSCALE
 40
1.0
  9
$ATTMODE
 70
1
  9
$TEXTSIZE
 40
2.5
  9
$TRACEWID
 40
1.0
  9
$TEXTSTYLE
  7
OpenSans
  9
$CLAYER
  8
0
  9
$CELTYPE
  6
ByLayer
  9
$CECOLOR
 62
256
  9
$DIMSCALE
 40
1.0
  9
$DIMASZ
 40
0.175
  9
$DIMEXO
 40
0.125
  9
$DIMDLI
 40
3.75
  9
$DIMRND
 40
0.0
  9
$DIMDLE
 40
0.0
  9
$DIMEXE
 40
0.375
  9
$DIMTP
 40
0.0
  9
$DIMTM
 40
0.0
  9
$DIMTXT
 40
0.25
  9
$DIMCEN
 40
2.5
  9
$DIMTSZ
 40
0.0
  9
$DIMTOL
 70
0
  9
$DIMLIM
 70
0
  9
$DIMTIH
 70
0
  9
$DIMTOH
 70
0
  9
$DIMSE1
 70
0
  9
$DIMSE2
 70
0
  9
$DIMTAD
 70
1
  9
$DIMZIN
 70
12
  9
$DIMBLK
  1
ARCHTICK
  9
$DIMASO
 70
1
  9
$DIMSHO
 70
1
  9
$DIMPOST
  1

  9
$DIMAPOST
  1

  9
$DIMALT
 70
0
  9
$DIMALTD
 70
3
  9
$DIMALTF
 40
0.03937007874
  9
$DIMLFAC
 40
100.0
  9
$DIMTOFL
 70
1
  9
$DIMTVP
 40
0.0
  9
$DIMTIX
 70
0
  9
$DIMSOXD
 70
0
  9
$DIMSAH
 70
0
  9
$DIMBLK1
  1

  9
$DIMBLK2
  1

  9
$DIMSTYLE
  2
EZDXF
  9
$DIMCLRD
 70
0
  9
$DIMCLRE
 70
0
  9
$DIMCLRT
 70
0
  9
$DIMTFAC
 40
0.5
  9
$DIMGAP
 40
0.1
  9
$COORDS
 70
1
  9
$ATTDIA
 70
0
  9
$ATTREQ
 70
1
  9
$HANDLING
 70
1
  9
$LUNITS
 70
2
  9
$LUPREC
 70
4
  9
$SKETCHINC
 40
1.0
  9
$FILLETRAD
 40
10.0
  9
$AUNITS
 70
0
  9
$AUPREC
 70
2
  9
$MENU
  1
.
  9
$ELEVATION
 40
0.0
  9
$PELEVATION
 40
0.0
  9
$THICKNESS
 40
0.0
  9
$LIMCHECK
 70
0
  9
$CHAMFERA
 40
0.0
  9
$CHAMFERB
 40
0.0
  9
$SKPOLY
 70
0
  9
$TDCREATE
 40
2461220.669525463
  9
$TDUPDATE
 40
2461220.669525463
  9
$TDINDWG
 40
0.0
  9
$TDUSRTIMER
 40
0.0
  9
$USRTIMER
 70
1
  9
$ANGBASE
 50
0.0
  9
$ANGDIR
 70
0
  9
$PDMODE
 70
0
  9
$PDSIZE
 40
0.0
  9
$PLINEWID
 40
0.0
  9
$SPLFRAME
 70
0
  9
$SPLINETYPE
 70
6
  9
$SPLINESEGS
 70
8
  9
$HANDSEED
  5
83E
  9
$SURFTAB1
 70
6
  9
$SURFTAB2
 70
6
  9
$SURFTYPE
 70
6
  9
$SURFU
 70
6
  9
$SURFV
 70
6
  9
$UCSNAME
  2

  9
$UCSORG
 10
0.0
 20
0.0
 30
0.0
  9
$UCSXDIR
 10
1.0
 20
0.0
 30
0.0
  9
$UCSYDIR
 10
0.0
 20
1.0
 30
0.0
  9
$PUCSNAME
  2

  9
$PUCSORG
 10
0.0
 20
0.0
 30
0.0
  9
$PUCSXDIR
 10
1.0
 20
0.0
 30
0.0
  9
$PUCSYDIR
 10
0.0
 20
1.0
 30
0.0
  9
$USERI1
 70
0
  9
$USERI2
 70
0
  9
$USERI3
 70
0
  9
$USERI4
 70
0
  9
$USERI5
 70
0
  9
$USERR1
 40
0.0
  9
$USERR2
 40
0.0
  9
$USERR3
 40
0.0
  9
$USERR4
 40
0.0
  9
$USERR5
 40
0.0
  9
$WORLDVIEW
 70
1
  9
$SHADEDGE
 70
3
  9
$SHADEDIF
 70
70
  9
$TILEMODE
 70
1
  9
$MAXACTVP
 70
64
  9
$PLIMCHECK
 70
0
  9
$PEXTMIN
 10
1e+20
 20
1e+20
 30
1e+20
  9
$PEXTMAX
 10
-1e+20
 20
-1e+20
 30
-1e+20
  9
$PLIMMIN
 10
0.0
 20
0.0
  9
$PLIMMAX
 10
420.0
 20
297.0
  9
$UNITMODE
 70
0
  9
$VISRETAIN
 70
1
  9
$PLINEGEN
 70
0
  9
$PSLTSCALE
 70
1
  0
ENDSEC
  0
SECTION
  2
TABLES
  0
TABLE
  2
VPORT
 70
1
  0
VPORT
  5
23
  2
*Active
 70
0
 10
0.0
 20
0.0
 11
1.0
 21
1.0
 12
0.0
 22
0.0
 13
0.0
 23
0.0
 14
0.5
 24
0.5
 15
0.5
 25
0.5
 16
0.0
 26
0.0
 36
1.0
 17
0.0
 27
0.0
 37
0.0
 40
1000.0
 41
1.34
 42
50.0
 43
0.0
 44
0.0
 50
0.0
 51
0.0
 71
0
 72
1000
 73
1
 74
3
 75
0
 76
0
 77
0
 78
0
  0
ENDTAB
  0
TABLE
  2
LTYPE
 70
21
  0
LTYPE
  5
24
  2
ByBlock
 70
0
  3

 72
65
 73
0
 40
0.0
  0
LTYPE
  5
25
  2
ByLayer
 70
0
  3

 72
65
 73
0
 40
0.0
  0
LTYPE
  5
26
  2
Continuous
 70
0
  3

 72
65
 73
0
 40
0.0
  0
LTYPE
  5
2D
  2
CENTER
 70
0
  3
Center ____ _ ____ _ ____ _ ____ _ ____ _ ____
 72
65
 73
4
 40
5.08
 49
3.175
 49
-0.635
 49
0.635
 49
-0.635
  0
LTYPE
  5
2E
  2
CENTERX2
 70
0
  3
Center (2x) ________  __  ________  __  ________
 72
65
 73
4
 40
8.89
 49
6.35
 49
-0.635
 49
1.27
 49
-0.635
  0
LTYPE
  5
2F
  2
CENTER2
 70
0
  3
Center (.5x) ____ _ ____ _ ____ _ ____ _ ____
 72
65
 73
4
 40
2.54
 49
1.587
 49
-0.318
 49
0.318
 49
-0.318
  0
LTYPE
  5
30
  2
DASHED
 70
0
  3
Dashed __ __ __ __ __ __ __ __ __ __ __ __ __ _
 72
65
 73
2
 40
1.524
 49
1.27
 49
-0.254
  0
LTYPE
  5
31
  2
DASHEDX2
 70
0
  3
Dashed (2x) ____  ____  ____  ____  ____  ____
 72
65
 73
2
 40
3.048
 49
2.54
 49
-0.508
  0
LTYPE
  5
32
  2
DASHED2
 70
0
  3
Dashed (.5x) _ _ _ _ _ _ _ _ _ _ _ _ _ _
 72
65
 73
2
 40
0.762
 49
0.635
 49
-0.127
  0
LTYPE
  5
33
  2
PHANTOM
 70
0
  3
Phantom ______  __  __  ______  __  __  ______
 72
65
 73
6
 40
6.35
 49
3.175
 49
-0.635
 49
0.635
 49
-0.635
 49
0.635
 49
-0.635
  0
LTYPE
  5
34
  2
PHANTOMX2
 70
0
  3
Phantom (2x)____________    ____    ____    ____________
 72
65
 73
6
 40
10.795
 49
6.35
 49
-0.635
 49
1.27
 49
-0.635
 49
1.27
 49
-0.635
  0
LTYPE
  5
35
  2
PHANTOM2
 70
0
  3
Phantom (.5x) ___ _ _ ___ _ _ ___ _ _ ___ _ _ ___
 72
65
 73
6
 40
3.175
 49
1.587
 49
-0.318
 49
0.318
 49
-0.318
 49
0.318
 49
-0.318
  0
LTYPE
  5
36
  2
DASHDOT
 70
0
  3
Dash dot __ . __ . __ . __ . __ . __ . __ . __
 72
65
 73
4
 40
3.556
 49
2.54
 49
-0.508
 49
0.0
 49
-0.508
  0
LTYPE
  5
37
  2
DASHDOTX2
 70
0
  3
Dash dot (2x) ____  .  ____  .  ____  .  ____
 72
65
 73
4
 40
6.096
 49
5.08
 49
-0.508
 49
0.0
 49
-0.508
  0
LTYPE
  5
38
  2
DASHDOT2
 70
0
  3
Dash dot (.5x) _ . _ . _ . _ . _ . _ . _ . _
 72
65
 73
4
 40
1.778
 49
1.27
 49
-0.254
 49
0.0
 49
-0.254
  0
LTYPE
  5
39
  2
DOT
 70
0
  3
Dot .  .  .  .  .  .  .  .  .  .  .  .  .  .  .  .
 72
65
 73
2
 40
0.508
 49
0.0
 49
-0.508
  0
LTYPE
  5
3A
  2
DOTX2
 70
0
  3
Dot (2x) .    .    .    .    .    .    .    . 
 72
65
 73
2
 40
1.016
 49
0.0
 49
-1.016
  0
LTYPE
  5
3B
  2
DOT2
 70
0
  3
Dot (.5) . . . . . . . . . . . . . . . . . . . 
 72
65
 73
2
 40
0.254
 49
0.0
 49
-0.254
  0
LTYPE
  5
3C
  2
DIVIDE
 70
0
  3
Divide __ . . __ . . __ . . __ . . __ . . __
 72
65
 73
6
 40
4.064
 49
2.54
 49
-0.508
 49
0.0
 49
-0.508
 49
0.0
 49
-0.508
  0
LTYPE
  5
3D
  2
DIVIDEX2
 70
0
  3
Divide (2x) ____  . .  ____  . .  ____  . .  ____
 72
65
 73
6
 40
6.604
 49
5.08
 49
-0.508
 49
0.0
 49
-0.508
 49
0.0
 49
-0.508
  0
LTYPE
  5
3E
  2
DIVIDE2
 70
0
  3
Divide(.5x) _ . _ . _ . _ . _ . _ . _ . _
 72
65
 73
6
 40
2.032
 49
1.27
 49
-0.254
 49
0.0
 49
-0.254
 49
0.0
 49
-0.254
  0
ENDTAB
  0
TABLE
  2
LAYER
 70
2
  0
LAYER
  5
27
  2
0
 70
0
 62
7
  6
Continuous
  0
LAYER
  5
28
  2
Defpoints
 70
0
 62
7
  6
Continuous
  0
ENDTAB
  0
TABLE
  2
STYLE
 70
26
  0
STYLE
  5
29
  2
Standard
 70
0
 40
0.0
 41
1.0
 50
0.0
 71
0
 42
2.5
  3
txt
  4

  0
STYLE
  5
3F
  2
OpenSans-Light
 70
0
 40
0.0
 41
1.0
 50
0.0
 71
0
 42
2.5
  3
OpenSans-Light.ttf
  4

  0
STYLE
  5
40
  2
OpenSans-Light-Italic
 70
0
 40
0.0
 41
1.0
 50
0.0
 71
0
 42
2.5
  3
OpenSans-LightItalic.ttf
  4

  0
STYLE
  5
41
  2
OpenSans
 70
0
 40
0.0
 41
1.0
 50
0.0
 71
0
 42
2.5
  3
OpenSans-Regular.ttf
  4

  0
STYLE
  5
42
  2
OpenSans-Italic
 70
0
 40
0.0
 41
1.0
 50
0.0
 71
0
 42
2.5
  3
OpenSans-Italic.ttf
  4

  0
STYLE
  5
43
  2
OpenSans-SemiBold
 70
0
 40
0.0
 41
1.0
 50
0.0
 71
0
 42
2.5
  3
OpenSans-SemiBold.ttf
  4

  0
STYLE
  5
44
  2
OpenSans-SemiBoldItalic
 70
0
 40
0.0
 41
1.0
 50
0.0
 71
0
 42
2.5
  3
OpenSans-SemiBoldItalic.ttf
  4

  0
STYLE
  5
45
  2
OpenSans-Bold
 70
0
 40
0.0
 41
1.0
 50
0.0
 71
0
 42
2.5
  3
OpenSans-Bold.ttf
  4

  0
STYLE
  5
46
  2
OpenSans-BoldItalic
 70
0
 40
0.0
 41
1.0
 50
0.0
 71
0
 42
2.5
  3
OpenSans-BoldItalic.ttf
  4

  0
STYLE
  5
47
  2
OpenSans-ExtraBold
 70
0
 40
0.0
 41
1.0
 50
0.0
 71
0
 42
2.5
  3
OpenSans-ExtraBold.ttf
  4

  0
STYLE
  5
48
  2
OpenSans-ExtraBoldItalic
 70
0
 40
0.0
 41
1.0
 50
0.0
 71
0
 42
2.5
  3
OpenSans-ExtraBoldItalic.ttf
  4

  0
STYLE
  5
49
  2
OpenSansCondensed-Bold
 70
0
 40
0.0
 41
1.0
 50
0.0
 71
0
 42
2.5
  3
OpenSansCondensed-Bold.ttf
  4

  0
STYLE
  5
4A
  2
OpenSansCondensed-Light
 70
0
 40
0.0
 41
1.0
 50
0.0
 71
0
 42
2.5
  3
OpenSansCondensed-Light.ttf
  4

  0
STYLE
  5
4B
  2
OpenSansCondensed-Italic
 70
0
 40
0.0
 41
1.0
 50
0.0
 71
0
 42
2.5
  3
OpenSansCondensed-LightItalic.ttf
  4

  0
STYLE
  5
4C
  2
LiberationSans
 70
0
 40
0.0
 41
1.0
 50
0.0
 71
0
 42
2.5
  3
LiberationSans-Regular.ttf
  4

  0
STYLE
  5
4D
  2
LiberationSans-Bold
 70
0
 40
0.0
 41
1.0
 50
0.0
 71
0
 42
2.5
  3
LiberationSans-Bold.ttf
  4

  0
STYLE
  5
4E
  2
LiberationSans-BoldItalic
 70
0
 40
0.0
 41
1.0
 50
0.0
 71
0
 42
2.5
  3
LiberationSans-BoldItalic.ttf
  4

  0
STYLE
  5
4F
  2
LiberationSans-Italic
 70
0
 40
0.0
 41
1.0
 50
0.0
 71
0
 42
2.5
  3
LiberationSans-Italic.ttf
  4

  0
STYLE
  5
50
  2
LiberationSerif
 70
0
 40
0.0
 41
1.0
 50
0.0
 71
0
 42
2.5
  3
LiberationSerif-Regular.ttf
  4

  0
STYLE
  5
51
  2
LiberationSerif-Bold
 70
0
 40
0.0
 41
1.0
 50
0.0
 71
0
 42
2.5
  3
LiberationSerif-Bold.ttf
  4

  0
STYLE
  5
52
  2
LiberationSerif-BoldItalic
 70
0
 40
0.0
 41
1.0
 50
0.0
 71
0
 42
2.5
  3
LiberationSerif-BoldItalic.ttf
  4

  0
STYLE
  5
53
  2
LiberationSerif-Italic
 70
0
 40
0.0
 41
1.0
 50
0.0
 71
0
 42
2.5
  3
LiberationSerif-Italic.ttf
  4

  0
STYLE
  5
54
  2
LiberationMono
 70
0
 40
0.0
 41
1.0
 50
0.0
 71
0
 42
2.5
  3
LiberationMono-Regular.ttf
  4

  0
STYLE
  5
55
  2
LiberationMono-Bold
 70
0
 40
0.0
 41
1.0
 50
0.0
 71
0
 42
2.5
  3
LiberationMono-Bold.ttf
  4

  0
STYLE
  5
56
  2
LiberationMono-BoldItalic
 70
0
 40
0.0
 41
1.0
 50
0.0
 71
0
 42
2.5
  3
LiberationMono-BoldItalic.ttf
  4

  0
STYLE
  5
57
  2
LiberationMono-Italic
 70
0
 40
0.0
 41
1.0
 50
0.0
 71
0
 42
2.5
  3
LiberationMono-Italic.ttf
  4

  0
ENDTAB
  0
TABLE
  2
VIEW
 70
0
  0
ENDTAB
  0
TABLE
  2
UCS
 70
0
  0
ENDTAB
  0
TABLE
  2
APPID
 70
3
  0
APPID
  5
2A
  2
ACAD
 70
0
  0
APPID
  5
83C
  2
HATCHBACKGROUNDCOLOR
 70
0
  0
APPID
  5
83D
  2
EZDXF
 70
0
  0
ENDTAB
  0
TABLE
  2
DIMSTYLE
 70
12
  0
DIMSTYLE
105
2B
  2
Standard
 70
0
  3

  4

  5

  6

  7

 40
1.0
 41
2.5
 42
0.625
 43
3.75
 44
1.25
 45
0.0
 46
0.0
 47
0.0
 48
0.0
140
2.5
141
2.5
142
0.0
143
0.03937007874
144
1.0
145
0.0
146
1.0
147
0.625
 71
0
 72
0
 73
0
 74
0
 75
0
 76
0
 77
1
 78
8
170
0
171
3
172
1
173
0
174
0
175
0
176
0
177
0
178
0
  0
DIMSTYLE
105
71
  2
EZDXF
 70
0
  3

  4

  5
ARCHTICK
  6

  7

 40
1.0
 41
0.175
 42
0.125
 43
3.75
 44
0.375
 45
0.0
 46
0.0
 47
0.0
 48
0.0
140
0.25
141
2.5
142
0.0
143
0.03937007874
144
100.0
145
0.0
146
0.5
147
0.1
 71
0
 72
0
 73
0
 74
0
 75
0
 76
0
 77
1
 78
12
170
0
171
3
172
1
173
0
174
0
175
0
176
0
177
0
178
0
  0
DIMSTYLE
105
7D
  2
EZ_M_100_H25_CM
 70
0
  3

  4

  5

  6

  7

 40
1.0
 41
0.25
 42
0.125
 43
3.75
 44
0.375
 45
0.0
 46
0.0
 47
0.0
 48
0.0
140
0.25
141
2.5
142
0.125
143
0.03937007874
144
100.0
145
0.0
146
0.5
147
0.1
 71
0
 72
0
 73
0
 74
0
 75
0
 76
0
 77
1
 78
12
170
0
171
3
172
1
173
0
174
0
175
0
176
0
177
0
178
0
  0
DIMSTYLE
105
7E
  2
EZ_M_50_H25_CM
 70
0
  3

  4

  5

  6

  7

 40
1.0
 41
0.125
 42
0.0625
 43
3.75
 44
0.1875
 45
0.0
 46
0.0
 47
0.0
 48
0.0
140
0.125
141
2.5
142
0.0625
143
0.03937007874
144
100.0
145
0.0
146
0.5
147
0.05
 71
0
 72
0
 73
0
 74
0
 75
0
 76
0
 77
1
 78
12
170
0
171
3
172
1
173
0
174
0
175
0
176
0
177
0
178
0
  0
DIMSTYLE
105
7F
  2
EZ_M_25_H25_CM
 70
0
  3

  4

  5

  6

  7

 40
1.0
 41
0.0625
 42
0.03125
 43
3.75
 44
0.09375
 45
0.0
 46
0.0
 47
0.0
 48
0.0
140
0.0625
141
2.5
142
0.03125
143
0.03937007874
144
100.0
145
0.0
146
0.5
147
0.025
 71
0
 72
0
 73
0
 74
0
 75
0
 76
0
 77
1
 78
12
170
0
171
3
172
1
173
0
174
0
175
0
176
0
177
0
178
0
  0
DIMSTYLE
105
80
  2
EZ_M_20_H25_CM
 70
0
  3

  4

  5

  6

  7

 40
1.0
 41
0.05
 42
0.025
 43
3.75
 44
0.07500000000000001
 45
0.0
 46
0.0
 47
0.0
 48
0.0
140
0.05
141
2.5
142
0.025
143
0.03937007874
144
100.0
145
0.0
146
0.5
147
0.020000000000000004
 71
0
 72
0
 73
0
 74
0
 75
0
 76
0
 77
1
 78
12
170
0
171
3
172
1
173
0
174
0
175
0
176
0
177
0
178
0
  0
DIMSTYLE
105
81
  2
EZ_M_10_H25_CM
 70
0
  3

  4

  5

  6

  7

 40
1.0
 41
0.025
 42
0.0125
 43
3.75
 44
0.037500000000000006
 45
0.0
 46
0.0
 47
0.0
 48
0.0
140
0.025
141
2.5
142
0.0125
143
0.03937007874
144
100.0
145
0.0
146
0.5
147
0.010000000000000002
 71
0
 72
0
 73
0
 74
0
 75
0
 76
0
 77
1
 78
12
170
0
171
3
172
1
173
0
174
0
175
0
176
0
177
0
178
0
  0
DIMSTYLE
105
82
  2
EZ_M_5_H25_CM
 70
0
  3

  4

  5

  6

  7

 40
1.0
 41
0.0125
 42
0.00625
 43
3.75
 44
0.018750000000000003
 45
0.0
 46
0.0
 47
0.0
 48
0.0
140
0.0125
141
2.5
142
0.00625
143
0.03937007874
144
100.0
145
0.0
146
0.5
147
0.005000000000000001
 71
0
 72
0
 73
0
 74
0
 75
0
 76
0
 77
1
 78
12
170
0
171
3
172
1
173
0
174
0
175
0
176
0
177
0
178
0
  0
DIMSTYLE
105
83
  2
EZ_M_1_H25_CM
 70
0
  3

  4

  5

  6

  7

 40
1.0
 41
0.0025
 42
0.00125
 43
3.75
 44
0.00375
 45
0.0
 46
0.0
 47
0.0
 48
0.0
140
0.0025
141
2.5
142
0.00125
143
0.03937007874
144
100.0
145
0.0
146
0.5
147
0.001
 71
0
 72
0
 73
0
 74
0
 75
0
 76
0
 77
1
 78
12
170
0
171
3
172
1
173
0
174
0
175
0
176
0
177
0
178
0
  0
DIMSTYLE
105
84
  2
EZ_RADIUS
 70
0
  3

  4

  5
CLOSEDBLANK
  6

  7

 40
1.0
 41
0.25
 42
0.125
 43
3.75
 44
0.375
 45
0.0
 46
0.0
 47
0.0
 48
0.0
140
0.25
141
0.0
142
0.0
143
0.03937007874
144
100.0
145
0.0
146
0.5
147
0.1
 71
0
 72
0
 73
0
 74
0
 75
0
 76
0
 77
1
 78
12
170
0
171
3
172
0
173
0
174
0
175
0
176
0
177
0
178
0
  0
DIMSTYLE
105
8D
  2
EZ_RADIUS_INSIDE
 70
0
  3

  4

  5
CLOSEDBLANK
  6

  7

 40
1.0
 41
0.25
 42
0.125
 43
3.75
 44
0.375
 45
0.0
 46
0.0
 47
0.0
 48
0.0
140
0.25
141
0.0
142
0.0
143
0.03937007874
144
100.0
145
0.0
146
0.5
147
0.1
 71
0
 72
0
 73
0
 74
0
 75
0
 76
0
 77
0
 78
12
170
0
171
3
172
0
173
0
174
1
175
0
176
0
177
0
178
0
  0
DIMSTYLE
105
8E
  2
EZ_CURVED
 70
0
  3

  4

  5

  6

  7

 40
1.0
 41
0.25
 42
0.125
 43
3.75
 44
0.375
 45
0.0
 46
0.0
 47
0.0
 48
0.0
140
0.25
141
2.5
142
0.0
143
0.03937007874
144
100.0
145
0.0
146
0.5
147
0.1
 71
0
 72
0
 73
0
 74
0
 75
0
 76
0
 77
1
 78
12
170
0
171
3
172
1
173
0
174
0
175
0
176
0
177
0
178
0
  0
ENDTAB
  0
ENDSEC
  0
SECTION
  2
BLOCKS
  0
BLOCK
  5
18
  8
0
  2
$Model_Space
 70
0
 10
0.0
 20
0.0
 30
0.0
  3
$Model_Space
  1

1001
EZDXF
1000
CREATED_BY_EZDXF
1000
1.4.4 @ 2026-06-28T20:04:07.832770+00:00
1000
WRITTEN_BY_EZDXF
1000
1.4.4 @ 2026-06-28T20:04:07.858219+00:00
  0
ENDBLK
  5
19
  8
0
  0
BLOCK
  5
1C
  8
0
  2
$Paper_Space
 70
0
 10
0.0
 20
0.0
 30
0.0
  3
$Paper_Space
  1

  0
ENDBLK
  5
1D
  8
0
  0
BLOCK
  5
73
  8
0
  2
_ARCHTICK
 70
0
 10
0.0
 20
0.0
 30
0.0
  3
_ARCHTICK
  1

  0
POLYLINE
  5
75
  8
0
  6
BYBLOCK
 62
0
 66
1
 10
0.0
 20
0.0
 30
0.0
 70
0
 40
0.15
 41
0.15
  0
VERTEX
  5
77
  8
0
  6
BYBLOCK
 10
-0.5
 20
-0.5
 30
0.0
 70
0
  0
VERTEX
  5
78
  8
0
  6
BYBLOCK
 10
0.5
 20
0.5
 30
0.0
 70
0
  0
SEQEND
  5
76
  8
0
  0
ENDBLK
  5
74
  8
0
  0
BLOCK
  5
7A
  8
0
  2
_CLOSEDFILLED
 70
0
 10
0.0
 20
0.0
 30
0.0
  3
_CLOSEDFILLED
  1

  0
SOLID
  5
7C
  8
0
  6
BYBLOCK
 62
0
 10
-1.0
 20
0.16439898372402537
 30
0.0
 11
0.0
 21
0.0
 31
0.0
 12
-1.0
 22
-0.16439898372402537
 32
0.0
 13
-1.0
 23
-0.16439898372402537
 33
0.0
  0
ENDBLK
  5
7B
  8
0
  0
BLOCK
  5
86
  8
0
  2
_CLOSEDBLANK
 70
0
 10
0.0
 20
0.0
 30
0.0
  3
_CLOSEDBLANK
  1

  0
POLYLINE
  5
88
  8
0
  6
BYBLOCK
 62
0
 66
1
 10
0.0
 20
0.0
 30
0.0
 70
1
  0
VERTEX
  5
8A
  8
0
  6
BYBLOCK
 10
-1.0
 20
0.16439898372402537
 30
0.0
 70
0
  0
VERTEX
  5
8B
  8
0
  6
BYBLOCK
 10
0.0
 20
0.0
 30
0.0
 70
0
  0
VERTEX
  5
8C
  8
0
  6
BYBLOCK
 10
-1.0
 20
-0.16439898372402537
 30
0.0
 70
0
  0
SEQEND
  5
89
  8
0
  0
ENDBLK
  5
87
  8
0
  0
ENDSEC
  0
SECTION
  2
ENTITIES
  0
POLYLINE
  5
8F
  8
0
 66
1
 10
0.0
 20
0.0
 30
0.0
 70
1
  0
VERTEX
  5
91
  8
0
 10
3.476
 20
0.0
 30
0.0
 70
0
  0
VERTEX
  5
92
  8
0
 10
3.5578128711089074
 20
0.0011261479413668951
 30
0.0
 70
0
  0
VERTEX
  5
93
  8
0
 10
3.6387695292990756
 20
0.004483488348459019
 30
0.0
 70
0
  0
VERTEX
  5
94
  8
0
 10
3.718868907543801
 20
0.010040366095763531
 30
0.0
 70
0
  0
VERTEX
  5
95
  8
0
 10
3.7981099388163813
 20
0.017765126057772918
 30
0.0
 70
0
  0
VERTEX
  5
96
  8
0
 10
3.8764915560901145
 20
0.02762611310897256
 30
0.0
 70
0
  0
VERTEX
  5
97
  8
0
 10
3.9540126923382974
 20
0.03959167212385317
 30
0.0
 70
0
  0
VERTEX
  5
98
  8
0
 10
4.030672280534227
 20
0.05363014797690191
 30
0.0
 70
0
  0
VERTEX
  5
99
  8
0
 10
4.106469253651202
 20
0.06970988554260948
 30
0.0
 70
0
  0
VERTEX
  5
9A
  8
0
 10
4.181402544662518
 20
0.08779922969546305
 30
0.0
 70
0
  0
VERTEX
  5
9B
  8
0
 10
4.2554710865414735
 20
0.10786652530995333
 30
0.0
 70
0
  0
VERTEX
  5
9C
  8
0
 10
4.328673812261366
 20
0.1298801172605657
 30
0.0
 70
0
  0
VERTEX
  5
9D
  8
0
 10
4.401009654795493
 20
0.15380835042179086
 30
0.0
 70
0
  0
VERTEX
  5
9E
  8
0
 10
4.47247754711715
 20
0.17961956966811776
 30
0.0
 70
0
  0
VERTEX
  5
9F
  8
0
 10
4.543076422199636
 20
0.20728211987403533
 30
0.0
 70
0
  0
VERTEX
  5
A0
  8
0
 10
4.612805213016249
 20
0.2367643459140325
 30
0.0
 70
0
  0
VERTEX
  5
A1
  8
0
 10
4.681662852540285
 20
0.26803459266259644
 30
0.0
 70
0
  0
VERTEX
  5
A2
  8
0
 10
4.749648273745042
 20
0.30106120499421607
 30
0.0
 70
0
  0
VERTEX
  5
A3
  8
0
 10
4.816760409603818
 20
0.3358125277833821
 30
0.0
 70
0
  0
VERTEX
  5
A4
  8
0
 10
4.882998193089908
 20
0.3722569059045817
 30
0.0
 70
0
  0
VERTEX
  5
A5
  8
0
 10
4.9483605571766125
 20
0.4103626842323038
 30
0.0
 70
0
  0
VERTEX
  5
A6
  8
0
 10
5.012846434837227
 20
0.45009820764103736
 30
0.0
 70
0
  0
VERTEX
  5
A7
  8
0
 10
5.076454759045049
 20
0.4914318210052713
 30
0.0
 70
0
  0
VERTEX
  5
A8
  8
0
 10
5.139184462773376
 20
0.5343318691994945
 30
0.0
 70
0
  0
VERTEX
  5
A9
  8
0
 10
5.201034478995506
 20
0.5787666970981942
 30
0.0
 70
0
  0
VERTEX
  5
AA
  8
0
 10
5.262003740684735
 20
0.624704649575861
 30
0.0
 70
0
  0
VERTEX
  5
AB
  8
0
 10
5.322091180814362
 20
0.672114071506984
 30
0.0
 70
0
  0
VERTEX
  5
AC
  8
0
 10
5.3812957323576835
 20
0.7209633077660484
 30
0.0
 70
0
  0
VERTEX
  5
AD
  8
0
 10
5.439616328287998
 20
0.7712207032275469
 30
0.0
 70
0
  0
VERTEX
  5
AE
  8
0
 10
5.4970519015786
 20
0.8228546027659664
 30
0.0
 70
0
  0
VERTEX
  5
AF
  8
0
 10
5.553601385202789
 20
0.8758333512557961
 30
0.0
 70
0
  0
VERTEX
  5
B0
  8
0
 10
5.609263712133863
 20
0.9301252935715247
 30
0.0
 70
0
  0
VERTEX
  5
B1
  8
0
 10
5.664037815345118
 20
0.9856987745876413
 30
0.0
 70
0
  0
VERTEX
  5
B2
  8
0
 10
5.717922627809853
 20
1.042522139178633
 30
0.0
 70
0
  0
VERTEX
  5
B3
  8
0
 10
5.770917082501363
 20
1.1005637322189905
 30
0.0
 70
0
  0
VERTEX
  5
B4
  8
0
 10
5.823020112392947
 20
1.1597918985832028
 30
0.0
 70
0
  0
VERTEX
  5
B5
  8
0
 10
5.874230650457902
 20
1.2201749831457551
 30
0.0
 70
0
  0
VERTEX
  5
B6
  8
0
 10
5.924547629669525
 20
1.28168133078114
 30
0.0
 70
0
  0
VERTEX
  5
B7
  8
0
 10
5.973969983001114
 20
1.3442792863638449
 30
0.0
 70
0
  0
VERTEX
  5
B8
  8
0
 10
6.022496643425966
 20
1.40793719476836
 30
0.0
 70
0
  0
VERTEX
  5
B9
  8
0
 10
6.070126543917379
 20
1.4726234008691712
 30
0.0
 70
0
  0
VERTEX
  5
BA
  8
0
 10
6.116858617448649
 20
1.5383062495407689
 30
0.0
 70
0
  0
VERTEX
  5
BB
  8
0
 10
6.162691796993075
 20
1.6049540856576403
 30
0.0
 70
0
  0
VERTEX
  5
BC
  8
0
 10
6.207625015523952
 20
1.6725352540942762
 30
0.0
 70
0
  0
VERTEX
  5
BD
  8
0
 10
6.251657206014581
 20
1.7410180997251654
 30
0.0
 70
0
  0
VERTEX
  5
BE
  8
0
 10
6.294787301438257
 20
1.8103709674247952
 30
0.0
 70
0
  0
VERTEX
  5
BF
  8
0
 10
6.337014234768278
 20
1.8805622020676545
 30
0.0
 70
0
  0
VERTEX
  5
C0
  8
0
 10
6.37833693897794
 20
1.9515601485282321
 30
0.0
 70
0
  0
VERTEX
  5
C1
  8
0
 10
6.418754347040542
 20
2.023333151681019
 30
0.0
 70
0
  0
VERTEX
  5
C2
  8
0
 10
6.4582653919293795
 20
2.0958495564005
 30
0.0
 70
0
  0
VERTEX
  5
C3
  8
0
 10
6.496869006617752
 20
2.1690777075611667
 30
0.0
 70
0
  0
VERTEX
  5
C4
  8
0
 10
6.534564124078957
 20
2.242985950037509
 30
0.0
 70
0
  0
VERTEX
  5
C5
  8
0
 10
6.571349677286291
 20
2.317542628704011
 30
0.0
 70
0
  0
VERTEX
  5
C6
  8
0
 10
6.607224599213049
 20
2.392716088435165
 30
0.0
 70
0
  0
VERTEX
  5
C7
  8
0
 10
6.6421878228325335
 20
2.46847467410546
 30
0.0
 70
0
  0
VERTEX
  5
C8
  8
0
 10
6.676238281118038
 20
2.544786730589381
 30
0.0
 70
0
  0
VERTEX
  5
C9
  8
0
 10
6.709374907042862
 20
2.6216206027614213
 30
0.0
 70
0
  0
VERTEX
  5
CA
  8
0
 10
6.741596633580301
 20
2.6989446354960673
 30
0.0
 70
0
  0
VERTEX
  5
CB
  8
0
 10
6.772902393703651
 20
2.7767271736678065
 30
0.0
 70
0
  0
VERTEX
  5
CC
  8
0
 10
6.8032911203862145
 20
2.854936562151133
 30
0.0
 70
0
  0
VERTEX
  5
CD
  8
0
 10
6.832761746601285
 20
2.933541145820529
 30
0.0
 70
0
  0
VERTEX
  5
CE
  8
0
 10
6.861313205322161
 20
3.0125092695504865
 30
0.0
 70
0
  0
VERTEX
  5
CF
  8
0
 10
6.888944429522139
 20
3.0918092782154947
 30
0.0
 70
0
  0
VERTEX
  5
D0
  8
0
 10
6.915654352174517
 20
3.1714095166900407
 30
0.0
 70
0
  0
VERTEX
  5
D1
  8
0
 10
6.941441906252594
 20
3.2512783298486134
 30
0.0
 70
0
  0
VERTEX
  5
D2
  8
0
 10
6.966306024729665
 20
3.331384062565702
 30
0.0
 70
0
  0
VERTEX
  5
D3
  8
0
 10
6.990245640579028
 20
3.4116950597157985
 30
0.0
 70
0
  0
VERTEX
  5
D4
  8
0
 10
7.01325968677398
 20
3.492179666173385
 30
0.0
 70
0
  0
VERTEX
  5
D5
  8
0
 10
7.035347096287819
 20
3.572806226812954
 30
0.0
 70
0
  0
VERTEX
  5
D6
  8
0
 10
7.056506802093843
 20
3.6535430865089946
 30
0.0
 70
0
  0
VERTEX
  5
D7
  8
0
 10
7.076737737165349
 20
3.7343585901359972
 30
0.0
 70
0
  0
VERTEX
  5
D8
  8
0
 10
7.096038834475633
 20
3.8152210825684456
 30
0.0
 70
0
  0
VERTEX
  5
D9
  8
0
 10
7.114409026997993
 20
3.896098908680832
 30
0.0
 70
0
  0
VERTEX
  5
DA
  8
0
 10
7.131847247705728
 20
3.9769604133476424
 30
0.0
 70
0
  0
VERTEX
  5
DB
  8
0
 10
7.148346440062329
 20
4.057723852358336
 30
0.0
 70
0
  0
VERTEX
  5
DC
  8
0
 10
7.164122259388557
 20
4.136222808764746
 30
0.0
 70
0
  0
VERTEX
  5
DD
  8
0
 10
7.179898078714784
 20
4.214721765171152
 30
0.0
 70
0
  0
VERTEX
  5
DE
  8
0
 10
7.195673898041011
 20
4.293220721577562
 30
0.0
 70
0
  0
VERTEX
  5
DF
  8
0
 10
7.2114497173672385
 20
4.37171967798397
 30
0.0
 70
0
  0
VERTEX
  5
E0
  8
0
 10
7.2272255366934655
 20
4.450218634390378
 30
0.0
 70
0
  0
VERTEX
  5
E1
  8
0
 10
7.243001356019693
 20
4.528717590796786
 30
0.0
 70
0
  0
VERTEX
  5
E2
  8
0
 10
7.25877717534592
 20
4.607216547203194
 30
0.0
 70
0
  0
VERTEX
  5
E3
  8
0
 10
7.274552994672148
 20
4.685715503609602
 30
0.0
 70
0
  0
VERTEX
  5
E4
  8
0
 10
7.290328813998375
 20
4.76421446001601
 30
0.0
 70
0
  0
VERTEX
  5
E5
  8
0
 10
7.306104633324602
 20
4.84271341642242
 30
0.0
 70
0
  0
VERTEX
  5
E6
  8
0
 10
7.32188045265083
 20
4.921212372828826
 30
0.0
 70
0
  0
VERTEX
  5
E7
  8
0
 10
7.337656271977057
 20
4.999711329235236
 30
0.0
 70
0
  0
VERTEX
  5
E8
  8
0
 10
7.353432091303285
 20
5.078210285641644
 30
0.0
 70
0
  0
VERTEX
  5
E9
  8
0
 10
7.369207910629512
 20
5.156709242048052
 30
0.0
 70
0
  0
VERTEX
  5
EA
  8
0
 10
7.384983729955739
 20
5.23520819845446
 30
0.0
 70
0
  0
VERTEX
  5
EB
  8
0
 10
7.400759549281966
 20
5.313707154860868
 30
0.0
 70
0
  0
VERTEX
  5
EC
  8
0
 10
7.416535368608193
 20
5.392206111267276
 30
0.0
 70
0
  0
VERTEX
  5
ED
  8
0
 10
7.432311187934421
 20
5.470705067673686
 30
0.0
 70
0
  0
VERTEX
  5
EE
  8
0
 10
7.448087007260648
 20
5.549204024080094
 30
0.0
 70
0
  0
VERTEX
  5
EF
  8
0
 10
7.463862826586876
 20
5.627702980486502
 30
0.0
 70
0
  0
VERTEX
  5
F0
  8
0
 10
7.479638645913103
 20
5.70620193689291
 30
0.0
 70
0
  0
VERTEX
  5
F1
  8
0
 10
7.49541446523933
 20
5.784700893299318
 30
0.0
 70
0
  0
VERTEX
  5
F2
  8
0
 10
7.511190284565558
 20
5.863199849705728
 30
0.0
 70
0
  0
VERTEX
  5
F3
  8
0
 10
7.526966103891785
 20
5.941698806112134
 30
0.0
 70
0
  0
VERTEX
  5
F4
  8
0
 10
7.542741923218013
 20
6.020197762518544
 30
0.0
 70
0
  0
VERTEX
  5
F5
  8
0
 10
7.55851774254424
 20
6.09869671892495
 30
0.0
 70
0
  0
VERTEX
  5
F6
  8
0
 10
7.574293561870467
 20
6.17719567533136
 30
0.0
 70
0
  0
VERTEX
  5
F7
  8
0
 10
7.590069381196694
 20
6.255694631737768
 30
0.0
 70
0
  0
VERTEX
  5
F8
  8
0
 10
7.605845200522921
 20
6.334193588144176
 30
0.0
 70
0
  0
VERTEX
  5
F9
  8
0
 10
7.621621019849149
 20
6.412692544550586
 30
0.0
 70
0
  0
VERTEX
  5
FA
  8
0
 10
7.637396839175376
 20
6.491191500956992
 30
0.0
 70
0
  0
VERTEX
  5
FB
  8
0
 10
7.653172658501604
 20
6.569690457363402
 30
0.0
 70
0
  0
VERTEX
  5
FC
  8
0
 10
7.668948477827831
 20
6.64818941376981
 30
0.0
 70
0
  0
VERTEX
  5
FD
  8
0
 10
7.684724297154058
 20
6.726688370176218
 30
0.0
 70
0
  0
VERTEX
  5
FE
  8
0
 10
7.700500116480286
 20
6.805187326582626
 30
0.0
 70
0
  0
VERTEX
  5
FF
  8
0
 10
7.716275935806513
 20
6.883686282989034
 30
0.0
 70
0
  0
VERTEX
  5
100
  8
0
 10
7.732051755132741
 20
6.962185239395442
 30
0.0
 70
0
  0
VERTEX
  5
101
  8
0
 10
7.7478275744589675
 20
7.04068419580185
 30
0.0
 70
0
  0
VERTEX
  5
102
  8
0
 10
7.7636033937851945
 20
7.119183152208258
 30
0.0
 70
0
  0
VERTEX
  5
103
  8
0
 10
7.779379213111422
 20
7.197682108614668
 30
0.0
 70
0
  0
VERTEX
  5
104
  8
0
 10
7.79515503243765
 20
7.276181065021076
 30
0.0
 70
0
  0
VERTEX
  5
105
  8
0
 10
7.810930851763877
 20
7.354680021427482
 30
0.0
 70
0
  0
VERTEX
  5
106
  8
0
 10
7.826706671090104
 20
7.433178977833892
 30
0.0
 70
0
  0
VERTEX
  5
107
  8
0
 10
7.842482490416332
 20
7.5116779342403
 30
0.0
 70
0
  0
VERTEX
  5
108
  8
0
 10
7.858258309742559
 20
7.590176890646708
 30
0.0
 70
0
  0
VERTEX
  5
109
  8
0
 10
7.874034129068787
 20
7.668675847053118
 30
0.0
 70
0
  0
VERTEX
  5
10A
  8
0
 10
7.889809948395014
 20
7.747174803459524
 30
0.0
 70
0
  0
VERTEX
  5
10B
  8
0
 10
7.905585767721241
 20
7.825673759865933
 30
0.0
 70
0
  0
VERTEX
  5
10C
  8
0
 10
7.9213615870474685
 20
7.904172716272342
 30
0.0
 70
0
  0
VERTEX
  5
10D
  8
0
 10
7.9371374063736955
 20
7.98267167267875
 30
0.0
 70
0
  0
VERTEX
  5
10E
  8
0
 10
7.952913225699923
 20
8.061170629085158
 30
0.0
 70
0
  0
VERTEX
  5
10F
  8
0
 10
7.96868904502615
 20
8.139669585491566
 30
0.0
 70
0
  0
VERTEX
  5
110
  8
0
 10
7.984464864352377
 20
8.218168541897974
 30
0.0
 70
0
  0
VERTEX
  5
111
  8
0
 10
8.000240683678605
 20
8.296667498304384
 30
0.0
 70
0
  0
VERTEX
  5
112
  8
0
 10
8.016016503004833
 20
8.375166454710792
 30
0.0
 70
0
  0
VERTEX
  5
113
  8
0
 10
8.031792322331059
 20
8.4536654111172
 30
0.0
 70
0
  0
VERTEX
  5
114
  8
0
 10
8.047568141657287
 20
8.532164367523606
 30
0.0
 70
0
  0
VERTEX
  5
115
  8
0
 10
8.063343960983515
 20
8.610663323930016
 30
0.0
 70
0
  0
VERTEX
  5
116
  8
0
 10
8.079119780309743
 20
8.689162280336424
 30
0.0
 70
0
  0
VERTEX
  5
117
  8
0
 10
8.094895599635969
 20
8.767661236742832
 30
0.0
 70
0
  0
VERTEX
  5
118
  8
0
 10
8.110671418962196
 20
8.846160193149242
 30
0.0
 70
0
  0
VERTEX
  5
119
  8
0
 10
8.126447238288424
 20
8.924659149555648
 30
0.0
 70
0
  0
VERTEX
  5
11A
  8
0
 10
8.14222305761465
 20
9.003158105962058
 30
0.0
 70
0
  0
VERTEX
  5
11B
  8
0
 10
8.210062579219553
 20
9.038149770941072
 30
0.0
 70
0
  0
VERTEX
  5
11C
  8
0
 10
8.284510788057572
 20
9.067618853606122
 30
0.0
 70
0
  0
VERTEX
  5
11D
  8
0
 10
8.358958996895593
 20
9.097087936271173
 30
0.0
 70
0
  0
VERTEX
  5
11E
  8
0
 10
8.433407205733612
 20
9.126557018936222
 30
0.0
 70
0
  0
VERTEX
  5
11F
  8
0
 10
8.507855414571631
 20
9.15602610160127
 30
0.0
 70
0
  0
VERTEX
  5
120
  8
0
 10
8.582303623409652
 20
9.185495184266319
 30
0.0
 70
0
  0
VERTEX
  5
121
  8
0
 10
8.656751832247673
 20
9.21496426693137
 30
0.0
 70
0
  0
VERTEX
  5
122
  8
0
 10
8.721878656492837
 20
9.25189815778796
 30
0.0
 70
0
  0
VERTEX
  5
123
  8
0
 10
8.734366343800717
 20
9.330986844071203
 30
0.0
 70
0
  0
VERTEX
  5
124
  8
0
 10
8.746854031108597
 20
9.410075530354447
 30
0.0
 70
0
  0
VERTEX
  5
125
  8
0
 10
8.731099262191565
 20
9.468690914949654
 30
0.0
 70
0
  0
VERTEX
  5
126
  8
0
 10
8.637758960777115
 20
9.47126418139393
 30
0.0
 70
0
  0
VERTEX
  5
127
  8
0
 10
8.544385086174074
 20
9.473803767389851
 30
0.0
 70
0
  0
VERTEX
  5
128
  8
0
 10
8.45153561315491
 20
9.476283102710152
 30
0.0
 70
0
  0
VERTEX
  5
129
  8
0
 10
8.359768516492075
 20
9.478675617127575
 30
0.0
 70
0
  0
VERTEX
  5
12A
  8
0
 10
8.269641770958035
 20
9.480954740414859
 30
0.0
 70
0
  0
VERTEX
  5
12B
  8
0
 10
8.181713351325254
 20
9.483093902344745
 30
0.0
 70
0
  0
VERTEX
  5
12C
  8
0
 10
8.096541232366189
 20
9.48506653268997
 30
0.0
 70
0
  0
VERTEX
  5
12D
  8
0
 10
8.014683388853303
 20
9.486846061223279
 30
0.0
 70
0
  0
VERTEX
  5
12E
  8
0
 10
7.936697795559059
 20
9.488405917717408
 30
0.0
 70
0
  0
VERTEX
  5
12F
  8
0
 10
7.863142427255916
 20
9.489719531945097
 30
0.0
 70
0
  0
VERTEX
  5
130
  8
0
 10
7.7945752587163355
 20
9.490760333679088
 30
0.0
 70
0
  0
VERTEX
  5
131
  8
0
 10
7.731554264712781
 20
9.49150175269212
 30
0.0
 70
0
  0
VERTEX
  5
132
  8
0
 10
7.674637420017714
 20
9.491917218756932
 30
0.0
 70
0
  0
VERTEX
  5
133
  8
0
 10
7.613286371374917
 20
9.491942247377818
 30
0.0
 70
0
  0
VERTEX
  5
134
  8
0
 10
7.530849738786629
 20
9.491043938879656
 30
0.0
 70
0
  0
VERTEX
  5
135
  8
0
 10
7.447715105229565
 20
9.489056301084979
 30
0.0
 70
0
  0
VERTEX
  5
136
  8
0
 10
7.363945039506356
 20
9.485977248367034
 30
0.0
 70
0
  0
VERTEX
  5
137
  8
0
 10
7.279602110419629
 20
9.481804695099065
 30
0.0
 70
0
  0
VERTEX
  5
138
  8
0
 10
7.194748886772017
 20
9.476536555654317
 30
0.0
 70
0
  0
VERTEX
  5
139
  8
0
 10
7.109447937366151
 20
9.470170744406037
 30
0.0
 70
0
  0
VERTEX
  5
13A
  8
0
 10
7.023761831004661
 20
9.462705175727468
 30
0.0
 70
0
  0
VERTEX
  5
13B
  8
0
 10
6.937753136490182
 20
9.454137763991861
 30
0.0
 70
0
  0
VERTEX
  5
13C
  8
0
 10
6.8514844226253375
 20
9.444466423572457
 30
0.0
 70
0
  0
VERTEX
  5
13D
  8
0
 10
6.765018258212763
 20
9.433689068842504
 30
0.0
 70
0
  0
VERTEX
  5
13E
  8
0
 10
6.678417212055087
 20
9.421803614175246
 30
0.0
 70
0
  0
VERTEX
  5
13F
  8
0
 10
6.5917438529549415
 20
9.408807973943931
 30
0.0
 70
0
  0
VERTEX
  5
140
  8
0
 10
6.50506074971496
 20
9.394700062521803
 30
0.0
 70
0
  0
VERTEX
  5
141
  8
0
 10
6.418430471137768
 20
9.379477794282106
 30
0.0
 70
0
  0
VERTEX
  5
142
  8
0
 10
6.331915586025998
 20
9.363139083598089
 30
0.0
 70
0
  0
VERTEX
  5
143
  8
0
 10
6.245578663182282
 20
9.345681844842996
 30
0.0
 70
0
  0
VERTEX
  5
144
  8
0
 10
6.159482271409249
 20
9.327103992390072
 30
0.0
 70
0
  0
VERTEX
  5
145
  8
0
 10
6.073688979509535
 20
9.307403440612564
 30
0.0
 70
0
  0
VERTEX
  5
146
  8
0
 10
5.988261356285763
 20
9.286578103883716
 30
0.0
 70
0
  0
VERTEX
  5
147
  8
0
 10
5.9032619705405684
 20
9.264625896576774
 30
0.0
 70
0
  0
VERTEX
  5
148
  8
0
 10
5.818753391076581
 20
9.241544733064986
 30
0.0
 70
0
  0
VERTEX
  5
149
  8
0
 10
5.73479818669643
 20
9.217332527721595
 30
0.0
 70
0
  0
VERTEX
  5
14A
  8
0
 10
5.651458926202752
 20
9.191987194919847
 30
0.0
 70
0
  0
VERTEX
  5
14B
  8
0
 10
5.56879817839817
 20
9.16550664903299
 30
0.0
 70
0
  0
VERTEX
  5
14C
  8
0
 10
5.486878512085319
 20
9.137888804434265
 30
0.0
 70
0
  0
VERTEX
  5
14D
  8
0
 10
5.405762496066828
 20
9.109131575496924
 30
0.0
 70
0
  0
VERTEX
  5
14E
  8
0
 10
5.32551269914533
 20
9.079232876594206
 30
0.0
 70
0
  0
VERTEX
  5
14F
  8
0
 10
5.246191690123455
 20
9.048190622099362
 30
0.0
 70
0
  0
VERTEX
  5
150
  8
0
 10
5.1678620378038325
 20
9.016002726385635
 30
0.0
 70
0
  0
VERTEX
  5
151
  8
0
 10
5.090586310989094
 20
8.98266710382627
 30
0.0
 70
0
  0
VERTEX
  5
152
  8
0
 10
5.014427078481869
 20
8.948181668794513
 30
0.0
 70
0
  0
VERTEX
  5
153
  8
0
 10
4.939446909084791
 20
8.912544335663611
 30
0.0
 70
0
  0
VERTEX
  5
154
  8
0
 10
4.8657083716004905
 20
8.875753018806812
 30
0.0
 70
0
  0
VERTEX
  5
155
  8
0
 10
4.793274034831596
 20
8.837805632597355
 30
0.0
 70
0
  0
VERTEX
  5
156
  8
0
 10
4.7222064675807385
 20
8.798700091408488
 30
0.0
 70
0
  0
VERTEX
  5
157
  8
0
 10
4.65256823865055
 20
8.758434309613461
 30
0.0
 70
0
  0
VERTEX
  5
158
  8
0
 10
4.58442191684366
 20
8.717006201585516
 30
0.0
 70
0
  0
VERTEX
  5
159
  8
0
 10
4.517830070962702
 20
8.6744136816979
 30
0.0
 70
0
  0
VERTEX
  5
15A
  8
0
 10
4.452855269810303
 20
8.630654664323856
 30
0.0
 70
0
  0
VERTEX
  5
15B
  8
0
 10
4.389560082189098
 20
8.58572706383663
 30
0.0
 70
0
  0
VERTEX
  5
15C
  8
0
 10
4.328007076901714
 20
8.539628794609472
 30
0.0
 70
0
  0
VERTEX
  5
15D
  8
0
 10
4.2682588227507825
 20
8.492357771015623
 30
0.0
 70
0
  0
VERTEX
  5
15E
  8
0
 10
4.210377888538936
 20
8.443911907428332
 30
0.0
 70
0
  0
VERTEX
  5
15F
  8
0
 10
4.154426843068803
 20
8.394289118220842
 30
0.0
 70
0
  0
VERTEX
  5
160
  8
0
 10
4.100468255143015
 20
8.3434873177664
 30
0.0
 70
0
  0
VERTEX
  5
161
  8
0
 10
4.048564693564205
 20
8.291504420438251
 30
0.0
 70
0
  0
VERTEX
  5
162
  8
0
 10
3.998778727135001
 20
8.23833834060964
 30
0.0
 70
0
  0
VERTEX
  5
163
  8
0
 10
3.9511729246580356
 20
8.183986992653816
 30
0.0
 70
0
  0
VERTEX
  5
164
  8
0
 10
3.905809854935938
 20
8.12844829094402
 30
0.0
 70
0
  0
VERTEX
  5
165
  8
0
 10
3.8627520867713394
 20
8.071720149853501
 30
0.0
 70
0
  0
VERTEX
  5
166
  8
0
 10
3.82206218896687
 20
8.013800483755503
 30
0.0
 70
0
  0
VERTEX
  5
167
  8
0
 10
3.7838027303251622
 20
7.954687207023271
 30
0.0
 70
0
  0
VERTEX
  5
168
  8
0
 10
3.7480362796488462
 20
7.894378234030054
 30
0.0
 70
0
  0
VERTEX
  5
169
  8
0
 10
3.7148254057405516
 20
7.8328714791490945
 30
0.0
 70
0
  0
VERTEX
  5
16A
  8
0
 10
3.6842326774029104
 20
7.770164856753638
 30
0.0
 70
0
  0
VERTEX
  5
16B
  8
0
 10
3.656320663438553
 20
7.706256281216932
 30
0.0
 70
0
  0
VERTEX
  5
16C
  8
0
 10
3.63115193265011
 20
7.641143666912221
 30
0.0
 70
0
  0
VERTEX
  5
16D
  8
0
 10
3.608789053840213
 20
7.574824928212752
 30
0.0
 70
0
  0
VERTEX
  5
16E
  8
0
 10
3.5892945958114915
 20
7.507297979491769
 30
0.0
 70
0
  0
VERTEX
  5
16F
  8
0
 10
3.572731127366576
 20
7.438560735122518
 30
0.0
 70
0
  0
VERTEX
  5
170
  8
0
 10
3.559161217308098
 20
7.368611109478245
 30
0.0
 70
0
  0
VERTEX
  5
171
  8
0
 10
3.5486474344386894
 20
7.297447016932194
 30
0.0
 70
0
  0
VERTEX
  5
172
  8
0
 10
3.541252347560981
 20
7.225066371857617
 30
0.0
 70
0
  0
VERTEX
  5
173
  8
0
 10
3.5370385254776
 20
7.1514670886277525
 30
0.0
 70
0
  0
VERTEX
  5
174
  8
0
 10
3.536152371702788
 20
7.069923672180646
 30
0.0
 70
0
  0
VERTEX
  5
175
  8
0
 10
3.5412954164187345
 20
6.96688315202158
 30
0.0
 70
0
  0
VERTEX
  5
176
  8
0
 10
3.553687224101093
 20
6.87255516988531
 30
0.0
 70
0
  0
VERTEX
  5
177
  8
0
 10
3.5732546049809946
 20
6.786939725771836
 30
0.0
 70
0
  0
VERTEX
  5
178
  8
0
 10
3.59992436928957
 20
6.710036819681157
 30
0.0
 70
0
  0
VERTEX
  5
179
  8
0
 10
3.633623327257949
 20
6.641846451613278
 30
0.0
 70
0
  0
VERTEX
  5
17A
  8
0
 10
3.6742782891172654
 20
6.58236862156819
 30
0.0
 70
0
  0
VERTEX
  5
17B
  8
0
 10
3.7218160650986487
 20
6.531603329545899
 30
0.0
 70
0
  0
VERTEX
  5
17C
  8
0
 10
3.776163465433231
 20
6.489550575546403
 30
0.0
 70
0
  0
VERTEX
  5
17D
  8
0
 10
3.837247300352142
 20
6.4562103595697025
 30
0.0
 70
0
  0
VERTEX
  5
17E
  8
0
 10
3.9049943800865132
 20
6.431582681615799
 30
0.0
 70
0
  0
VERTEX
  5
17F
  8
0
 10
3.979331514867476
 20
6.415667541684691
 30
0.0
 70
0
  0
VERTEX
  5
180
  8
0
 10
4.060185514926161
 20
6.408464939776378
 30
0.0
 70
0
  0
VERTEX
  5
181
  8
0
 10
4.148837546828388
 20
6.410315775619583
 30
0.0
 70
0
  0
VERTEX
  5
182
  8
0
 10
4.233838560280351
 20
6.422147414051034
 30
0.0
 70
0
  0
VERTEX
  5
183
  8
0
 10
4.312042844025119
 20
6.443712984173651
 30
0.0
 70
0
  0
VERTEX
  5
184
  8
0
 10
4.383006328197489
 20
6.474679433588523
 30
0.0
 70
0
  0
VERTEX
  5
185
  8
0
 10
4.446284942932246
 20
6.514713709896746
 30
0.0
 70
0
  0
VERTEX
  5
186
  8
0
 10
4.501434618364181
 20
6.563482760699408
 30
0.0
 70
0
  0
VERTEX
  5
187
  8
0
 10
4.548011284628081
 20
6.620653533597604
 30
0.0
 70
0
  0
VERTEX
  5
188
  8
0
 10
4.585570871858735
 20
6.685892976192424
 30
0.0
 70
0
  0
VERTEX
  5
189
  8
0
 10
4.613669310190934
 20
6.758868036084959
 30
0.0
 70
0
  0
VERTEX
  5
18A
  8
0
 10
4.631862529759466
 20
6.839245660876303
 30
0.0
 70
0
  0
VERTEX
  5
18B
  8
0
 10
4.639706460699122
 20
6.926692798167547
 30
0.0
 70
0
  0
VERTEX
  5
18C
  8
0
 10
4.638493042472353
 20
7.00365098771206
 30
0.0
 70
0
  0
VERTEX
  5
18D
  8
0
 10
4.6325905500287075
 20
7.079594751122304
 30
0.0
 70
0
  0
VERTEX
  5
18E
  8
0
 10
4.623262859228086
 20
7.158615633069838
 30
0.0
 70
0
  0
VERTEX
  5
18F
  8
0
 10
4.611628645731301
 20
7.239834674106879
 30
0.0
 70
0
  0
VERTEX
  5
190
  8
0
 10
4.59880658519916
 20
7.322372914785648
 30
0.0
 70
0
  0
VERTEX
  5
191
  8
0
 10
4.585915353292475
 20
7.405351395658368
 30
0.0
 70
0
  0
VERTEX
  5
192
  8
0
 10
4.574073625672056
 20
7.4878911572772555
 30
0.0
 70
0
  0
VERTEX
  5
193
  8
0
 10
4.564400077998711
 20
7.569113240194536
 30
0.0
 70
0
  0
VERTEX
  5
194
  8
0
 10
4.5580133859332514
 20
7.648138684962427
 30
0.0
 70
0
  0
VERTEX
  5
195
  8
0
 10
4.5560389248361375
 20
7.725125249063043
 30
0.0
 70
0
  0
VERTEX
  5
196
  8
0
 10
4.559990098972144
 20
7.807097671802469
 30
0.0
 70
0
  0
VERTEX
  5
197
  8
0
 10
4.570245902607107
 20
7.8857121506220125
 30
0.0
 70
0
  0
VERTEX
  5
198
  8
0
 10
4.586554549905903
 20
7.961034573403758
 30
0.0
 70
0
  0
VERTEX
  5
199
  8
0
 10
4.608664255033408
 20
8.033130828029792
 30
0.0
 70
0
  0
VERTEX
  5
19A
  8
0
 10
4.636323232154502
 20
8.102066802382204
 30
0.0
 70
0
  0
VERTEX
  5
19B
  8
0
 10
4.669279695434062
 20
8.167908384343082
 30
0.0
 70
0
  0
VERTEX
  5
19C
  8
0
 10
4.707281859036966
 20
8.230721461794516
 30
0.0
 70
0
  0
VERTEX
  5
19D
  8
0
 10
4.750077937128091
 20
8.29057192261859
 30
0.0
 70
0
  0
VERTEX
  5
19E
  8
0
 10
4.797416143872315
 20
8.347525654697394
 30
0.0
 70
0
  0
VERTEX
  5
19F
  8
0
 10
4.849044693434515
 20
8.401648545913016
 30
0.0
 70
0
  0
VERTEX
  5
1A0
  8
0
 10
4.904711799979568
 20
8.453006484147544
 30
0.0
 70
0
  0
VERTEX
  5
1A1
  8
0
 10
4.964165677672355
 20
8.501665357283066
 30
0.0
 70
0
  0
VERTEX
  5
1A2
  8
0
 10
5.027154540677752
 20
8.547691053201671
 30
0.0
 70
0
  0
VERTEX
  5
1A3
  8
0
 10
5.093426603160636
 20
8.591149459785449
 30
0.0
 70
0
  0
VERTEX
  5
1A4
  8
0
 10
5.162730079285886
 20
8.632106464916482
 30
0.0
 70
0
  0
VERTEX
  5
1A5
  8
0
 10
5.234813183218379
 20
8.670627956476864
 30
0.0
 70
0
  0
VERTEX
  5
1A6
  8
0
 10
5.309424129122992
 20
8.706779822348679
 30
0.0
 70
0
  0
VERTEX
  5
1A7
  8
0
 10
5.386311131164605
 20
8.740627950414018
 30
0.0
 70
0
  0
VERTEX
  5
1A8
  8
0
 10
5.4652224035080925
 20
8.772238228554968
 30
0.0
 70
0
  0
VERTEX
  5
1A9
  8
0
 10
5.545906160318333
 20
8.801676544653617
 30
0.0
 70
0
  0
VERTEX
  5
1AA
  8
0
 10
5.628110615760203
 20
8.82900878659205
 30
0.0
 70
0
  0
VERTEX
  5
1AB
  8
0
 10
5.711583983998585
 20
8.85430084225236
 30
0.0
 70
0
  0
VERTEX
  5
1AC
  8
0
 10
5.796074479198354
 20
8.877618599516635
 30
0.0
 70
0
  0
VERTEX
  5
1AD
  8
0
 10
5.881330315524388
 20
8.89902794626696
 30
0.0
 70
0
  0
VERTEX
  5
1AE
  8
0
 10
5.967099707141564
 20
8.918594770385425
 30
0.0
 70
0
  0
VERTEX
  5
1AF
  8
0
 10
6.05313086821476
 20
8.936384959754117
 30
0.0
 70
0
  0
VERTEX
  5
1B0
  8
0
 10
6.139172012908854
 20
8.952464402255124
 30
0.0
 70
0
  0
VERTEX
  5
1B1
  8
0
 10
6.224971355388723
 20
8.966898985770534
 30
0.0
 70
0
  0
VERTEX
  5
1B2
  8
0
 10
6.3102771098192445
 20
8.979754598182438
 30
0.0
 70
0
  0
VERTEX
  5
1B3
  8
0
 10
6.394837490365298
 20
8.99109712737292
 30
0.0
 70
0
  0
VERTEX
  5
1B4
  8
0
 10
6.478400711191755
 20
9.000992461224069
 30
0.0
 70
0
  0
VERTEX
  5
1B5
  8
0
 10
6.560714986463504
 20
9.009506487617976
 30
0.0
 70
0
  0
VERTEX
  5
1B6
  8
0
 10
6.641528530345415
 20
9.016705094436727
 30
0.0
 70
0
  0
VERTEX
  5
1B7
  8
0
 10
6.720589557002368
 20
9.022654169562408
 30
0.0
 70
0
  0
VERTEX
  5
1B8
  8
0
 10
6.79764628059924
 20
9.02741960087711
 30
0.0
 70
0
  0
VERTEX
  5
1B9
  8
0
 10
6.872446915300911
 20
9.03106727626292
 30
0.0
 70
0
  0
VERTEX
  5
1BA
  8
0
 10
6.944739675272255
 20
9.033663083601926
 30
0.0
 70
0
  0
VERTEX
  5
1BB
  8
0
 10
7.014272774678152
 20
9.035272910776218
 30
0.0
 70
0
  0
VERTEX
  5
1BC
  8
0
 10
7.080794427683479
 20
9.035962645667881
 30
0.0
 70
0
  0
VERTEX
  5
1BD
  8
0
 10
7.0895176273270435
 20
8.980780358240676
 30
0.0
 70
0
  0
VERTEX
  5
1BE
  8
0
 10
7.074584860290768
 20
8.902116674746011
 30
0.0
 70
0
  0
VERTEX
  5
1BF
  8
0
 10
7.059652093254492
 20
8.823452991251344
 30
0.0
 70
0
  0
VERTEX
  5
1C0
  8
0
 10
7.044719326218217
 20
8.744789307756676
 30
0.0
 70
0
  0
VERTEX
  5
1C1
  8
0
 10
7.02978655918194
 20
8.666125624262007
 30
0.0
 70
0
  0
VERTEX
  5
1C2
  8
0
 10
7.014853792145664
 20
8.587461940767339
 30
0.0
 70
0
  0
VERTEX
  5
1C3
  8
0
 10
6.999921025109388
 20
8.50879825727267
 30
0.0
 70
0
  0
VERTEX
  5
1C4
  8
0
 10
6.984988258073113
 20
8.430134573778002
 30
0.0
 70
0
  0
VERTEX
  5
1C5
  8
0
 10
6.970055491036836
 20
8.351470890283334
 30
0.0
 70
0
  0
VERTEX
  5
1C6
  8
0
 10
6.95512272400056
 20
8.272807206788666
 30
0.0
 70
0
  0
VERTEX
  5
1C7
  8
0
 10
6.940189956964284
 20
8.194143523293999
 30
0.0
 70
0
  0
VERTEX
  5
1C8
  8
0
 10
6.9252571899280095
 20
8.115479839799335
 30
0.0
 70
0
  0
VERTEX
  5
1C9
  8
0
 10
6.910324422891733
 20
8.036816156304667
 30
0.0
 70
0
  0
VERTEX
  5
1CA
  8
0
 10
6.895391655855457
 20
7.9581524728099975
 30
0.0
 70
0
  0
VERTEX
  5
1CB
  8
0
 10
6.880458888819181
 20
7.87948878931533
 30
0.0
 70
0
  0
VERTEX
  5
1CC
  8
0
 10
6.8655261217829056
 20
7.800825105820661
 30
0.0
 70
0
  0
VERTEX
  5
1CD
  8
0
 10
6.850593354746629
 20
7.722161422325993
 30
0.0
 70
0
  0
VERTEX
  5
1CE
  8
0
 10
6.835660587710353
 20
7.643497738831325
 30
0.0
 70
0
  0
VERTEX
  5
1CF
  8
0
 10
6.820727820674077
 20
7.564834055336657
 30
0.0
 70
0
  0
VERTEX
  5
1D0
  8
0
 10
6.805795053637802
 20
7.486170371841988
 30
0.0
 70
0
  0
VERTEX
  5
1D1
  8
0
 10
6.790862286601525
 20
7.40750668834732
 30
0.0
 70
0
  0
VERTEX
  5
1D2
  8
0
 10
6.77592951956525
 20
7.328843004852656
 30
0.0
 70
0
  0
VERTEX
  5
1D3
  8
0
 10
6.760996752528974
 20
7.250179321357988
 30
0.0
 70
0
  0
VERTEX
  5
1D4
  8
0
 10
6.7460639854926985
 20
7.171515637863321
 30
0.0
 70
0
  0
VERTEX
  5
1D5
  8
0
 10
6.731131218456422
 20
7.092851954368651
 30
0.0
 70
0
  0
VERTEX
  5
1D6
  8
0
 10
6.716198451420146
 20
7.0141882708739836
 30
0.0
 70
0
  0
VERTEX
  5
1D7
  8
0
 10
6.70126568438387
 20
6.935524587379316
 30
0.0
 70
0
  0
VERTEX
  5
1D8
  8
0
 10
6.6863329173475945
 20
6.856860903884646
 30
0.0
 70
0
  0
VERTEX
  5
1D9
  8
0
 10
6.671400150311318
 20
6.778197220389979
 30
0.0
 70
0
  0
VERTEX
  5
1DA
  8
0
 10
6.656467383275042
 20
6.699533536895311
 30
0.0
 70
0
  0
VERTEX
  5
1DB
  8
0
 10
6.641534616238767
 20
6.620869853400647
 30
0.0
 70
0
  0
VERTEX
  5
1DC
  8
0
 10
6.626601849202491
 20
6.542206169905979
 30
0.0
 70
0
  0
VERTEX
  5
1DD
  8
0
 10
6.611669082166215
 20
6.463542486411312
 30
0.0
 70
0
  0
VERTEX
  5
1DE
  8
0
 10
6.596736315129939
 20
6.384878802916642
 30
0.0
 70
0
  0
VERTEX
  5
1DF
  8
0
 10
6.581803548093663
 20
6.306215119421974
 30
0.0
 70
0
  0
VERTEX
  5
1E0
  8
0
 10
6.566870781057387
 20
6.227551435927305
 30
0.0
 70
0
  0
VERTEX
  5
1E1
  8
0
 10
6.551938014021111
 20
6.148887752432637
 30
0.0
 70
0
  0
VERTEX
  5
1E2
  8
0
 10
6.537005246984835
 20
6.07022406893797
 30
0.0
 70
0
  0
VERTEX
  5
1E3
  8
0
 10
6.522072479948559
 20
5.991560385443302
 30
0.0
 70
0
  0
VERTEX
  5
1E4
  8
0
 10
6.507139712912283
 20
5.912896701948634
 30
0.0
 70
0
  0
VERTEX
  5
1E5
  8
0
 10
6.492206945876008
 20
5.83423301845397
 30
0.0
 70
0
  0
VERTEX
  5
1E6
  8
0
 10
6.477274178839732
 20
5.7555693349593025
 30
0.0
 70
0
  0
VERTEX
  5
1E7
  8
0
 10
6.462341411803456
 20
5.676905651464633
 30
0.0
 70
0
  0
VERTEX
  5
1E8
  8
0
 10
6.44740864476718
 20
5.598241967969965
 30
0.0
 70
0
  0
VERTEX
  5
1E9
  8
0
 10
6.432475877730904
 20
5.519578284475296
 30
0.0
 70
0
  0
VERTEX
  5
1EA
  8
0
 10
6.38125472992183
 20
5.482874787806097
 30
0.0
 70
0
  0
VERTEX
  5
1EB
  8
0
 10
6.313842277122898
 20
5.463043180919392
 30
0.0
 70
0
  0
VERTEX
  5
1EC
  8
0
 10
6.2456913477021745
 20
5.441946484796251
 30
0.0
 70
0
  0
VERTEX
  5
1ED
  8
0
 10
6.176842366777582
 20
5.419601554655333
 30
0.0
 70
0
  0
VERTEX
  5
1EE
  8
0
 10
6.107335759467044
 20
5.396025245715299
 30
0.0
 70
0
  0
VERTEX
  5
1EF
  8
0
 10
6.037211950888487
 20
5.3712344131948075
 30
0.0
 70
0
  0
VERTEX
  5
1F0
  8
0
 10
5.966511366159827
 20
5.345245912312516
 30
0.0
 70
0
  0
VERTEX
  5
1F1
  8
0
 10
5.895274430398989
 20
5.3180765982870835
 30
0.0
 70
0
  0
VERTEX
  5
1F2
  8
0
 10
5.823541568723897
 20
5.289743326337172
 30
0.0
 70
0
  0
VERTEX
  5
1F3
  8
0
 10
5.751353206252475
 20
5.26026295168144
 30
0.0
 70
0
  0
VERTEX
  5
1F4
  8
0
 10
5.6787497681026435
 20
5.229652329538547
 30
0.0
 70
0
  0
VERTEX
  5
1F5
  8
0
 10
5.605771679392328
 20
5.197928315127154
 30
0.0
 70
0
  0
VERTEX
  5
1F6
  8
0
 10
5.53245936523945
 20
5.165107763665915
 30
0.0
 70
0
  0
VERTEX
  5
1F7
  8
0
 10
5.4588532507619325
 20
5.131207530373496
 30
0.0
 70
0
  0
VERTEX
  5
1F8
  8
0
 10
5.384993761077698
 20
5.096244470468552
 30
0.0
 70
0
  0
VERTEX
  5
1F9
  8
0
 10
5.310921321304675
 20
5.060235439169746
 30
0.0
 70
0
  0
VERTEX
  5
1FA
  8
0
 10
5.236676356560778
 20
5.023197291695734
 30
0.0
 70
0
  0
VERTEX
  5
1FB
  8
0
 10
5.162299291963933
 20
4.985146883265175
 30
0.0
 70
0
  0
VERTEX
  5
1FC
  8
0
 10
5.087830552632063
 20
4.946101069096731
 30
0.0
 70
0
  0
VERTEX
  5
1FD
  8
0
 10
5.013310563683092
 20
4.906076704409061
 30
0.0
 70
0
  0
VERTEX
  5
1FE
  8
0
 10
4.938779750234943
 20
4.865090644420823
 30
0.0
 70
0
  0
VERTEX
  5
1FF
  8
0
 10
4.8642785374055375
 20
4.8231597443506775
 30
0.0
 70
0
  0
VERTEX
  5
200
  8
0
 10
4.789847350312799
 20
4.780300859417283
 30
0.0
 70
0
  0
VERTEX
  5
201
  8
0
 10
4.715526614074651
 20
4.736530844839301
 30
0.0
 70
0
  0
VERTEX
  5
202
  8
0
 10
4.641356753809017
 20
4.691866555835388
 30
0.0
 70
0
  0
VERTEX
  5
203
  8
0
 10
4.567378194633822
 20
4.646324847624207
 30
0.0
 70
0
  0
VERTEX
  5
204
  8
0
 10
4.493631361666983
 20
4.599922575424413
 30
0.0
 70
0
  0
VERTEX
  5
205
  8
0
 10
4.420156680026425
 20
4.5526765944546685
 30
0.0
 70
0
  0
VERTEX
  5
206
  8
0
 10
4.346994574830072
 20
4.504603759933632
 30
0.0
 70
0
  0
VERTEX
  5
207
  8
0
 10
4.274185471195848
 20
4.4557209270799625
 30
0.0
 70
0
  0
VERTEX
  5
208
  8
0
 10
4.201769794241674
 20
4.406044951112319
 30
0.0
 70
0
  0
VERTEX
  5
209
  8
0
 10
4.1297879690854735
 20
4.355592687249363
 30
0.0
 70
0
  0
VERTEX
  5
20A
  8
0
 10
4.05828042084517
 20
4.3043809907097526
 30
0.0
 70
0
  0
VERTEX
  5
20B
  8
0
 10
3.9872875746386867
 20
4.2524267167121454
 30
0.0
 70
0
  0
VERTEX
  5
20C
  8
0
 10
3.916849855583946
 20
4.199746720475204
 30
0.0
 70
0
  0
VERTEX
  5
20D
  8
0
 10
3.847007688798874
 20
4.146357857217589
 30
0.0
 70
0
  0
VERTEX
  5
20E
  8
0
 10
3.777801499401387
 20
4.092276982157955
 30
0.0
 70
0
  0
VERTEX
  5
20F
  8
0
 10
3.7092717125094112
 20
4.037520950514963
 30
0.0
 70
0
  0
VERTEX
  5
210
  8
0
 10
3.64145875324087
 20
3.982106617507272
 30
0.0
 70
0
  0
VERTEX
  5
211
  8
0
 10
3.5744030467136865
 20
3.926050838353543
 30
0.0
 70
0
  0
VERTEX
  5
212
  8
0
 10
3.5081450180457834
 20
3.869370468272436
 30
0.0
 70
0
  0
VERTEX
  5
213
  8
0
 10
3.442725092355083
 20
3.8120823624826077
 30
0.0
 70
0
  0
VERTEX
  5
214
  8
0
 10
3.378183694759509
 20
3.754203376202719
 30
0.0
 70
0
  0
VERTEX
  5
215
  8
0
 10
3.314561250376984
 20
3.695750364651431
 30
0.0
 70
0
  0
VERTEX
  5
216
  8
0
 10
3.2518981843254346
 20
3.6367401830474027
 30
0.0
 70
0
  0
VERTEX
  5
217
  8
0
 10
3.1902349217227766
 20
3.577189686609289
 30
0.0
 70
0
  0
VERTEX
  5
218
  8
0
 10
3.1296118876869365
 20
3.517115730555753
 30
0.0
 70
0
  0
VERTEX
  5
219
  8
0
 10
3.0700695073358375
 20
3.456535170105454
 30
0.0
 70
0
  0
VERTEX
  5
21A
  8
0
 10
3.011648205787403
 20
3.395464860477052
 30
0.0
 70
0
  0
VERTEX
  5
21B
  8
0
 10
2.9543884081595553
 20
3.3339216568892027
 30
0.0
 70
0
  0
VERTEX
  5
21C
  8
0
 10
2.8983305395702166
 20
3.271922414560569
 30
0.0
 70
0
  0
VERTEX
  5
21D
  8
0
 10
2.843515025137311
 20
3.2094839887098114
 30
0.0
 70
0
  0
VERTEX
  5
21E
  8
0
 10
2.789982289978761
 20
3.1466232345555856
 30
0.0
 70
0
  0
VERTEX
  5
21F
  8
0
 10
2.737772759212489
 20
3.083357007316552
 30
0.0
 70
0
  0
VERTEX
  5
220
  8
0
 10
2.686926857956422
 20
3.0197021622113756
 30
0.0
 70
0
  0
VERTEX
  5
221
  8
0
 10
2.6374850113284767
 20
2.955675554458706
 30
0.0
 70
0
  0
VERTEX
  5
222
  8
0
 10
2.5894876444465784
 20
2.8912940392772093
 30
0.0
 70
0
  0
VERTEX
  5
223
  8
0
 10
2.542975182428651
 20
2.826574471885543
 30
0.0
 70
0
  0
VERTEX
  5
224
  8
0
 10
2.4979880503926166
 20
2.761533707502366
 30
0.0
 70
0
  0
VERTEX
  5
225
  8
0
 10
2.454566673456399
 20
2.6961886013463374
 30
0.0
 70
0
  0
VERTEX
  5
226
  8
0
 10
2.4127514767379203
 20
2.6305560086361197
 30
0.0
 70
0
  0
VERTEX
  5
227
  8
0
 10
2.3725828853551034
 20
2.5646527845903666
 30
0.0
 70
0
  0
VERTEX
  5
228
  8
0
 10
2.3341013244258724
 20
2.4984957844277442
 30
0.0
 70
0
  0
VERTEX
  5
229
  8
0
 10
2.2973472190681488
 20
2.432101863366908
 30
0.0
 70
0
  0
VERTEX
  5
22A
  8
0
 10
2.2623609943998577
 20
2.3654878766265224
 30
0.0
 70
0
  0
VERTEX
  5
22B
  8
0
 10
2.229183075538919
 20
2.2986706794252374
 30
0.0
 70
0
  0
VERTEX
  5
22C
  8
0
 10
2.197853887603258
 20
2.2316671269817174
 30
0.0
 70
0
  0
VERTEX
  5
22D
  8
0
 10
2.1684138557107966
 20
2.1644940745146233
 30
0.0
 70
0
  0
VERTEX
  5
22E
  8
0
 10
2.1409034049794577
 20
2.097168377242614
 30
0.0
 70
0
  0
VERTEX
  5
22F
  8
0
 10
2.1153629605271647
 20
2.029706890384345
 30
0.0
 70
0
  0
VERTEX
  5
230
  8
0
 10
2.09183294747184
 20
1.9621264691584805
 30
0.0
 70
0
  0
VERTEX
  5
231
  8
0
 10
2.0703537909314074
 20
1.894443968783678
 30
0.0
 70
0
  0
VERTEX
  5
232
  8
0
 10
2.050965916023789
 20
1.8266762444785964
 30
0.0
 70
0
  0
VERTEX
  5
233
  8
0
 10
2.033709747866908
 20
1.7588401514618965
 30
0.0
 70
0
  0
VERTEX
  5
234
  8
0
 10
2.0186257115786894
 20
1.690952544952241
 30
0.0
 70
0
  0
VERTEX
  5
235
  8
0
 10
2.0057542322770523
 20
1.6230302801682814
 30
0.0
 70
0
  0
VERTEX
  5
236
  8
0
 10
1.9951357350799217
 20
1.5550902123286807
 30
0.0
 70
0
  0
VERTEX
  5
237
  8
0
 10
1.986810645105221
 20
1.487149196652096
 30
0.0
 70
0
  0
VERTEX
  5
238
  8
0
 10
1.9808193874708726
 20
1.4192240883571916
 30
0.0
 70
0
  0
VERTEX
  5
239
  8
0
 10
1.9772023872947981
 20
1.3513317426626248
 30
0.0
 70
0
  0
VERTEX
  5
23A
  8
0
 10
1.9760001120505657
 20
1.2833608165341541
 30
0.0
 70
0
  0
VERTEX
  5
23B
  8
0
 10
1.9780010455327561
 20
1.199700074928142
 30
0.0
 70
0
  0
VERTEX
  5
23C
  8
0
 10
1.9839356262673522
 20
1.1183868473554348
 30
0.0
 70
0
  0
VERTEX
  5
23D
  8
0
 10
1.9937907453071744
 20
1.0394735696047501
 30
0.0
 70
0
  0
VERTEX
  5
23E
  8
0
 10
2.0075532937050418
 20
0.963012677464814
 30
0.0
 70
0
  0
VERTEX
  5
23F
  8
0
 10
2.025210162513776
 20
0.8890566067243366
 30
0.0
 70
0
  0
VERTEX
  5
240
  8
0
 10
2.0467482427861965
 20
0.8176577931720423
 30
0.0
 70
0
  0
VERTEX
  5
241
  8
0
 10
2.0721544255751234
 20
0.7488686725966485
 30
0.0
 70
0
  0
VERTEX
  5
242
  8
0
 10
2.101415601933377
 20
0.6827416807868776
 30
0.0
 70
0
  0
VERTEX
  5
243
  8
0
 10
2.134518662913777
 20
0.619329253531447
 30
0.0
 70
0
  0
VERTEX
  5
244
  8
0
 10
2.171450499569144
 20
0.5586838266190775
 30
0.0
 70
0
  0
VERTEX
  5
245
  8
0
 10
2.212198002952298
 20
0.5008578358384881
 30
0.0
 70
0
  0
VERTEX
  5
246
  8
0
 10
2.2567480641160587
 20
0.44590371697839615
 30
0.0
 70
0
  0
VERTEX
  5
247
  8
0
 10
2.305087574113247
 20
0.393873905827526
 30
0.0
 70
0
  0
VERTEX
  5
248
  8
0
 10
2.3572034239966793
 20
0.34482083817459497
 30
0.0
 70
0
  0
VERTEX
  5
249
  8
0
 10
2.413082504819182
 20
0.2987969498083203
 30
0.0
 70
0
  0
VERTEX
  5
24A
  8
0
 10
2.472711707633572
 20
0.2558546765174228
 30
0.0
 70
0
  0
VERTEX
  5
24B
  8
0
 10
2.53607792349267
 20
0.21604645409062329
 30
0.0
 70
0
  0
VERTEX
  5
24C
  8
0
 10
2.6031680434492954
 20
0.1794247183166391
 30
0.0
 70
0
  0
VERTEX
  5
24D
  8
0
 10
2.673968958556269
 20
0.14604190498419278
 30
0.0
 70
0
  0
VERTEX
  5
24E
  8
0
 10
2.7484675598664103
 20
0.11595044988199987
 30
0.0
 70
0
  0
VERTEX
  5
24F
  8
0
 10
2.82665073843254
 20
0.08920278879878296
 30
0.0
 70
0
  0
VERTEX
  5
250
  8
0
 10
2.908505385307478
 20
0.0658513575232611
 30
0.0
 70
0
  0
VERTEX
  5
251
  8
0
 10
2.994018391544044
 20
0.04594859184415334
 30
0.0
 70
0
  0
VERTEX
  5
252
  8
0
 10
3.083176648195054
 20
0.029546927550178737
 30
0.0
 70
0
  0
VERTEX
  5
253
  8
0
 10
3.175967046313337
 20
0.016698800430058114
 30
0.0
 70
0
  0
VERTEX
  5
254
  8
0
 10
3.272376476951709
 20
0.007456646272508749
 30
0.0
 70
0
  0
VERTEX
  5
255
  8
0
 10
3.3723918311629903
 20
0.0018729008662514701
 30
0.0
 70
0
  0
VERTEX
  5
256
  8
0
 10
3.476
 20
0.0
 30
0.0
 70
0
  0
SEQEND
  5
90
  8
0
  0
POLYLINE
  5
257
  8
0
 66
1
 10
0.0
 20
0.0
 30
0.0
 70
1
  0
VERTEX
  5
259
  8
0
 10
6.344
 20
5.1
 30
0.0
 70
0
  0
VERTEX
  5
25A
  8
0
 10
6.329222552915928
 20
5.020972782985176
 30
0.0
 70
0
  0
VERTEX
  5
25B
  8
0
 10
6.3144451058318545
 20
4.941945565970352
 30
0.0
 70
0
  0
VERTEX
  5
25C
  8
0
 10
6.299667658747782
 20
4.86291834895553
 30
0.0
 70
0
  0
VERTEX
  5
25D
  8
0
 10
6.2848902116637095
 20
4.783891131940706
 30
0.0
 70
0
  0
VERTEX
  5
25E
  8
0
 10
6.270112764579637
 20
4.704863914925882
 30
0.0
 70
0
  0
VERTEX
  5
25F
  8
0
 10
6.255335317495564
 20
4.625836697911058
 30
0.0
 70
0
  0
VERTEX
  5
260
  8
0
 10
6.240557870411491
 20
4.5468094808962345
 30
0.0
 70
0
  0
VERTEX
  5
261
  8
0
 10
6.225780423327419
 20
4.467782263881412
 30
0.0
 70
0
  0
VERTEX
  5
262
  8
0
 10
6.211002976243346
 20
4.388755046866589
 30
0.0
 70
0
  0
VERTEX
  5
263
  8
0
 10
6.196225529159273
 20
4.309727829851765
 30
0.0
 70
0
  0
VERTEX
  5
264
  8
0
 10
6.1814480820752005
 20
4.230700612836941
 30
0.0
 70
0
  0
VERTEX
  5
265
  8
0
 10
6.166670634991128
 20
4.151673395822119
 30
0.0
 70
0
  0
VERTEX
  5
266
  8
0
 10
6.151893187907055
 20
4.072646178807295
 30
0.0
 70
0
  0
VERTEX
  5
267
  8
0
 10
6.137115740822982
 20
3.993618961792471
 30
0.0
 70
0
  0
VERTEX
  5
268
  8
0
 10
6.12233829373891
 20
3.9145917447776473
 30
0.0
 70
0
  0
VERTEX
  5
269
  8
0
 10
6.107560846654837
 20
3.8355645277628234
 30
0.0
 70
0
  0
VERTEX
  5
26A
  8
0
 10
6.092783399570764
 20
3.7565373107480013
 30
0.0
 70
0
  0
VERTEX
  5
26B
  8
0
 10
6.078005952486691
 20
3.6775100937331775
 30
0.0
 70
0
  0
VERTEX
  5
26C
  8
0
 10
6.064344112347326
 20
3.601172157649774
 30
0.0
 70
0
  0
VERTEX
  5
26D
  8
0
 10
6.052354858543022
 20
3.5294954333501387
 30
0.0
 70
0
  0
VERTEX
  5
26E
  8
0
 10
6.039346045750048
 20
3.456426893817442
 30
0.0
 70
0
  0
VERTEX
  5
26F
  8
0
 10
6.02530300862151
 20
3.3820791479653387
 30
0.0
 70
0
  0
VERTEX
  5
270
  8
0
 10
6.010211081810512
 20
3.3065648047074845
 30
0.0
 70
0
  0
VERTEX
  5
271
  8
0
 10
5.99405559997016
 20
3.2299964729575343
 30
0.0
 70
0
  0
VERTEX
  5
272
  8
0
 10
5.9768218977535605
 20
3.152486761629145
 30
0.0
 70
0
  0
VERTEX
  5
273
  8
0
 10
5.958495309813817
 20
3.0741482796359705
 30
0.0
 70
0
  0
VERTEX
  5
274
  8
0
 10
5.939061170804036
 20
2.995093635891667
 30
0.0
 70
0
  0
VERTEX
  5
275
  8
0
 10
5.918504815377323
 20
2.9154354393098902
 30
0.0
 70
0
  0
VERTEX
  5
276
  8
0
 10
5.8968115781867825
 20
2.8352862988042933
 30
0.0
 70
0
  0
VERTEX
  5
277
  8
0
 10
5.87396679388552
 20
2.754758823288535
 30
0.0
 70
0
  0
VERTEX
  5
278
  8
0
 10
5.849955797126642
 20
2.6739656216762686
 30
0.0
 70
0
  0
VERTEX
  5
279
  8
0
 10
5.824763922563252
 20
2.5930193028811495
 30
0.0
 70
0
  0
VERTEX
  5
27A
  8
0
 10
5.798376504848457
 20
2.5120324758168344
 30
0.0
 70
0
  0
VERTEX
  5
27B
  8
0
 10
5.770778878635361
 20
2.431117749396977
 30
0.0
 70
0
  0
VERTEX
  5
27C
  8
0
 10
5.74195637857707
 20
2.350387732535234
 30
0.0
 70
0
  0
VERTEX
  5
27D
  8
0
 10
5.711894339326689
 20
2.2699550341452586
 30
0.0
 70
0
  0
VERTEX
  5
27E
  8
0
 10
5.680578095537325
 20
2.18993226314071
 30
0.0
 70
0
  0
VERTEX
  5
27F
  8
0
 10
5.647992981862081
 20
2.110432028435241
 30
0.0
 70
0
  0
VERTEX
  5
280
  8
0
 10
5.614124332954064
 20
2.0315669389425075
 30
0.0
 70
0
  0
VERTEX
  5
281
  8
0
 10
5.578957483466378
 20
1.9534496035761642
 30
0.0
 70
0
  0
VERTEX
  5
282
  8
0
 10
5.542477768052129
 20
1.8761926312498698
 30
0.0
 70
0
  0
VERTEX
  5
283
  8
0
 10
5.504670521364423
 20
1.7999086308772743
 30
0.0
 70
0
  0
VERTEX
  5
284
  8
0
 10
5.465521078056364
 20
1.7247102113720363
 30
0.0
 70
0
  0
VERTEX
  5
285
  8
0
 10
5.425014772781058
 20
1.650709981647811
 30
0.0
 70
0
  0
VERTEX
  5
286
  8
0
 10
5.383136940191611
 20
1.5780205506182536
 30
0.0
 70
0
  0
VERTEX
  5
287
  8
0
 10
5.339872914941128
 20
1.506754527197021
 30
0.0
 70
0
  0
VERTEX
  5
288
  8
0
 10
5.295208031682713
 20
1.4370245202977667
 30
0.0
 70
0
  0
VERTEX
  5
289
  8
0
 10
5.249127625069473
 20
1.3689431388341458
 30
0.0
 70
0
  0
VERTEX
  5
28A
  8
0
 10
5.201617029754513
 20
1.3026229917198133
 30
0.0
 70
0
  0
VERTEX
  5
28B
  8
0
 10
5.152661580390938
 20
1.2381766878684264
 30
0.0
 70
0
  0
VERTEX
  5
28C
  8
0
 10
5.102246611631854
 20
1.17571683619364
 30
0.0
 70
0
  0
VERTEX
  5
28D
  8
0
 10
5.050357458130365
 20
1.1153560456091096
 30
0.0
 70
0
  0
VERTEX
  5
28E
  8
0
 10
4.996979454539577
 20
1.0572069250284901
 30
0.0
 70
0
  0
VERTEX
  5
28F
  8
0
 10
4.942097935512596
 20
1.0013820833654368
 30
0.0
 70
0
  0
VERTEX
  5
290
  8
0
 10
4.8856982357025265
 20
0.9479941295336047
 30
0.0
 70
0
  0
VERTEX
  5
291
  8
0
 10
4.827765689762474
 20
0.897155672446651
 30
0.0
 70
0
  0
VERTEX
  5
292
  8
0
 10
4.7682856323455445
 20
0.8489793210182306
 30
0.0
 70
0
  0
VERTEX
  5
293
  8
0
 10
4.7072433981048425
 20
0.803577684161997
 30
0.0
 70
0
  0
VERTEX
  5
294
  8
0
 10
4.644624321693474
 20
0.7610633707916072
 30
0.0
 70
0
  0
VERTEX
  5
295
  8
0
 10
4.580413737764544
 20
0.7215489898207164
 30
0.0
 70
0
  0
VERTEX
  5
296
  8
0
 10
4.514596980971158
 20
0.6851471501629796
 30
0.0
 70
0
  0
VERTEX
  5
297
  8
0
 10
4.447159385966421
 20
0.651970460732052
 30
0.0
 70
0
  0
VERTEX
  5
298
  8
0
 10
4.3780862874034385
 20
0.6221315304415906
 30
0.0
 70
0
  0
VERTEX
  5
299
  8
0
 10
4.307363019935316
 20
0.5957429682052489
 30
0.0
 70
0
  0
VERTEX
  5
29A
  8
0
 10
4.234974918215159
 20
0.5729173829366836
 30
0.0
 70
0
  0
VERTEX
  5
29B
  8
0
 10
4.160907316896073
 20
0.5537673835495482
 30
0.0
 70
0
  0
VERTEX
  5
29C
  8
0
 10
4.085145550631163
 20
0.5384055789574997
 30
0.0
 70
0
  0
VERTEX
  5
29D
  8
0
 10
4.007674954073534
 20
0.526944578074195
 30
0.0
 70
0
  0
VERTEX
  5
29E
  8
0
 10
3.928480861876291
 20
0.5194969898132857
 30
0.0
 70
0
  0
VERTEX
  5
29F
  8
0
 10
3.8475486086925406
 20
0.5161754230884306
 30
0.0
 70
0
  0
VERTEX
  5
2A0
  8
0
 10
3.7459643209717877
 20
0.518067814381963
 30
0.0
 70
0
  0
VERTEX
  5
2A1
  8
0
 10
3.6439266262942294
 20
0.5277258215267953
 30
0.0
 70
0
  0
VERTEX
  5
2A2
  8
0
 10
3.5502661646300546
 20
0.5448867444933079
 30
0.0
 70
0
  0
VERTEX
  5
2A3
  8
0
 10
3.464685635754535
 20
0.5691224709578968
 30
0.0
 70
0
  0
VERTEX
  5
2A4
  8
0
 10
3.386887739442943
 20
0.6000048885969491
 30
0.0
 70
0
  0
VERTEX
  5
2A5
  8
0
 10
3.3165751754705504
 20
0.6371058850868607
 30
0.0
 70
0
  0
VERTEX
  5
2A6
  8
0
 10
3.253450643612629
 20
0.6799973481040222
 30
0.0
 70
0
  0
VERTEX
  5
2A7
  8
0
 10
3.197216843644452
 20
0.7282511653248225
 30
0.0
 70
0
  0
VERTEX
  5
2A8
  8
0
 10
3.14757647534129
 20
0.7814392244256592
 30
0.0
 70
0
  0
VERTEX
  5
2A9
  8
0
 10
3.1042322384784162
 20
0.8391334130829176
 30
0.0
 70
0
  0
VERTEX
  5
2AA
  8
0
 10
3.066886832831101
 20
0.9009056189729936
 30
0.0
 70
0
  0
VERTEX
  5
2AB
  8
0
 10
3.0352429581746194
 20
0.9663277297722779
 30
0.0
 70
0
  0
VERTEX
  5
2AC
  8
0
 10
3.0090033142842407
 20
1.0349716331571628
 30
0.0
 70
0
  0
VERTEX
  5
2AD
  8
0
 10
2.9878706009352385
 20
1.106409216804039
 30
0.0
 70
0
  0
VERTEX
  5
2AE
  8
0
 10
2.971547517902884
 20
1.1802123683893004
 30
0.0
 70
0
  0
VERTEX
  5
2AF
  8
0
 10
2.95973676496245
 20
1.2559529755893344
 30
0.0
 70
0
  0
VERTEX
  5
2B0
  8
0
 10
2.952141041889208
 20
1.3332029260805385
 30
0.0
 70
0
  0
VERTEX
  5
2B1
  8
0
 10
2.9484630484584304
 20
1.4115341075392998
 30
0.0
 70
0
  0
VERTEX
  5
2B2
  8
0
 10
2.948262220510043
 20
1.4831011571030626
 30
0.0
 70
0
  0
VERTEX
  5
2B3
  8
0
 10
2.950434186153035
 20
1.5472515217255491
 30
0.0
 70
0
  0
VERTEX
  5
2B4
  8
0
 10
2.9547792106790842
 20
1.611760599022162
 30
0.0
 70
0
  0
VERTEX
  5
2B5
  8
0
 10
2.961268324251558
 20
1.676598650045559
 30
0.0
 70
0
  0
VERTEX
  5
2B6
  8
0
 10
2.9698725570338254
 20
1.741735935848407
 30
0.0
 70
0
  0
VERTEX
  5
2B7
  8
0
 10
2.9805629391892543
 20
1.8071427174833623
 30
0.0
 70
0
  0
VERTEX
  5
2B8
  8
0
 10
2.9933105008812144
 20
1.8727892560030899
 30
0.0
 70
0
  0
VERTEX
  5
2B9
  8
0
 10
3.0080862722730726
 20
1.9386458124602477
 30
0.0
 70
0
  0
VERTEX
  5
2BA
  8
0
 10
3.024861283528199
 20
2.0046826479075026
 30
0.0
 70
0
  0
VERTEX
  5
2BB
  8
0
 10
3.0436065648099615
 20
2.070870023397511
 30
0.0
 70
0
  0
VERTEX
  5
2BC
  8
0
 10
3.0642931462817287
 20
2.137178199982939
 30
0.0
 70
0
  0
VERTEX
  5
2BD
  8
0
 10
3.0868920581068693
 20
2.2035774387164437
 30
0.0
 70
0
  0
VERTEX
  5
2BE
  8
0
 10
3.1113743304487516
 20
2.2700380006506897
 30
0.0
 70
0
  0
VERTEX
  5
2BF
  8
0
 10
3.1377109934707437
 20
2.336530146838337
 30
0.0
 70
0
  0
VERTEX
  5
2C0
  8
0
 10
3.165873077336215
 20
2.4030241383320465
 30
0.0
 70
0
  0
VERTEX
  5
2C1
  8
0
 10
3.195831612208534
 20
2.469490236184482
 30
0.0
 70
0
  0
VERTEX
  5
2C2
  8
0
 10
3.227557628251069
 20
2.5358987014483034
 30
0.0
 70
0
  0
VERTEX
  5
2C3
  8
0
 10
3.2610221556271886
 20
2.6022197951761736
 30
0.0
 70
0
  0
VERTEX
  5
2C4
  8
0
 10
3.296196224500261
 20
2.6684237784207507
 30
0.0
 70
0
  0
VERTEX
  5
2C5
  8
0
 10
3.333050865033656
 20
2.7344809122347016
 30
0.0
 70
0
  0
VERTEX
  5
2C6
  8
0
 10
3.37155710739074
 20
2.800361457670684
 30
0.0
 70
0
  0
VERTEX
  5
2C7
  8
0
 10
3.4116859817348835
 20
2.86603567578136
 30
0.0
 70
0
  0
VERTEX
  5
2C8
  8
0
 10
3.4534085182294536
 20
2.9314738276193903
 30
0.0
 70
0
  0
VERTEX
  5
2C9
  8
0
 10
3.496695747037821
 20
2.996646174237439
 30
0.0
 70
0
  0
VERTEX
  5
2CA
  8
0
 10
3.541518698323351
 20
3.061522976688165
 30
0.0
 70
0
  0
VERTEX
  5
2CB
  8
0
 10
3.5878484022494157
 20
3.126074496024234
 30
0.0
 70
0
  0
VERTEX
  5
2CC
  8
0
 10
3.6356558889793806
 20
3.190270993298302
 30
0.0
 70
0
  0
VERTEX
  5
2CD
  8
0
 10
3.684912188676617
 20
3.2540827295630343
 30
0.0
 70
0
  0
VERTEX
  5
2CE
  8
0
 10
3.7355883315044904
 20
3.3174799658710885
 30
0.0
 70
0
  0
VERTEX
  5
2CF
  8
0
 10
3.7876553476263726
 20
3.3804329632751315
 30
0.0
 70
0
  0
VERTEX
  5
2D0
  8
0
 10
3.8410842672056296
 20
3.4429119828278214
 30
0.0
 70
0
  0
VERTEX
  5
2D1
  8
0
 10
3.895846120405631
 20
3.5048872855818214
 30
0.0
 70
0
  0
VERTEX
  5
2D2
  8
0
 10
3.9519119373897453
 20
3.5663291325897895
 30
0.0
 70
0
  0
VERTEX
  5
2D3
  8
0
 10
4.009252748321341
 20
3.6272077849043924
 30
0.0
 70
0
  0
VERTEX
  5
2D4
  8
0
 10
4.067839583363787
 20
3.6874935035782865
 30
0.0
 70
0
  0
VERTEX
  5
2D5
  8
0
 10
4.127643472680451
 20
3.7471565496641386
 30
0.0
 70
0
  0
VERTEX
  5
2D6
  8
0
 10
4.188635446434702
 20
3.8061671842146065
 30
0.0
 70
0
  0
VERTEX
  5
2D7
  8
0
 10
4.250786534789909
 20
3.864495668282352
 30
0.0
 70
0
  0
VERTEX
  5
2D8
  8
0
 10
4.314067767909441
 20
3.922112262920038
 30
0.0
 70
0
  0
VERTEX
  5
2D9
  8
0
 10
4.378450175956664
 20
3.9789872291803245
 30
0.0
 70
0
  0
VERTEX
  5
2DA
  8
0
 10
4.443904789094949
 20
4.035090828115875
 30
0.0
 70
0
  0
VERTEX
  5
2DB
  8
0
 10
4.510402637487664
 20
4.090393320779349
 30
0.0
 70
0
  0
VERTEX
  5
2DC
  8
0
 10
4.577914751298177
 20
4.144864968223409
 30
0.0
 70
0
  0
VERTEX
  5
2DD
  8
0
 10
4.646412160689857
 20
4.198476031500716
 30
0.0
 70
0
  0
VERTEX
  5
2DE
  8
0
 10
4.715865895826073
 20
4.251196771663933
 30
0.0
 70
0
  0
VERTEX
  5
2DF
  8
0
 10
4.786246986870191
 20
4.302997449765719
 30
0.0
 70
0
  0
VERTEX
  5
2E0
  8
0
 10
4.857526463985585
 20
4.35384832685874
 30
0.0
 70
0
  0
VERTEX
  5
2E1
  8
0
 10
4.929675357335617
 20
4.40371966399565
 30
0.0
 70
0
  0
VERTEX
  5
2E2
  8
0
 10
5.002664697083661
 20
4.4525817222291195
 30
0.0
 70
0
  0
VERTEX
  5
2E3
  8
0
 10
5.076465513393082
 20
4.500404762611803
 30
0.0
 70
0
  0
VERTEX
  5
2E4
  8
0
 10
5.15104883642725
 20
4.547159046196365
 30
0.0
 70
0
  0
VERTEX
  5
2E5
  8
0
 10
5.226385696349533
 20
4.592814834035467
 30
0.0
 70
0
  0
VERTEX
  5
2E6
  8
0
 10
5.302447123323301
 20
4.63734238718177
 30
0.0
 70
0
  0
VERTEX
  5
2E7
  8
0
 10
5.3792041475119206
 20
4.6807119666879355
 30
0.0
 70
0
  0
VERTEX
  5
2E8
  8
0
 10
5.4566277990787615
 20
4.722893833606625
 30
0.0
 70
0
  0
VERTEX
  5
2E9
  8
0
 10
5.534689108187191
 20
4.7638582489905
 30
0.0
 70
0
  0
VERTEX
  5
2EA
  8
0
 10
5.61335910500058
 20
4.803575473892224
 30
0.0
 70
0
  0
VERTEX
  5
2EB
  8
0
 10
5.692608819682294
 20
4.842015769364455
 30
0.0
 70
0
  0
VERTEX
  5
2EC
  8
0
 10
5.7724092823957065
 20
4.879149396459857
 30
0.0
 70
0
  0
VERTEX
  5
2ED
  8
0
 10
5.852731523304179
 20
4.91494661623109
 30
0.0
 70
0
  0
VERTEX
  5
2EE
  8
0
 10
5.933546572571085
 20
4.949377689730817
 30
0.0
 70
0
  0
VERTEX
  5
2EF
  8
0
 10
6.014825460359793
 20
4.982412878011699
 30
0.0
 70
0
  0
VERTEX
  5
2F0
  8
0
 10
6.096539216833671
 20
5.014022442126397
 30
0.0
 70
0
  0
VERTEX
  5
2F1
  8
0
 10
6.178658872156085
 20
5.044176643127571
 30
0.0
 70
0
  0
VERTEX
  5
2F2
  8
0
 10
6.261155456490406
 20
5.072845742067887
 30
0.0
 70
0
  0
VERTEX
  5
2F3
  8
0
 10
6.344000000000001
 20
5.100000000000003
 30
0.0
 70
0
  0
SEQEND
  5
258
  8
0
  0
POLYLINE
  5
2F4
  8
0
 66
1
 10
0.0
 20
0.0
 30
0.0
 70
1
  0
VERTEX
  5
2F6
  8
0
 10
10.808007
 20
2.1240000000000006
 30
0.0
 70
0
  0
VERTEX
  5
2F7
  8
0
 10
10.804321698681724
 20
2.206937802846623
 30
0.0
 70
0
  0
VERTEX
  5
2F8
  8
0
 10
10.793342569223695
 20
2.287929675548236
 30
0.0
 70
0
  0
VERTEX
  5
2F9
  8
0
 10
10.775184773371107
 20
2.3663767770298154
 30
0.0
 70
0
  0
VERTEX
  5
2FA
  8
0
 10
10.74996347286916
 20
2.441680266216345
 30
0.0
 70
0
  0
VERTEX
  5
2FB
  8
0
 10
10.717793829463046
 20
2.5132413020328013
 30
0.0
 70
0
  0
VERTEX
  5
2FC
  8
0
 10
10.678791004897963
 20
2.5804610434041653
 30
0.0
 70
0
  0
VERTEX
  5
2FD
  8
0
 10
10.633070160919107
 20
2.6427406492554173
 30
0.0
 70
0
  0
VERTEX
  5
2FE
  8
0
 10
10.580746459271676
 20
2.699481278511536
 30
0.0
 70
0
  0
VERTEX
  5
2FF
  8
0
 10
10.521935061700864
 20
2.750084090097502
 30
0.0
 70
0
  0
VERTEX
  5
300
  8
0
 10
10.456751129951869
 20
2.793950242938294
 30
0.0
 70
0
  0
VERTEX
  5
301
  8
0
 10
10.385309825769884
 20
2.8304808959588907
 30
0.0
 70
0
  0
VERTEX
  5
302
  8
0
 10
10.307726310900108
 20
2.8590772080842743
 30
0.0
 70
0
  0
VERTEX
  5
303
  8
0
 10
10.224115747087737
 20
2.8791403382394236
 30
0.0
 70
0
  0
VERTEX
  5
304
  8
0
 10
10.134593296077966
 20
2.890071445349319
 30
0.0
 70
0
  0
VERTEX
  5
305
  8
0
 10
10.041261505599897
 20
2.891280429049317
 30
0.0
 70
0
  0
VERTEX
  5
306
  8
0
 10
9.952871889765312
 20
2.8826327451361706
 30
0.0
 70
0
  0
VERTEX
  5
307
  8
0
 10
9.869674509679434
 20
2.864659752107464
 30
0.0
 70
0
  0
VERTEX
  5
308
  8
0
 10
9.791888345072316
 20
2.8379453953693243
 30
0.0
 70
0
  0
VERTEX
  5
309
  8
0
 10
9.719732375674015
 20
2.803073620327879
 30
0.0
 70
0
  0
VERTEX
  5
30A
  8
0
 10
9.65342558121459
 20
2.760628372389254
 30
0.0
 70
0
  0
VERTEX
  5
30B
  8
0
 10
9.593186941424095
 20
2.7111935969595784
 30
0.0
 70
0
  0
VERTEX
  5
30C
  8
0
 10
9.539235436032588
 20
2.6553532394449757
 30
0.0
 70
0
  0
VERTEX
  5
30D
  8
0
 10
9.491790044770122
 20
2.593691245251577
 30
0.0
 70
0
  0
VERTEX
  5
30E
  8
0
 10
9.451069747366757
 20
2.5267915597855044
 30
0.0
 70
0
  0
VERTEX
  5
30F
  8
0
 10
9.417293523552548
 20
2.455238128452889
 30
0.0
 70
0
  0
VERTEX
  5
310
  8
0
 10
9.390680353057553
 20
2.379614896659856
 30
0.0
 70
0
  0
VERTEX
  5
311
  8
0
 10
9.371449215611825
 20
2.300505809812531
 30
0.0
 70
0
  0
VERTEX
  5
312
  8
0
 10
9.359819090945425
 20
2.2184948133170437
 30
0.0
 70
0
  0
VERTEX
  5
313
  8
0
 10
9.356008722439213
 20
2.13411570626603
 30
0.0
 70
0
  0
VERTEX
  5
314
  8
0
 10
9.359675808318919
 20
2.0482816246327147
 30
0.0
 70
0
  0
VERTEX
  5
315
  8
0
 10
9.370410572890965
 20
1.9662018124083147
 30
0.0
 70
0
  0
VERTEX
  5
316
  8
0
 10
9.38826587897829
 20
1.8882991739384352
 30
0.0
 70
0
  0
VERTEX
  5
317
  8
0
 10
9.413294589403831
 20
1.814996613568674
 30
0.0
 70
0
  0
VERTEX
  5
318
  8
0
 10
9.445549566990527
 20
1.7467170356446324
 30
0.0
 70
0
  0
VERTEX
  5
319
  8
0
 10
9.485083674561313
 20
1.6838833445119104
 30
0.0
 70
0
  0
VERTEX
  5
31A
  8
0
 10
9.531949774939127
 20
1.626918444516111
 30
0.0
 70
0
  0
VERTEX
  5
31B
  8
0
 10
9.586200730946908
 20
1.5762452400028337
 30
0.0
 70
0
  0
VERTEX
  5
31C
  8
0
 10
9.647889405407591
 20
1.5322866353176785
 30
0.0
 70
0
  0
VERTEX
  5
31D
  8
0
 10
9.717068661144115
 20
1.4954655348062467
 30
0.0
 70
0
  0
VERTEX
  5
31E
  8
0
 10
9.793791360979418
 20
1.4662048428141379
 30
0.0
 70
0
  0
VERTEX
  5
31F
  8
0
 10
9.878110367736435
 20
1.4449274636869536
 30
0.0
 70
0
  0
VERTEX
  5
320
  8
0
 10
9.970078544238104
 20
1.4320563017702952
 30
0.0
 70
0
  0
VERTEX
  5
321
  8
0
 10
10.069690112578742
 20
1.428015176552881
 30
0.0
 70
0
  0
VERTEX
  5
322
  8
0
 10
10.168475688153684
 20
1.433365159070286
 30
0.0
 70
0
  0
VERTEX
  5
323
  8
0
 10
10.260591720480102
 20
1.447925727241799
 30
0.0
 70
0
  0
VERTEX
  5
324
  8
0
 10
10.345934493253017
 20
1.4711005123137912
 30
0.0
 70
0
  0
VERTEX
  5
325
  8
0
 10
10.424400290167451
 20
1.5022931455326365
 30
0.0
 70
0
  0
VERTEX
  5
326
  8
0
 10
10.495885394918423
 20
1.5409072581447063
 30
0.0
 70
0
  0
VERTEX
  5
327
  8
0
 10
10.560286091200958
 20
1.586346481396376
 30
0.0
 70
0
  0
VERTEX
  5
328
  8
0
 10
10.617498662710073
 20
1.6380144465340152
 30
0.0
 70
0
  0
VERTEX
  5
329
  8
0
 10
10.667419393140793
 20
1.6953147848039993
 30
0.0
 70
0
  0
VERTEX
  5
32A
  8
0
 10
10.70994456618814
 20
1.7576511274527
 30
0.0
 70
0
  0
VERTEX
  5
32B
  8
0
 10
10.744970465547132
 20
1.8244271057264925
 30
0.0
 70
0
  0
VERTEX
  5
32C
  8
0
 10
10.772393374912792
 20
1.8950463508717448
 30
0.0
 70
0
  0
VERTEX
  5
32D
  8
0
 10
10.792109577980142
 20
1.9689124941348357
 30
0.0
 70
0
  0
VERTEX
  5
32E
  8
0
 10
10.804015358444202
 20
2.0454291667621316
 30
0.0
 70
0
  0
VERTEX
  5
32F
  8
0
 10
10.808007
 20
2.1240000000000006
 30
0.0
 70
0
  0
SEQEND
  5
2F5
  8
0
  0
POLYLINE
  5
330
  8
0
 66
1
 10
0.0
 20
0.0
 30
0.0
 70
1
  0
VERTEX
  5
332
  8
0
 10
15.188017
 20
1.3800000000000008
 30
0.0
 70
0
  0
VERTEX
  5
333
  8
0
 10
15.321652159143676
 20
1.3822378944323255
 30
0.0
 70
0
  0
VERTEX
  5
334
  8
0
 10
15.451646108271587
 20
1.3888235829712947
 30
0.0
 70
0
  0
VERTEX
  5
335
  8
0
 10
15.57802132451197
 20
1.3995650734799039
 30
0.0
 70
0
  0
VERTEX
  5
336
  8
0
 10
15.700800284993058
 20
1.4142703738211466
 30
0.0
 70
0
  0
VERTEX
  5
337
  8
0
 10
15.820005466843087
 20
1.4327474918580165
 30
0.0
 70
0
  0
VERTEX
  5
338
  8
0
 10
15.93565934719029
 20
1.454804435453509
 30
0.0
 70
0
  0
VERTEX
  5
339
  8
0
 10
16.047784403162904
 20
1.4802492124706195
 30
0.0
 70
0
  0
VERTEX
  5
33A
  8
0
 10
16.156403111889166
 20
1.5088898307723415
 30
0.0
 70
0
  0
VERTEX
  5
33B
  8
0
 10
16.261537950497303
 20
1.540534298221667
 30
0.0
 70
0
  0
VERTEX
  5
33C
  8
0
 10
16.363211396115556
 20
1.5749906226815948
 30
0.0
 70
0
  0
VERTEX
  5
33D
  8
0
 10
16.46144592587216
 20
1.6120668120151151
 30
0.0
 70
0
  0
VERTEX
  5
33E
  8
0
 10
16.556264016895344
 20
1.651570874085225
 30
0.0
 70
0
  0
VERTEX
  5
33F
  8
0
 10
16.64768814631335
 20
1.6933108167549182
 30
0.0
 70
0
  0
VERTEX
  5
340
  8
0
 10
16.735740791254408
 20
1.7370946478871883
 30
0.0
 70
0
  0
VERTEX
  5
341
  8
0
 10
16.820444428846756
 20
1.7827303753450305
 30
0.0
 70
0
  0
VERTEX
  5
342
  8
0
 10
16.901821536218627
 20
1.8300260069914387
 30
0.0
 70
0
  0
VERTEX
  5
343
  8
0
 10
16.979894590498258
 20
1.8787895506894081
 30
0.0
 70
0
  0
VERTEX
  5
344
  8
0
 10
17.05468606881388
 20
1.9288290143019324
 30
0.0
 70
0
  0
VERTEX
  5
345
  8
0
 10
17.12621844829373
 20
1.9799524056920053
 30
0.0
 70
0
  0
VERTEX
  5
346
  8
0
 10
17.194514206066042
 20
2.031967732722622
 30
0.0
 70
0
  0
VERTEX
  5
347
  8
0
 10
17.25959581925905
 20
2.0846830032567762
 30
0.0
 70
0
  0
VERTEX
  5
348
  8
0
 10
17.321485765000993
 20
2.1379062251574634
 30
0.0
 70
0
  0
VERTEX
  5
349
  8
0
 10
17.380206520420103
 20
2.191445406287677
 30
0.0
 70
0
  0
VERTEX
  5
34A
  8
0
 10
17.435780562644613
 20
2.245108554510413
 30
0.0
 70
0
  0
VERTEX
  5
34B
  8
0
 10
17.48823036880276
 20
2.298703677688664
 30
0.0
 70
0
  0
VERTEX
  5
34C
  8
0
 10
17.537578416022782
 20
2.3520387836854244
 30
0.0
 70
0
  0
VERTEX
  5
34D
  8
0
 10
17.583847181432905
 20
2.4049218803636876
 30
0.0
 70
0
  0
VERTEX
  5
34E
  8
0
 10
17.62705914216137
 20
2.4571609755864525
 30
0.0
 70
0
  0
VERTEX
  5
34F
  8
0
 10
17.667236775336413
 20
2.5085640772167075
 30
0.0
 70
0
  0
VERTEX
  5
350
  8
0
 10
17.704402558086265
 20
2.5589391931174514
 30
0.0
 70
0
  0
VERTEX
  5
351
  8
0
 10
17.738578967539162
 20
2.608094331151678
 30
0.0
 70
0
  0
VERTEX
  5
352
  8
0
 10
17.76978848082334
 20
2.655837499182379
 30
0.0
 70
0
  0
VERTEX
  5
353
  8
0
 10
17.798053575067033
 20
2.70197670507255
 30
0.0
 70
0
  0
VERTEX
  5
354
  8
0
 10
17.823396727398478
 20
2.7463199566851877
 30
0.0
 70
0
  0
VERTEX
  5
355
  8
0
 10
17.845840414945904
 20
2.7886752618832826
 30
0.0
 70
0
  0
VERTEX
  5
356
  8
0
 10
17.865407114837552
 20
2.828850628529832
 30
0.0
 70
0
  0
VERTEX
  5
357
  8
0
 10
17.882119304201655
 20
2.8666540644878307
 30
0.0
 70
0
  0
VERTEX
  5
358
  8
0
 10
17.895999460166443
 20
2.9018935776202692
 30
0.0
 70
0
  0
VERTEX
  5
359
  8
0
 10
17.90707005986016
 20
2.9343771757901465
 30
0.0
 70
0
  0
VERTEX
  5
35A
  8
0
 10
17.915353580411033
 20
2.963912866860454
 30
0.0
 70
0
  0
VERTEX
  5
35B
  8
0
 10
17.920872498947297
 20
2.990308658694186
 30
0.0
 70
0
  0
VERTEX
  5
35C
  8
0
 10
17.923649292597194
 20
3.013372559154339
 30
0.0
 70
0
  0
VERTEX
  5
35D
  8
0
 10
17.92202541671525
 20
3.048171842587511
 30
0.0
 70
0
  0
VERTEX
  5
35E
  8
0
 10
17.906273501109663
 20
3.1096870070889846
 30
0.0
 70
0
  0
VERTEX
  5
35F
  8
0
 10
17.877631868427702
 20
3.1825035326998012
 30
0.0
 70
0
  0
VERTEX
  5
360
  8
0
 10
17.839475197869547
 20
3.2621729786560962
 30
0.0
 70
0
  0
VERTEX
  5
361
  8
0
 10
17.795178168635363
 20
3.344246904194007
 30
0.0
 70
0
  0
VERTEX
  5
362
  8
0
 10
17.74811545992533
 20
3.4242768685496703
 30
0.0
 70
0
  0
VERTEX
  5
363
  8
0
 10
17.701661750939614
 20
3.497814430959222
 30
0.0
 70
0
  0
VERTEX
  5
364
  8
0
 10
17.65919172087839
 20
3.5604111506587994
 30
0.0
 70
0
  0
VERTEX
  5
365
  8
0
 10
17.59340687175765
 20
3.560830519932681
 30
0.0
 70
0
  0
VERTEX
  5
366
  8
0
 10
17.516240798485242
 20
3.539395499579234
 30
0.0
 70
0
  0
VERTEX
  5
367
  8
0
 10
17.43907472521283
 20
3.5179604792257866
 30
0.0
 70
0
  0
VERTEX
  5
368
  8
0
 10
17.398361642140458
 20
3.4319007795357823
 30
0.0
 70
0
  0
VERTEX
  5
369
  8
0
 10
17.36052026672633
 20
3.3417618585391953
 30
0.0
 70
0
  0
VERTEX
  5
36A
  8
0
 10
17.321812628433182
 20
3.2541720152175984
 30
0.0
 70
0
  0
VERTEX
  5
36B
  8
0
 10
17.282207732202032
 20
3.1691377748465683
 30
0.0
 70
0
  0
VERTEX
  5
36C
  8
0
 10
17.241674582973896
 20
3.08666566270168
 30
0.0
 70
0
  0
VERTEX
  5
36D
  8
0
 10
17.200182185689794
 20
3.006762204058507
 30
0.0
 70
0
  0
VERTEX
  5
36E
  8
0
 10
17.157699545290733
 20
2.9294339241926277
 30
0.0
 70
0
  0
VERTEX
  5
36F
  8
0
 10
17.114195666717734
 20
2.854687348379617
 30
0.0
 70
0
  0
VERTEX
  5
370
  8
0
 10
17.06963955491181
 20
2.7825290018950497
 30
0.0
 70
0
  0
VERTEX
  5
371
  8
0
 10
17.02400021481398
 20
2.712965410014503
 30
0.0
 70
0
  0
VERTEX
  5
372
  8
0
 10
16.97724665136526
 20
2.6460030980135514
 30
0.0
 70
0
  0
VERTEX
  5
373
  8
0
 10
16.92934786950666
 20
2.5816485911677685
 30
0.0
 70
0
  0
VERTEX
  5
374
  8
0
 10
16.880272874179205
 20
2.5199084147527344
 30
0.0
 70
0
  0
VERTEX
  5
375
  8
0
 10
16.8299906703239
 20
2.4607890940440225
 30
0.0
 70
0
  0
VERTEX
  5
376
  8
0
 10
16.77847026288177
 20
2.4042971543172076
 30
0.0
 70
0
  0
VERTEX
  5
377
  8
0
 10
16.725680656793823
 20
2.3504391208478648
 30
0.0
 70
0
  0
VERTEX
  5
378
  8
0
 10
16.671590857001082
 20
2.2992215189115726
 30
0.0
 70
0
  0
VERTEX
  5
379
  8
0
 10
16.61616986844456
 20
2.250650873783906
 30
0.0
 70
0
  0
VERTEX
  5
37A
  8
0
 10
16.559386696065268
 20
2.204733710740438
 30
0.0
 70
0
  0
VERTEX
  5
37B
  8
0
 10
16.501210344804228
 20
2.161476555056746
 30
0.0
 70
0
  0
VERTEX
  5
37C
  8
0
 10
16.44160981960245
 20
2.120885932008406
 30
0.0
 70
0
  0
VERTEX
  5
37D
  8
0
 10
16.38055412540096
 20
2.0829683668709933
 30
0.0
 70
0
  0
VERTEX
  5
37E
  8
0
 10
16.318012267140762
 20
2.0477303849200847
 30
0.0
 70
0
  0
VERTEX
  5
37F
  8
0
 10
16.253953249762876
 20
2.0151785114312535
 30
0.0
 70
0
  0
VERTEX
  5
380
  8
0
 10
16.18834607820832
 20
1.9853192716800763
 30
0.0
 70
0
  0
VERTEX
  5
381
  8
0
 10
16.12115975741811
 20
1.958159190942128
 30
0.0
 70
0
  0
VERTEX
  5
382
  8
0
 10
16.052363292333254
 20
1.9337047944929857
 30
0.0
 70
0
  0
VERTEX
  5
383
  8
0
 10
15.981925687894778
 20
1.911962607608226
 30
0.0
 70
0
  0
VERTEX
  5
384
  8
0
 10
15.909815949043693
 20
1.8929391555634218
 30
0.0
 70
0
  0
VERTEX
  5
385
  8
0
 10
15.836003080721015
 20
1.8766409636341503
 30
0.0
 70
0
  0
VERTEX
  5
386
  8
0
 10
15.760456087867759
 20
1.8630745570959863
 30
0.0
 70
0
  0
VERTEX
  5
387
  8
0
 10
15.683143975424942
 20
1.8522464612245049
 30
0.0
 70
0
  0
VERTEX
  5
388
  8
0
 10
15.60403574833358
 20
1.8441632012952844
 30
0.0
 70
0
  0
VERTEX
  5
389
  8
0
 10
15.523100411534685
 20
1.8388313025838983
 30
0.0
 70
0
  0
VERTEX
  5
38A
  8
0
 10
15.440306969969278
 20
1.8362572903659231
 30
0.0
 70
0
  0
VERTEX
  5
38B
  8
0
 10
15.353768335281488
 20
1.8365769659417133
 30
0.0
 70
0
  0
VERTEX
  5
38C
  8
0
 10
15.267332309746624
 20
1.8403609558740666
 30
0.0
 70
0
  0
VERTEX
  5
38D
  8
0
 10
15.183322570450292
 20
1.8476152527882768
 30
0.0
 70
0
  0
VERTEX
  5
38E
  8
0
 10
15.101712660207156
 20
1.8582690990956596
 30
0.0
 70
0
  0
VERTEX
  5
38F
  8
0
 10
15.022476121831883
 20
1.8722517372075345
 30
0.0
 70
0
  0
VERTEX
  5
390
  8
0
 10
14.945586498139141
 20
1.8894924095352188
 30
0.0
 70
0
  0
VERTEX
  5
391
  8
0
 10
14.871017331943596
 20
1.9099203584900302
 30
0.0
 70
0
  0
VERTEX
  5
392
  8
0
 10
14.798742166059915
 20
1.9334648264832879
 30
0.0
 70
0
  0
VERTEX
  5
393
  8
0
 10
14.728734543302766
 20
1.9600550559263112
 30
0.0
 70
0
  0
VERTEX
  5
394
  8
0
 10
14.660968006486813
 20
1.9896202892304142
 30
0.0
 70
0
  0
VERTEX
  5
395
  8
0
 10
14.595416098426726
 20
2.0220897688069197
 30
0.0
 70
0
  0
VERTEX
  5
396
  8
0
 10
14.53205236193717
 20
2.0573927370671434
 30
0.0
 70
0
  0
VERTEX
  5
397
  8
0
 10
14.470850339832813
 20
2.0954584364224047
 30
0.0
 70
0
  0
VERTEX
  5
398
  8
0
 10
14.41178357492832
 20
2.1362161092840193
 30
0.0
 70
0
  0
VERTEX
  5
399
  8
0
 10
14.354825610038358
 20
2.1795949980633083
 30
0.0
 70
0
  0
VERTEX
  5
39A
  8
0
 10
14.299949987977596
 20
2.225524345171589
 30
0.0
 70
0
  0
VERTEX
  5
39B
  8
0
 10
14.247130251560698
 20
2.2739333930201795
 30
0.0
 70
0
  0
VERTEX
  5
39C
  8
0
 10
14.196339943602332
 20
2.324751384020397
 30
0.0
 70
0
  0
VERTEX
  5
39D
  8
0
 10
14.147552606917166
 20
2.3779075605835605
 30
0.0
 70
0
  0
VERTEX
  5
39E
  8
0
 10
14.100741784319867
 20
2.4333311651209897
 30
0.0
 70
0
  0
VERTEX
  5
39F
  8
0
 10
14.055881018625097
 20
2.4909514400440003
 30
0.0
 70
0
  0
VERTEX
  5
3A0
  8
0
 10
14.01294385264753
 20
2.5506976277639115
 30
0.0
 70
0
  0
VERTEX
  5
3A1
  8
0
 10
13.971903829201826
 20
2.612498970692041
 30
0.0
 70
0
  0
VERTEX
  5
3A2
  8
0
 10
13.932734491102657
 20
2.676284711239708
 30
0.0
 70
0
  0
VERTEX
  5
3A3
  8
0
 10
13.895409381164686
 20
2.74198409181823
 30
0.0
 70
0
  0
VERTEX
  5
3A4
  8
0
 10
13.859902042202584
 20
2.8095263548389244
 30
0.0
 70
0
  0
VERTEX
  5
3A5
  8
0
 10
13.826186017031015
 20
2.8788407427131126
 30
0.0
 70
0
  0
VERTEX
  5
3A6
  8
0
 10
13.794234848464646
 20
2.9498564978521085
 30
0.0
 70
0
  0
VERTEX
  5
3A7
  8
0
 10
13.764022079318142
 20
3.022502862667235
 30
0.0
 70
0
  0
VERTEX
  5
3A8
  8
0
 10
13.735521252406173
 20
3.096709079569804
 30
0.0
 70
0
  0
VERTEX
  5
3A9
  8
0
 10
13.708705910543404
 20
3.17240439097114
 30
0.0
 70
0
  0
VERTEX
  5
3AA
  8
0
 10
13.683549596544504
 20
3.249518039282558
 30
0.0
 70
0
  0
VERTEX
  5
3AB
  8
0
 10
13.660025853224138
 20
3.327979266915376
 30
0.0
 70
0
  0
VERTEX
  5
3AC
  8
0
 10
13.638108223396971
 20
3.4077173162809142
 30
0.0
 70
0
  0
VERTEX
  5
3AD
  8
0
 10
13.617770249877672
 20
3.488661429790488
 30
0.0
 70
0
  0
VERTEX
  5
3AE
  8
0
 10
13.598985475480909
 20
3.570740849855417
 30
0.0
 70
0
  0
VERTEX
  5
3AF
  8
0
 10
13.581727443021347
 20
3.65388481888702
 30
0.0
 70
0
  0
VERTEX
  5
3B0
  8
0
 10
13.565969695313653
 20
3.7380225792966133
 30
0.0
 70
0
  0
VERTEX
  5
3B1
  8
0
 10
13.551685775172494
 20
3.8230833734955176
 30
0.0
 70
0
  0
VERTEX
  5
3B2
  8
0
 10
13.538849225412536
 20
3.9089964438950506
 30
0.0
 70
0
  0
VERTEX
  5
3B3
  8
0
 10
13.527433588848448
 20
3.99569103290653
 30
0.0
 70
0
  0
VERTEX
  5
3B4
  8
0
 10
13.517412408294893
 20
4.083096382941273
 30
0.0
 70
0
  0
VERTEX
  5
3B5
  8
0
 10
13.508759226566541
 20
4.171141736410597
 30
0.0
 70
0
  0
VERTEX
  5
3B6
  8
0
 10
13.50144758647806
 20
4.2597563357258235
 30
0.0
 70
0
  0
VERTEX
  5
3B7
  8
0
 10
13.495451030844114
 20
4.348869423298268
 30
0.0
 70
0
  0
VERTEX
  5
3B8
  8
0
 10
13.49074310247937
 20
4.43841024153925
 30
0.0
 70
0
  0
VERTEX
  5
3B9
  8
0
 10
13.487297344198495
 20
4.528308032860089
 30
0.0
 70
0
  0
VERTEX
  5
3BA
  8
0
 10
13.485087298816156
 20
4.618492039672098
 30
0.0
 70
0
  0
VERTEX
  5
3BB
  8
0
 10
13.484086509147021
 20
4.708891504386601
 30
0.0
 70
0
  0
VERTEX
  5
3BC
  8
0
 10
13.4842957404454
 20
4.802682922004186
 30
0.0
 70
0
  0
VERTEX
  5
3BD
  8
0
 10
13.485788908006262
 20
4.897893211784666
 30
0.0
 70
0
  0
VERTEX
  5
3BE
  8
0
 10
13.48856557862069
 20
4.992716927709109
 30
0.0
 70
0
  0
VERTEX
  5
3BF
  8
0
 10
13.492618225035518
 20
5.0871282620523655
 30
0.0
 70
0
  0
VERTEX
  5
3C0
  8
0
 10
13.497939319997577
 20
5.181101407089287
 30
0.0
 70
0
  0
VERTEX
  5
3C1
  8
0
 10
13.504521336253699
 20
5.27461055509473
 30
0.0
 70
0
  0
VERTEX
  5
3C2
  8
0
 10
13.512356746550717
 20
5.367629898343543
 30
0.0
 70
0
  0
VERTEX
  5
3C3
  8
0
 10
13.521438023635461
 20
5.460133629110581
 30
0.0
 70
0
  0
VERTEX
  5
3C4
  8
0
 10
13.531757640254764
 20
5.552095939670693
 30
0.0
 70
0
  0
VERTEX
  5
3C5
  8
0
 10
13.54330806915546
 20
5.643491022298736
 30
0.0
 70
0
  0
VERTEX
  5
3C6
  8
0
 10
13.556081783084377
 20
5.734293069269558
 30
0.0
 70
0
  0
VERTEX
  5
3C7
  8
0
 10
13.570071254788349
 20
5.824476272858016
 30
0.0
 70
0
  0
VERTEX
  5
3C8
  8
0
 10
13.585268957014208
 20
5.914014825338958
 30
0.0
 70
0
  0
VERTEX
  5
3C9
  8
0
 10
13.601667362508786
 20
6.00288291898724
 30
0.0
 70
0
  0
VERTEX
  5
3CA
  8
0
 10
13.619258944018915
 20
6.09105474607771
 30
0.0
 70
0
  0
VERTEX
  5
3CB
  8
0
 10
13.638036174291427
 20
6.178504498885223
 30
0.0
 70
0
  0
VERTEX
  5
3CC
  8
0
 10
13.657991526073154
 20
6.265206369684634
 30
0.0
 70
0
  0
VERTEX
  5
3CD
  8
0
 10
13.679117472110926
 20
6.351134550750791
 30
0.0
 70
0
  0
VERTEX
  5
3CE
  8
0
 10
13.701406485151578
 20
6.436263234358551
 30
0.0
 70
0
  0
VERTEX
  5
3CF
  8
0
 10
13.72485103794194
 20
6.52056661278276
 30
0.0
 70
0
  0
VERTEX
  5
3D0
  8
0
 10
13.749443603228844
 20
6.6040188782982785
 30
0.0
 70
0
  0
VERTEX
  5
3D1
  8
0
 10
13.775176653759123
 20
6.686594223179952
 30
0.0
 70
0
  0
VERTEX
  5
3D2
  8
0
 10
13.802042662279609
 20
6.768266839702637
 30
0.0
 70
0
  0
VERTEX
  5
3D3
  8
0
 10
13.830034101537134
 20
6.849010920141183
 30
0.0
 70
0
  0
VERTEX
  5
3D4
  8
0
 10
13.859143444278528
 20
6.928800656770445
 30
0.0
 70
0
  0
VERTEX
  5
3D5
  8
0
 10
13.889363163250625
 20
7.007610241865274
 30
0.0
 70
0
  0
VERTEX
  5
3D6
  8
0
 10
13.920685731200255
 20
7.085413867700522
 30
0.0
 70
0
  0
VERTEX
  5
3D7
  8
0
 10
13.953103620874252
 20
7.1621857265510425
 30
0.0
 70
0
  0
VERTEX
  5
3D8
  8
0
 10
13.986609305019448
 20
7.237900010691687
 30
0.0
 70
0
  0
VERTEX
  5
3D9
  8
0
 10
14.021195256382674
 20
7.312530912397312
 30
0.0
 70
0
  0
VERTEX
  5
3DA
  8
0
 10
14.05685394771076
 20
7.386052623942762
 30
0.0
 70
0
  0
VERTEX
  5
3DB
  8
0
 10
14.093577851750542
 20
7.458439337602897
 30
0.0
 70
0
  0
VERTEX
  5
3DC
  8
0
 10
14.13135944124885
 20
7.529665245652565
 30
0.0
 70
0
  0
VERTEX
  5
3DD
  8
0
 10
14.170191188952517
 20
7.59970454036662
 30
0.0
 70
0
  0
VERTEX
  5
3DE
  8
0
 10
14.210065567608371
 20
7.668531414019913
 30
0.0
 70
0
  0
VERTEX
  5
3DF
  8
0
 10
14.250975049963248
 20
7.736120058887298
 30
0.0
 70
0
  0
VERTEX
  5
3E0
  8
0
 10
14.292912108763979
 20
7.802444667243627
 30
0.0
 70
0
  0
VERTEX
  5
3E1
  8
0
 10
14.335869216757395
 20
7.867479431363752
 30
0.0
 70
0
  0
VERTEX
  5
3E2
  8
0
 10
14.37983884669033
 20
7.931198543522528
 30
0.0
 70
0
  0
VERTEX
  5
3E3
  8
0
 10
14.424813471309614
 20
7.993576195994802
 30
0.0
 70
0
  0
VERTEX
  5
3E4
  8
0
 10
14.470785563362082
 20
8.054586581055432
 30
0.0
 70
0
  0
VERTEX
  5
3E5
  8
0
 10
14.51774759559456
 20
8.114203890979267
 30
0.0
 70
0
  0
VERTEX
  5
3E6
  8
0
 10
14.565692040753886
 20
8.172402318041161
 30
0.0
 70
0
  0
VERTEX
  5
3E7
  8
0
 10
14.614611371586888
 20
8.229156054515965
 30
0.0
 70
0
  0
VERTEX
  5
3E8
  8
0
 10
14.664498060840401
 20
8.284439292678535
 30
0.0
 70
0
  0
VERTEX
  5
3E9
  8
0
 10
14.715344581261252
 20
8.338226224803718
 30
0.0
 70
0
  0
VERTEX
  5
3EA
  8
0
 10
14.767143405596281
 20
8.390491043166369
 30
0.0
 70
0
  0
VERTEX
  5
3EB
  8
0
 10
14.819887006592312
 20
8.441207940041341
 30
0.0
 70
0
  0
VERTEX
  5
3EC
  8
0
 10
14.87356785699618
 20
8.490351107703486
 30
0.0
 70
0
  0
VERTEX
  5
3ED
  8
0
 10
14.92817842955472
 20
8.537894738427656
 30
0.0
 70
0
  0
VERTEX
  5
3EE
  8
0
 10
14.98371119701476
 20
8.583813024488705
 30
0.0
 70
0
  0
VERTEX
  5
3EF
  8
0
 10
15.040158632123134
 20
8.628080158161485
 30
0.0
 70
0
  0
VERTEX
  5
3F0
  8
0
 10
15.09751320762667
 20
8.670670331720846
 30
0.0
 70
0
  0
VERTEX
  5
3F1
  8
0
 10
15.155767396272207
 20
8.711557737441643
 30
0.0
 70
0
  0
VERTEX
  5
3F2
  8
0
 10
15.21491367080657
 20
8.750716567598726
 30
0.0
 70
0
  0
VERTEX
  5
3F3
  8
0
 10
15.274944503976597
 20
8.788121014466949
 30
0.0
 70
0
  0
VERTEX
  5
3F4
  8
0
 10
15.335852368529114
 20
8.823745270321165
 30
0.0
 70
0
  0
VERTEX
  5
3F5
  8
0
 10
15.397629737210957
 20
8.857563527436227
 30
0.0
 70
0
  0
VERTEX
  5
3F6
  8
0
 10
15.460269082768956
 20
8.889549978086984
 30
0.0
 70
0
  0
VERTEX
  5
3F7
  8
0
 10
15.523762877949943
 20
8.919678814548293
 30
0.0
 70
0
  0
VERTEX
  5
3F8
  8
0
 10
15.588103595500755
 20
8.947924229095001
 30
0.0
 70
0
  0
VERTEX
  5
3F9
  8
0
 10
15.653283708168216
 20
8.974260414001966
 30
0.0
 70
0
  0
VERTEX
  5
3FA
  8
0
 10
15.719295688699162
 20
8.998661561544036
 30
0.0
 70
0
  0
VERTEX
  5
3FB
  8
0
 10
15.786132009840426
 20
9.021101863996067
 30
0.0
 70
0
  0
VERTEX
  5
3FC
  8
0
 10
15.853785144338838
 20
9.04155551363291
 30
0.0
 70
0
  0
VERTEX
  5
3FD
  8
0
 10
15.92224756494123
 20
9.059996702729414
 30
0.0
 70
0
  0
VERTEX
  5
3FE
  8
0
 10
15.991511744394437
 20
9.076399623560437
 30
0.0
 70
0
  0
VERTEX
  5
3FF
  8
0
 10
16.061570155445285
 20
9.09073846840083
 30
0.0
 70
0
  0
VERTEX
  5
400
  8
0
 10
16.13241527084061
 20
9.102987429525442
 30
0.0
 70
0
  0
VERTEX
  5
401
  8
0
 10
16.204039563327242
 20
9.113120699209128
 30
0.0
 70
0
  0
VERTEX
  5
402
  8
0
 10
16.276435505652017
 20
9.121112469726741
 30
0.0
 70
0
  0
VERTEX
  5
403
  8
0
 10
16.349595570561767
 20
9.126936933353132
 30
0.0
 70
0
  0
VERTEX
  5
404
  8
0
 10
16.423512230803315
 20
9.130568282363155
 30
0.0
 70
0
  0
VERTEX
  5
405
  8
0
 10
16.498177959123502
 20
9.131980709031662
 30
0.0
 70
0
  0
VERTEX
  5
406
  8
0
 10
16.586475401585457
 20
9.130756264995632
 30
0.0
 70
0
  0
VERTEX
  5
407
  8
0
 10
16.67487936994048
 20
9.126225288860876
 30
0.0
 70
0
  0
VERTEX
  5
408
  8
0
 10
16.761148909218548
 20
9.118342329135285
 30
0.0
 70
0
  0
VERTEX
  5
409
  8
0
 10
16.84516213542547
 20
9.107070820620596
 30
0.0
 70
0
  0
VERTEX
  5
40A
  8
0
 10
16.926797164567038
 20
9.092374198118549
 30
0.0
 70
0
  0
VERTEX
  5
40B
  8
0
 10
17.00593211264906
 20
9.074215896430886
 30
0.0
 70
0
  0
VERTEX
  5
40C
  8
0
 10
17.08244509567734
 20
9.052559350359347
 30
0.0
 70
0
  0
VERTEX
  5
40D
  8
0
 10
17.15621422965767
 20
9.027367994705674
 30
0.0
 70
0
  0
VERTEX
  5
40E
  8
0
 10
17.227117630595863
 20
8.998605264271603
 30
0.0
 70
0
  0
VERTEX
  5
40F
  8
0
 10
17.29503341449771
 20
8.96623459385888
 30
0.0
 70
0
  0
VERTEX
  5
410
  8
0
 10
17.35983969736902
 20
8.93021941826924
 30
0.0
 70
0
  0
VERTEX
  5
411
  8
0
 10
17.421414595215587
 20
8.89052317230443
 30
0.0
 70
0
  0
VERTEX
  5
412
  8
0
 10
17.47963622404322
 20
8.847109290766184
 30
0.0
 70
0
  0
VERTEX
  5
413
  8
0
 10
17.534382699857712
 20
8.799941208456246
 30
0.0
 70
0
  0
VERTEX
  5
414
  8
0
 10
17.585532138664874
 20
8.748982360176353
 30
0.0
 70
0
  0
VERTEX
  5
415
  8
0
 10
17.6329626564705
 20
8.694196180728252
 30
0.0
 70
0
  0
VERTEX
  5
416
  8
0
 10
17.676552369280394
 20
8.635546104913677
 30
0.0
 70
0
  0
VERTEX
  5
417
  8
0
 10
17.71617939310036
 20
8.57299556753437
 30
0.0
 70
0
  0
VERTEX
  5
418
  8
0
 10
17.751721843936195
 20
8.506508003392074
 30
0.0
 70
0
  0
VERTEX
  5
419
  8
0
 10
17.783057837793706
 20
8.436046847288525
 30
0.0
 70
0
  0
VERTEX
  5
41A
  8
0
 10
17.810065490678685
 20
8.36157553402547
 30
0.0
 70
0
  0
VERTEX
  5
41B
  8
0
 10
17.832622918596943
 20
8.28305749840464
 30
0.0
 70
0
  0
VERTEX
  5
41C
  8
0
 10
17.850608237554276
 20
8.200456175227785
 30
0.0
 70
0
  0
VERTEX
  5
41D
  8
0
 10
17.863899563556487
 20
8.113734999296637
 30
0.0
 70
0
  0
VERTEX
  5
41E
  8
0
 10
17.87237501260938
 20
8.022857405412946
 30
0.0
 70
0
  0
VERTEX
  5
41F
  8
0
 10
17.87591270071875
 20
7.9277868283784425
 30
0.0
 70
0
  0
VERTEX
  5
420
  8
0
 10
17.8750117760921
 20
7.845782098697108
 30
0.0
 70
0
  0
VERTEX
  5
421
  8
0
 10
17.87091557539259
 20
7.767350712045265
 30
0.0
 70
0
  0
VERTEX
  5
422
  8
0
 10
17.863675970735017
 20
7.688674262834036
 30
0.0
 70
0
  0
VERTEX
  5
423
  8
0
 10
17.853305607189313
 20
7.609960130210235
 30
0.0
 70
0
  0
VERTEX
  5
424
  8
0
 10
17.839817129825402
 20
7.531415693320664
 30
0.0
 70
0
  0
VERTEX
  5
425
  8
0
 10
17.823223183713218
 20
7.453248331312137
 30
0.0
 70
0
  0
VERTEX
  5
426
  8
0
 10
17.803536413922682
 20
7.37566542333146
 30
0.0
 70
0
  0
VERTEX
  5
427
  8
0
 10
17.78076946552373
 20
7.298874348525445
 30
0.0
 70
0
  0
VERTEX
  5
428
  8
0
 10
17.754934983586274
 20
7.223082486040896
 30
0.0
 70
0
  0
VERTEX
  5
429
  8
0
 10
17.726045613180258
 20
7.148497215024626
 30
0.0
 70
0
  0
VERTEX
  5
42A
  8
0
 10
17.6941139993756
 20
7.0753259146234395
 30
0.0
 70
0
  0
VERTEX
  5
42B
  8
0
 10
17.659152787242228
 20
7.00377596398415
 30
0.0
 70
0
  0
VERTEX
  5
42C
  8
0
 10
17.62117462185007
 20
6.934054742253565
 30
0.0
 70
0
  0
VERTEX
  5
42D
  8
0
 10
17.580192148269052
 20
6.866369628578488
 30
0.0
 70
0
  0
VERTEX
  5
42E
  8
0
 10
17.536218011569108
 20
6.800928002105733
 30
0.0
 70
0
  0
VERTEX
  5
42F
  8
0
 10
17.48926485682016
 20
6.737937241982108
 30
0.0
 70
0
  0
VERTEX
  5
430
  8
0
 10
17.439345329092134
 20
6.677604727354421
 30
0.0
 70
0
  0
VERTEX
  5
431
  8
0
 10
17.38647207345496
 20
6.620137837369478
 30
0.0
 70
0
  0
VERTEX
  5
432
  8
0
 10
17.33065773497857
 20
6.565743951174094
 30
0.0
 70
0
  0
VERTEX
  5
433
  8
0
 10
17.27191495873288
 20
6.514630447915071
 30
0.0
 70
0
  0
VERTEX
  5
434
  8
0
 10
17.210256389787823
 20
6.467004706739223
 30
0.0
 70
0
  0
VERTEX
  5
435
  8
0
 10
17.14569467321333
 20
6.423074106793354
 30
0.0
 70
0
  0
VERTEX
  5
436
  8
0
 10
17.078242454079327
 20
6.383046027224278
 30
0.0
 70
0
  0
VERTEX
  5
437
  8
0
 10
17.007912377455735
 20
6.347127847178799
 30
0.0
 70
0
  0
VERTEX
  5
438
  8
0
 10
16.934717088412487
 20
6.315526945803727
 30
0.0
 70
0
  0
VERTEX
  5
439
  8
0
 10
16.858669232019512
 20
6.288450702245873
 30
0.0
 70
0
  0
VERTEX
  5
43A
  8
0
 10
16.779781453346732
 20
6.266106495652043
 30
0.0
 70
0
  0
VERTEX
  5
43B
  8
0
 10
16.69806639746408
 20
6.248701705169045
 30
0.0
 70
0
  0
VERTEX
  5
43C
  8
0
 10
16.613536709441476
 20
6.236443709943691
 30
0.0
 70
0
  0
VERTEX
  5
43D
  8
0
 10
16.526205034348855
 20
6.229539889122787
 30
0.0
 70
0
  0
VERTEX
  5
43E
  8
0
 10
16.42570082303177
 20
6.228434567586564
 30
0.0
 70
0
  0
VERTEX
  5
43F
  8
0
 10
16.307769971029664
 20
6.237722448136802
 30
0.0
 70
0
  0
VERTEX
  5
440
  8
0
 10
16.2090510384249
 20
6.258178310431555
 30
0.0
 70
0
  0
VERTEX
  5
441
  8
0
 10
16.128218276050713
 20
6.28857838600919
 30
0.0
 70
0
  0
VERTEX
  5
442
  8
0
 10
16.063945934740346
 20
6.327698906408083
 30
0.0
 70
0
  0
VERTEX
  5
443
  8
0
 10
16.014908265327026
 20
6.3743161031666045
 30
0.0
 70
0
  0
VERTEX
  5
444
  8
0
 10
15.979779518643994
 20
6.427206207823126
 30
0.0
 70
0
  0
VERTEX
  5
445
  8
0
 10
15.957233945524486
 20
6.48514545191602
 30
0.0
 70
0
  0
VERTEX
  5
446
  8
0
 10
15.945945796801736
 20
6.546910066983655
 30
0.0
 70
0
  0
VERTEX
  5
447
  8
0
 10
15.944806489486142
 20
6.615258286698317
 30
0.0
 70
0
  0
VERTEX
  5
448
  8
0
 10
15.954330452670256
 20
6.690094917254516
 30
0.0
 70
0
  0
VERTEX
  5
449
  8
0
 10
15.971977968368153
 20
6.76399501407171
 30
0.0
 70
0
  0
VERTEX
  5
44A
  8
0
 10
15.994371082802246
 20
6.838140860972054
 30
0.0
 70
0
  0
VERTEX
  5
44B
  8
0
 10
16.018131842194954
 20
6.913714741777705
 30
0.0
 70
0
  0
VERTEX
  5
44C
  8
0
 10
16.039882292768688
 20
6.991898940310811
 30
0.0
 70
0
  0
VERTEX
  5
44D
  8
0
 10
16.05624448074586
 20
7.073875740393534
 30
0.0
 70
0
  0
VERTEX
  5
44E
  8
0
 10
16.06384045234889
 20
7.160827425848025
 30
0.0
 70
0
  0
VERTEX
  5
44F
  8
0
 10
16.059313644306176
 20
7.252789959806773
 30
0.0
 70
0
  0
VERTEX
  5
450
  8
0
 10
16.041601521352035
 20
7.335066510396164
 30
0.0
 70
0
  0
VERTEX
  5
451
  8
0
 10
16.011376189475964
 20
7.406306698256996
 30
0.0
 70
0
  0
VERTEX
  5
452
  8
0
 10
15.969328002702806
 20
7.466395464385126
 30
0.0
 70
0
  0
VERTEX
  5
453
  8
0
 10
15.916147315057405
 20
7.515217749776417
 30
0.0
 70
0
  0
VERTEX
  5
454
  8
0
 10
15.852524480564611
 20
7.552658495426723
 30
0.0
 70
0
  0
VERTEX
  5
455
  8
0
 10
15.779149853249265
 20
7.578602642331906
 30
0.0
 70
0
  0
VERTEX
  5
456
  8
0
 10
15.696713787136211
 20
7.592935131487825
 30
0.0
 70
0
  0
VERTEX
  5
457
  8
0
 10
15.603842307352982
 20
7.595485571753419
 30
0.0
 70
0
  0
VERTEX
  5
458
  8
0
 10
15.509337226698737
 20
7.585485639074492
 30
0.0
 70
0
  0
VERTEX
  5
459
  8
0
 10
15.424809011530508
 20
7.5636074048167545
 30
0.0
 70
0
  0
VERTEX
  5
45A
  8
0
 10
15.349833026529911
 20
7.531003450558659
 30
0.0
 70
0
  0
VERTEX
  5
45B
  8
0
 10
15.283984636378568
 20
7.488826357878658
 30
0.0
 70
0
  0
VERTEX
  5
45C
  8
0
 10
15.226839205758097
 20
7.438228708355201
 30
0.0
 70
0
  0
VERTEX
  5
45D
  8
0
 10
15.17797209935013
 20
7.380363083566747
 30
0.0
 70
0
  0
VERTEX
  5
45E
  8
0
 10
15.136958681836287
 20
7.316382065091748
 30
0.0
 70
0
  0
VERTEX
  5
45F
  8
0
 10
15.103374317898187
 20
7.247438234508657
 30
0.0
 70
0
  0
VERTEX
  5
460
  8
0
 10
15.076794372217451
 20
7.174684173395921
 30
0.0
 70
0
  0
VERTEX
  5
461
  8
0
 10
15.056794209475708
 20
7.099272463332001
 30
0.0
 70
0
  0
VERTEX
  5
462
  8
0
 10
15.042949194354577
 20
7.022355685895349
 30
0.0
 70
0
  0
VERTEX
  5
463
  8
0
 10
15.03483469153568
 20
6.945086422664415
 30
0.0
 70
0
  0
VERTEX
  5
464
  8
0
 10
15.032026065700641
 20
6.868617255217655
 30
0.0
 70
0
  0
VERTEX
  5
465
  8
0
 10
15.03536354850993
 20
6.775933681896275
 30
0.0
 70
0
  0
VERTEX
  5
466
  8
0
 10
15.046062390388405
 20
6.687635625416078
 30
0.0
 70
0
  0
VERTEX
  5
467
  8
0
 10
15.06376818484759
 20
6.604860266589158
 30
0.0
 70
0
  0
VERTEX
  5
468
  8
0
 10
15.08812121755262
 20
6.527459487748219
 30
0.0
 70
0
  0
VERTEX
  5
469
  8
0
 10
15.11876177416864
 20
6.45528517122596
 30
0.0
 70
0
  0
VERTEX
  5
46A
  8
0
 10
15.15533014036078
 20
6.388189199355091
 30
0.0
 70
0
  0
VERTEX
  5
46B
  8
0
 10
15.197466601794185
 20
6.326023454468318
 30
0.0
 70
0
  0
VERTEX
  5
46C
  8
0
 10
15.24481144413399
 20
6.26863981889834
 30
0.0
 70
0
  0
VERTEX
  5
46D
  8
0
 10
15.297004953045334
 20
6.215890174977863
 30
0.0
 70
0
  0
VERTEX
  5
46E
  8
0
 10
15.353687414193363
 20
6.167626405039588
 30
0.0
 70
0
  0
VERTEX
  5
46F
  8
0
 10
15.414499113243206
 20
6.123700391416225
 30
0.0
 70
0
  0
VERTEX
  5
470
  8
0
 10
15.479080335860004
 20
6.083964016440476
 30
0.0
 70
0
  0
VERTEX
  5
471
  8
0
 10
15.547071367708899
 20
6.0482691624450435
 30
0.0
 70
0
  0
VERTEX
  5
472
  8
0
 10
15.618112494455032
 20
6.0164677117626315
 30
0.0
 70
0
  0
VERTEX
  5
473
  8
0
 10
15.691844001763531
 20
5.988411546725947
 30
0.0
 70
0
  0
VERTEX
  5
474
  8
0
 10
15.767906175299542
 20
5.9639525496676935
 30
0.0
 70
0
  0
VERTEX
  5
475
  8
0
 10
15.845939300728205
 20
5.942942602920574
 30
0.0
 70
0
  0
VERTEX
  5
476
  8
0
 10
15.925583663714658
 20
5.9252335888172905
 30
0.0
 70
0
  0
VERTEX
  5
477
  8
0
 10
16.006479549924034
 20
5.910677389690552
 30
0.0
 70
0
  0
VERTEX
  5
478
  8
0
 10
16.088267245021477
 20
5.89912588787306
 30
0.0
 70
0
  0
VERTEX
  5
479
  8
0
 10
16.170587034672128
 20
5.890430965697519
 30
0.0
 70
0
  0
VERTEX
  5
47A
  8
0
 10
16.253079204541116
 20
5.884444505496633
 30
0.0
 70
0
  0
VERTEX
  5
47B
  8
0
 10
16.335384040293597
 20
5.8810183896031045
 30
0.0
 70
0
  0
VERTEX
  5
47C
  8
0
 10
16.41748684749233
 20
5.880005201766382
 30
0.0
 70
0
  0
VERTEX
  5
47D
  8
0
 10
16.50409754762184
 20
5.881476011871396
 30
0.0
 70
0
  0
VERTEX
  5
47E
  8
0
 10
16.590170758841715
 20
5.885534993989783
 30
0.0
 70
0
  0
VERTEX
  5
47F
  8
0
 10
16.67564058915912
 20
5.892147595003346
 30
0.0
 70
0
  0
VERTEX
  5
480
  8
0
 10
16.760441146581204
 20
5.90127926179389
 30
0.0
 70
0
  0
VERTEX
  5
481
  8
0
 10
16.844506539115137
 20
5.91289544124322
 30
0.0
 70
0
  0
VERTEX
  5
482
  8
0
 10
16.92777087476808
 20
5.926961580233137
 30
0.0
 70
0
  0
VERTEX
  5
483
  8
0
 10
17.010168261547186
 20
5.943443125645446
 30
0.0
 70
0
  0
VERTEX
  5
484
  8
0
 10
17.091632807459625
 20
5.962305524361952
 30
0.0
 70
0
  0
VERTEX
  5
485
  8
0
 10
17.17209862051255
 20
5.983514223264455
 30
0.0
 70
0
  0
VERTEX
  5
486
  8
0
 10
17.251499808713124
 20
6.007034669234763
 30
0.0
 70
0
  0
VERTEX
  5
487
  8
0
 10
17.329770480068504
 20
6.032832309154676
 30
0.0
 70
0
  0
VERTEX
  5
488
  8
0
 10
17.406844742585864
 20
6.060872589906001
 30
0.0
 70
0
  0
VERTEX
  5
489
  8
0
 10
17.482656704272348
 20
6.091120958370539
 30
0.0
 70
0
  0
VERTEX
  5
48A
  8
0
 10
17.55714047313512
 20
6.123542861430094
 30
0.0
 70
0
  0
VERTEX
  5
48B
  8
0
 10
17.630230157181348
 20
6.15810374596647
 30
0.0
 70
0
  0
VERTEX
  5
48C
  8
0
 10
17.70185986441819
 20
6.194769058861473
 30
0.0
 70
0
  0
VERTEX
  5
48D
  8
0
 10
17.7719637028528
 20
6.233504246996903
 30
0.0
 70
0
  0
VERTEX
  5
48E
  8
0
 10
17.840475780492344
 20
6.274274757254565
 30
0.0
 70
0
  0
VERTEX
  5
48F
  8
0
 10
17.907330205343982
 20
6.317046036516263
 30
0.0
 70
0
  0
VERTEX
  5
490
  8
0
 10
17.972461085414874
 20
6.361783531663802
 30
0.0
 70
0
  0
VERTEX
  5
491
  8
0
 10
18.035802528712185
 20
6.408452689578986
 30
0.0
 70
0
  0
VERTEX
  5
492
  8
0
 10
18.09728864324307
 20
6.457018957143616
 30
0.0
 70
0
  0
VERTEX
  5
493
  8
0
 10
18.156853537014687
 20
6.5074477812394935
 30
0.0
 70
0
  0
VERTEX
  5
494
  8
0
 10
18.2144313180342
 20
6.559704608748428
 30
0.0
 70
0
  0
VERTEX
  5
495
  8
0
 10
18.269956094308775
 20
6.613754886552224
 30
0.0
 70
0
  0
VERTEX
  5
496
  8
0
 10
18.323361973845564
 20
6.669564061532677
 30
0.0
 70
0
  0
VERTEX
  5
497
  8
0
 10
18.37458306465173
 20
6.727097580571597
 30
0.0
 70
0
  0
VERTEX
  5
498
  8
0
 10
18.423553474734437
 20
6.786320890550785
 30
0.0
 70
0
  0
VERTEX
  5
499
  8
0
 10
18.47020731210084
 20
6.847199438352048
 30
0.0
 70
0
  0
VERTEX
  5
49A
  8
0
 10
18.514478684758107
 20
6.909698670857189
 30
0.0
 70
0
  0
VERTEX
  5
49B
  8
0
 10
18.55630170071339
 20
6.973784034948007
 30
0.0
 70
0
  0
VERTEX
  5
49C
  8
0
 10
18.595610467973852
 20
7.03942097750631
 30
0.0
 70
0
  0
VERTEX
  5
49D
  8
0
 10
18.63233909454666
 20
7.1065749454139
 30
0.0
 70
0
  0
VERTEX
  5
49E
  8
0
 10
18.666421688438966
 20
7.1752113855525845
 30
0.0
 70
0
  0
VERTEX
  5
49F
  8
0
 10
18.697792357657935
 20
7.245295744804162
 30
0.0
 70
0
  0
VERTEX
  5
4A0
  8
0
 10
18.726385210210722
 20
7.3167934700504365
 30
0.0
 70
0
  0
VERTEX
  5
4A1
  8
0
 10
18.7521343541045
 20
7.389670008173214
 30
0.0
 70
0
  0
VERTEX
  5
4A2
  8
0
 10
18.774973897346417
 20
7.463890806054302
 30
0.0
 70
0
  0
VERTEX
  5
4A3
  8
0
 10
18.794837947943638
 20
7.539421310575496
 30
0.0
 70
0
  0
VERTEX
  5
4A4
  8
0
 10
18.81166061390332
 20
7.616226968618602
 30
0.0
 70
0
  0
VERTEX
  5
4A5
  8
0
 10
18.825376003232634
 20
7.694273227065426
 30
0.0
 70
0
  0
VERTEX
  5
4A6
  8
0
 10
18.83591822393873
 20
7.773525532797771
 30
0.0
 70
0
  0
VERTEX
  5
4A7
  8
0
 10
18.843221384028773
 20
7.853949332697445
 30
0.0
 70
0
  0
VERTEX
  5
4A8
  8
0
 10
18.847219591509923
 20
7.935510073646242
 30
0.0
 70
0
  0
VERTEX
  5
4A9
  8
0
 10
18.847789168105166
 20
8.022391175847813
 30
0.0
 70
0
  0
VERTEX
  5
4AA
  8
0
 10
18.844086264591674
 20
8.116420904032594
 30
0.0
 70
0
  0
VERTEX
  5
4AB
  8
0
 10
18.835947223793486
 20
8.20686632998392
 30
0.0
 70
0
  0
VERTEX
  5
4AC
  8
0
 10
18.823495954522077
 20
8.29378377588882
 30
0.0
 70
0
  0
VERTEX
  5
4AD
  8
0
 10
18.80685636558892
 20
8.377229563934325
 30
0.0
 70
0
  0
VERTEX
  5
4AE
  8
0
 10
18.786152365805492
 20
8.457260016307472
 30
0.0
 70
0
  0
VERTEX
  5
4AF
  8
0
 10
18.76150786398326
 20
8.533931455195297
 30
0.0
 70
0
  0
VERTEX
  5
4B0
  8
0
 10
18.733046768933708
 20
8.607300202784835
 30
0.0
 70
0
  0
VERTEX
  5
4B1
  8
0
 10
18.7008929894683
 20
8.677422581263109
 30
0.0
 70
0
  0
VERTEX
  5
4B2
  8
0
 10
18.66517043439852
 20
8.744354912817162
 30
0.0
 70
0
  0
VERTEX
  5
4B3
  8
0
 10
18.62600301253583
 20
8.808153519634025
 30
0.0
 70
0
  0
VERTEX
  5
4B4
  8
0
 10
18.58351463269171
 20
8.868874723900735
 30
0.0
 70
0
  0
VERTEX
  5
4B5
  8
0
 10
18.53782920367764
 20
8.926574847804318
 30
0.0
 70
0
  0
VERTEX
  5
4B6
  8
0
 10
18.48907063430508
 20
8.981310213531813
 30
0.0
 70
0
  0
VERTEX
  5
4B7
  8
0
 10
18.437362833385517
 20
9.03313714327025
 30
0.0
 70
0
  0
VERTEX
  5
4B8
  8
0
 10
18.382829709730416
 20
9.08211195920667
 30
0.0
 70
0
  0
VERTEX
  5
4B9
  8
0
 10
18.325595172151257
 20
9.128290983528098
 30
0.0
 70
0
  0
VERTEX
  5
4BA
  8
0
 10
18.265783129459507
 20
9.17173053842157
 30
0.0
 70
0
  0
VERTEX
  5
4BB
  8
0
 10
18.20351749046665
 20
9.212486946074122
 30
0.0
 70
0
  0
VERTEX
  5
4BC
  8
0
 10
18.13892216398415
 20
9.250616528672788
 30
0.0
 70
0
  0
VERTEX
  5
4BD
  8
0
 10
18.072121058823484
 20
9.2861756084046
 30
0.0
 70
0
  0
VERTEX
  5
4BE
  8
0
 10
18.003238083796127
 20
9.319220507456588
 30
0.0
 70
0
  0
VERTEX
  5
4BF
  8
0
 10
17.932397147713555
 20
9.349807548015791
 30
0.0
 70
0
  0
VERTEX
  5
4C0
  8
0
 10
17.85972215938724
 20
9.37799305226924
 30
0.0
 70
0
  0
VERTEX
  5
4C1
  8
0
 10
17.78533702762865
 20
9.40383334240397
 30
0.0
 70
0
  0
VERTEX
  5
4C2
  8
0
 10
17.70936566124927
 20
9.427384740607014
 30
0.0
 70
0
  0
VERTEX
  5
4C3
  8
0
 10
17.631931969060567
 20
9.448703569065405
 30
0.0
 70
0
  0
VERTEX
  5
4C4
  8
0
 10
17.553159859874015
 20
9.467846149966176
 30
0.0
 70
0
  0
VERTEX
  5
4C5
  8
0
 10
17.47317324250109
 20
9.484868805496362
 30
0.0
 70
0
  0
VERTEX
  5
4C6
  8
0
 10
17.392096025753258
 20
9.499827857842996
 30
0.0
 70
0
  0
VERTEX
  5
4C7
  8
0
 10
17.310052118442005
 20
9.512779629193112
 30
0.0
 70
0
  0
VERTEX
  5
4C8
  8
0
 10
17.2271654293788
 20
9.523780441733741
 30
0.0
 70
0
  0
VERTEX
  5
4C9
  8
0
 10
17.143559867375117
 20
9.53288661765192
 30
0.0
 70
0
  0
VERTEX
  5
4CA
  8
0
 10
17.059359341242423
 20
9.540154479134682
 30
0.0
 70
0
  0
VERTEX
  5
4CB
  8
0
 10
16.974687759792204
 20
9.54564034836906
 30
0.0
 70
0
  0
VERTEX
  5
4CC
  8
0
 10
16.889669031835925
 20
9.549400547542087
 30
0.0
 70
0
  0
VERTEX
  5
4CD
  8
0
 10
16.804427066185063
 20
9.551491398840797
 30
0.0
 70
0
  0
VERTEX
  5
4CE
  8
0
 10
16.717773472540607
 20
9.551963769692183
 30
0.0
 70
0
  0
VERTEX
  5
4CF
  8
0
 10
16.626359373383
 20
9.550682993724461
 30
0.0
 70
0
  0
VERTEX
  5
4D0
  8
0
 10
16.535868661435014
 20
9.547585409309962
 30
0.0
 70
0
  0
VERTEX
  5
4D1
  8
0
 10
16.44630298541664
 20
9.542692724595229
 30
0.0
 70
0
  0
VERTEX
  5
4D2
  8
0
 10
16.35766399404787
 20
9.53602664772681
 30
0.0
 70
0
  0
VERTEX
  5
4D3
  8
0
 10
16.269953336048683
 20
9.527608886851251
 30
0.0
 70
0
  0
VERTEX
  5
4D4
  8
0
 10
16.183172660139086
 20
9.517461150115096
 30
0.0
 70
0
  0
VERTEX
  5
4D5
  8
0
 10
16.097323615039066
 20
9.505605145664893
 30
0.0
 70
0
  0
VERTEX
  5
4D6
  8
0
 10
16.01240784946861
 20
9.492062581647186
 30
0.0
 70
0
  0
VERTEX
  5
4D7
  8
0
 10
15.928427012147704
 20
9.476855166208525
 30
0.0
 70
0
  0
VERTEX
  5
4D8
  8
0
 10
15.84538275179635
 20
9.460004607495453
 30
0.0
 70
0
  0
VERTEX
  5
4D9
  8
0
 10
15.763276717134536
 20
9.441532613654516
 30
0.0
 70
0
  0
VERTEX
  5
4DA
  8
0
 10
15.68211055688225
 20
9.421460892832261
 30
0.0
 70
0
  0
VERTEX
  5
4DB
  8
0
 10
15.601885919759484
 20
9.399811153175232
 30
0.0
 70
0
  0
VERTEX
  5
4DC
  8
0
 10
15.522604454486222
 20
9.376605102829977
 30
0.0
 70
0
  0
VERTEX
  5
4DD
  8
0
 10
15.444267809782469
 20
9.351864449943044
 30
0.0
 70
0
  0
VERTEX
  5
4DE
  8
0
 10
15.366877634368205
 20
9.325610902660975
 30
0.0
 70
0
  0
VERTEX
  5
4DF
  8
0
 10
15.290435576963425
 20
9.29786616913032
 30
0.0
 70
0
  0
VERTEX
  5
4E0
  8
0
 10
15.214943286288115
 20
9.268651957497617
 30
0.0
 70
0
  0
VERTEX
  5
4E1
  8
0
 10
15.140402411062274
 20
9.237989975909423
 30
0.0
 70
0
  0
VERTEX
  5
4E2
  8
0
 10
15.066814600005888
 20
9.20590193251228
 30
0.0
 70
0
  0
VERTEX
  5
4E3
  8
0
 10
14.994181501838948
 20
9.17240953545273
 30
0.0
 70
0
  0
VERTEX
  5
4E4
  8
0
 10
14.922504765281447
 20
9.137534492877323
 30
0.0
 70
0
  0
VERTEX
  5
4E5
  8
0
 10
14.851786039053367
 20
9.101298512932603
 30
0.0
 70
0
  0
VERTEX
  5
4E6
  8
0
 10
14.782026971874712
 20
9.063723303765117
 30
0.0
 70
0
  0
VERTEX
  5
4E7
  8
0
 10
14.713229212465468
 20
9.024830573521413
 30
0.0
 70
0
  0
VERTEX
  5
4E8
  8
0
 10
14.64539440954562
 20
8.984642030348034
 30
0.0
 70
0
  0
VERTEX
  5
4E9
  8
0
 10
14.578524211835163
 20
8.943179382391527
 30
0.0
 70
0
  0
VERTEX
  5
4EA
  8
0
 10
14.512620268054091
 20
8.90046433779844
 30
0.0
 70
0
  0
VERTEX
  5
4EB
  8
0
 10
14.447684226922393
 20
8.856518604715315
 30
0.0
 70
0
  0
VERTEX
  5
4EC
  8
0
 10
14.383717737160058
 20
8.811363891288703
 30
0.0
 70
0
  0
VERTEX
  5
4ED
  8
0
 10
14.320722447487073
 20
8.765021905665144
 30
0.0
 70
0
  0
VERTEX
  5
4EE
  8
0
 10
14.258700006623439
 20
8.71751435599119
 30
0.0
 70
0
  0
VERTEX
  5
4EF
  8
0
 10
14.19765206328914
 20
8.668862950413384
 30
0.0
 70
0
  0
VERTEX
  5
4F0
  8
0
 10
14.13758026620417
 20
8.619089397078273
 30
0.0
 70
0
  0
VERTEX
  5
4F1
  8
0
 10
14.078486264088516
 20
8.568215404132403
 30
0.0
 70
0
  0
VERTEX
  5
4F2
  8
0
 10
14.020371705662168
 20
8.516262679722317
 30
0.0
 70
0
  0
VERTEX
  5
4F3
  8
0
 10
13.963238239645124
 20
8.463252931994564
 30
0.0
 70
0
  0
VERTEX
  5
4F4
  8
0
 10
13.90708751475737
 20
8.409207869095692
 30
0.0
 70
0
  0
VERTEX
  5
4F5
  8
0
 10
13.851921179718897
 20
8.354149199172245
 30
0.0
 70
0
  0
VERTEX
  5
4F6
  8
0
 10
13.797740883249695
 20
8.298098630370763
 30
0.0
 70
0
  0
VERTEX
  5
4F7
  8
0
 10
13.744548274069757
 20
8.241077870837804
 30
0.0
 70
0
  0
VERTEX
  5
4F8
  8
0
 10
13.692345000899074
 20
8.183108628719907
 30
0.0
 70
0
  0
VERTEX
  5
4F9
  8
0
 10
13.641132712457635
 20
8.124212612163618
 30
0.0
 70
0
  0
VERTEX
  5
4FA
  8
0
 10
13.590913057465432
 20
8.064411529315485
 30
0.0
 70
0
  0
VERTEX
  5
4FB
  8
0
 10
13.541687684642453
 20
8.003727088322048
 30
0.0
 70
0
  0
VERTEX
  5
4FC
  8
0
 10
13.493458242708694
 20
7.942180997329864
 30
0.0
 70
0
  0
VERTEX
  5
4FD
  8
0
 10
13.446226380384143
 20
7.8797949644854715
 30
0.0
 70
0
  0
VERTEX
  5
4FE
  8
0
 10
13.399993746388791
 20
7.8165906979354185
 30
0.0
 70
0
  0
VERTEX
  5
4FF
  8
0
 10
13.354761989442625
 20
7.752589905826246
 30
0.0
 70
0
  0
VERTEX
  5
500
  8
0
 10
13.310532758265644
 20
7.687814296304509
 30
0.0
 70
0
  0
VERTEX
  5
501
  8
0
 10
13.267307701577833
 20
7.622285577516751
 30
0.0
 70
0
  0
VERTEX
  5
502
  8
0
 10
13.225088468099186
 20
7.556025457609514
 30
0.0
 70
0
  0
VERTEX
  5
503
  8
0
 10
13.183876706549688
 20
7.489055644729342
 30
0.0
 70
0
  0
VERTEX
  5
504
  8
0
 10
13.143674065649337
 20
7.42139784702279
 30
0.0
 70
0
  0
VERTEX
  5
505
  8
0
 10
13.104482194118122
 20
7.353073772636401
 30
0.0
 70
0
  0
VERTEX
  5
506
  8
0
 10
13.066302740676031
 20
7.284105129716718
 30
0.0
 70
0
  0
VERTEX
  5
507
  8
0
 10
13.029137354043057
 20
7.214513626410289
 30
0.0
 70
0
  0
VERTEX
  5
508
  8
0
 10
12.992987682939189
 20
7.144320970863655
 30
0.0
 70
0
  0
VERTEX
  5
509
  8
0
 10
12.95785537608442
 20
7.073548871223371
 30
0.0
 70
0
  0
VERTEX
  5
50A
  8
0
 10
12.923742082198741
 20
7.002219035635978
 30
0.0
 70
0
  0
VERTEX
  5
50B
  8
0
 10
12.89064945000214
 20
6.930353172248024
 30
0.0
 70
0
  0
VERTEX
  5
50C
  8
0
 10
12.858579128214611
 20
6.857972989206049
 30
0.0
 70
0
  0
VERTEX
  5
50D
  8
0
 10
12.827532765556143
 20
6.785100194656607
 30
0.0
 70
0
  0
VERTEX
  5
50E
  8
0
 10
12.797512010746729
 20
6.71175649674624
 30
0.0
 70
0
  0
VERTEX
  5
50F
  8
0
 10
12.768518512506358
 20
6.637963603621497
 30
0.0
 70
0
  0
VERTEX
  5
510
  8
0
 10
12.740553919555019
 20
6.56374322342892
 30
0.0
 70
0
  0
VERTEX
  5
511
  8
0
 10
12.713619880612704
 20
6.489117064315055
 30
0.0
 70
0
  0
VERTEX
  5
512
  8
0
 10
12.687718044399407
 20
6.414106834426452
 30
0.0
 70
0
  0
VERTEX
  5
513
  8
0
 10
12.662850059635119
 20
6.338734241909657
 30
0.0
 70
0
  0
VERTEX
  5
514
  8
0
 10
12.639017575039826
 20
6.263020994911212
 30
0.0
 70
0
  0
VERTEX
  5
515
  8
0
 10
12.616222239333517
 20
6.186988801577661
 30
0.0
 70
0
  0
VERTEX
  5
516
  8
0
 10
12.594465701236192
 20
6.11065937005556
 30
0.0
 70
0
  0
VERTEX
  5
517
  8
0
 10
12.573749609467837
 20
6.034054408491448
 30
0.0
 70
0
  0
VERTEX
  5
518
  8
0
 10
12.554075612748443
 20
5.957195625031872
 30
0.0
 70
0
  0
VERTEX
  5
519
  8
0
 10
12.535445359797997
 20
5.880104727823374
 30
0.0
 70
0
  0
VERTEX
  5
51A
  8
0
 10
12.517860499336496
 20
5.80280342501251
 30
0.0
 70
0
  0
VERTEX
  5
51B
  8
0
 10
12.501322680083929
 20
5.725313424745819
 30
0.0
 70
0
  0
VERTEX
  5
51C
  8
0
 10
12.485833550760287
 20
5.647656435169848
 30
0.0
 70
0
  0
VERTEX
  5
51D
  8
0
 10
12.471394760085557
 20
5.569854164431144
 30
0.0
 70
0
  0
VERTEX
  5
51E
  8
0
 10
12.458007956779733
 20
5.491928320676248
 30
0.0
 70
0
  0
VERTEX
  5
51F
  8
0
 10
12.445674789562808
 20
5.413900612051716
 30
0.0
 70
0
  0
VERTEX
  5
520
  8
0
 10
12.434396907154769
 20
5.335792746704085
 30
0.0
 70
0
  0
VERTEX
  5
521
  8
0
 10
12.424175958275608
 20
5.257626432779908
 30
0.0
 70
0
  0
VERTEX
  5
522
  8
0
 10
12.415013591645316
 20
5.179423378425723
 30
0.0
 70
0
  0
VERTEX
  5
523
  8
0
 10
12.406911455983884
 20
5.101205291788084
 30
0.0
 70
0
  0
VERTEX
  5
524
  8
0
 10
12.399871200011304
 20
5.022993881013534
 30
0.0
 70
0
  0
VERTEX
  5
525
  8
0
 10
12.393894472447565
 20
4.944810854248619
 30
0.0
 70
0
  0
VERTEX
  5
526
  8
0
 10
12.388982922012659
 20
4.8666779196398835
 30
0.0
 70
0
  0
VERTEX
  5
527
  8
0
 10
12.385138197426576
 20
4.788616785333872
 30
0.0
 70
0
  0
VERTEX
  5
528
  8
0
 10
12.382361947409306
 20
4.710649159477137
 30
0.0
 70
0
  0
VERTEX
  5
529
  8
0
 10
12.380655820680843
 20
4.632796750216221
 30
0.0
 70
0
  0
VERTEX
  5
52A
  8
0
 10
12.380021465961175
 20
4.55508126569767
 30
0.0
 70
0
  0
VERTEX
  5
52B
  8
0
 10
12.380728424425062
 20
4.4589711088607125
 30
0.0
 70
0
  0
VERTEX
  5
52C
  8
0
 10
12.383150608729103
 20
4.362242492835932
 30
0.0
 70
0
  0
VERTEX
  5
52D
  8
0
 10
12.3872826945195
 20
4.26682078775465
 30
0.0
 70
0
  0
VERTEX
  5
52E
  8
0
 10
12.393116645198953
 20
4.172718048512813
 30
0.0
 70
0
  0
VERTEX
  5
52F
  8
0
 10
12.400644424170169
 20
4.079946330006358
 30
0.0
 70
0
  0
VERTEX
  5
530
  8
0
 10
12.40985799483585
 20
3.988517687131244
 30
0.0
 70
0
  0
VERTEX
  5
531
  8
0
 10
12.420749320598699
 20
3.8984441747834087
 30
0.0
 70
0
  0
VERTEX
  5
532
  8
0
 10
12.433310364861418
 20
3.8097378478587967
 30
0.0
 70
0
  0
VERTEX
  5
533
  8
0
 10
12.447533091026711
 20
3.7224107612533537
 30
0.0
 70
0
  0
VERTEX
  5
534
  8
0
 10
12.463409462497285
 20
3.63647496986302
 30
0.0
 70
0
  0
VERTEX
  5
535
  8
0
 10
12.480931442675839
 20
3.5519425285837496
 30
0.0
 70
0
  0
VERTEX
  5
536
  8
0
 10
12.500090994965078
 20
3.468825492311483
 30
0.0
 70
0
  0
VERTEX
  5
537
  8
0
 10
12.520880082767706
 20
3.3871359159421637
 30
0.0
 70
0
  0
VERTEX
  5
538
  8
0
 10
12.543290669486426
 20
3.3068858543717354
 30
0.0
 70
0
  0
VERTEX
  5
539
  8
0
 10
12.567314718523939
 20
3.228087362496149
 30
0.0
 70
0
  0
VERTEX
  5
53A
  8
0
 10
12.592944193282952
 20
3.1507524952113464
 30
0.0
 70
0
  0
VERTEX
  5
53B
  8
0
 10
12.620171057166164
 20
3.074893307413273
 30
0.0
 70
0
  0
VERTEX
  5
53C
  8
0
 10
12.648987273576283
 20
3.0005218539978724
 30
0.0
 70
0
  0
VERTEX
  5
53D
  8
0
 10
12.679384805916014
 20
2.927650189861085
 30
0.0
 70
0
  0
VERTEX
  5
53E
  8
0
 10
12.711355617588053
 20
2.8562903698988666
 30
0.0
 70
0
  0
VERTEX
  5
53F
  8
0
 10
12.744891671995106
 20
2.786454449007156
 30
0.0
 70
0
  0
VERTEX
  5
540
  8
0
 10
12.779984932539879
 20
2.718154482081898
 30
0.0
 70
0
  0
VERTEX
  5
541
  8
0
 10
12.816627362625077
 20
2.6514025240190353
 30
0.0
 70
0
  0
VERTEX
  5
542
  8
0
 10
12.854810925653396
 20
2.586210629714518
 30
0.0
 70
0
  0
VERTEX
  5
543
  8
0
 10
12.894527585027545
 20
2.5225908540642905
 30
0.0
 70
0
  0
VERTEX
  5
544
  8
0
 10
12.935769304150226
 20
2.460555251964294
 30
0.0
 70
0
  0
VERTEX
  5
545
  8
0
 10
12.978528046424145
 20
2.400115878310473
 30
0.0
 70
0
  0
VERTEX
  5
546
  8
0
 10
13.022795775252
 20
2.341284787998779
 30
0.0
 70
0
  0
VERTEX
  5
547
  8
0
 10
13.068564454036496
 20
2.284074035925153
 30
0.0
 70
0
  0
VERTEX
  5
548
  8
0
 10
13.115826046180338
 20
2.2284956769855384
 30
0.0
 70
0
  0
VERTEX
  5
549
  8
0
 10
13.16457251508623
 20
2.1745617660758825
 30
0.0
 70
0
  0
VERTEX
  5
54A
  8
0
 10
13.214795824156877
 20
2.1222843580921253
 30
0.0
 70
0
  0
VERTEX
  5
54B
  8
0
 10
13.266487936794976
 20
2.0716755079302196
 30
0.0
 70
0
  0
VERTEX
  5
54C
  8
0
 10
13.319640816403233
 20
2.0227472704861054
 30
0.0
 70
0
  0
VERTEX
  5
54D
  8
0
 10
13.374246426384353
 20
1.97551170065573
 30
0.0
 70
0
  0
VERTEX
  5
54E
  8
0
 10
13.430296730141043
 20
1.9299808533350333
 30
0.0
 70
0
  0
VERTEX
  5
54F
  8
0
 10
13.487783691075997
 20
1.8861667834199682
 30
0.0
 70
0
  0
VERTEX
  5
550
  8
0
 10
13.546699272591926
 20
1.8440815458064748
 30
0.0
 70
0
  0
VERTEX
  5
551
  8
0
 10
13.607035438091529
 20
1.8037371953904984
 30
0.0
 70
0
  0
VERTEX
  5
552
  8
0
 10
13.66878415097751
 20
1.7651457870679845
 30
0.0
 70
0
  0
VERTEX
  5
553
  8
0
 10
13.73193737465258
 20
1.728319375734877
 30
0.0
 70
0
  0
VERTEX
  5
554
  8
0
 10
13.79648707251943
 20
1.693270016287121
 30
0.0
 70
0
  0
VERTEX
  5
555
  8
0
 10
13.86242520798077
 20
1.660009763620664
 30
0.0
 70
0
  0
VERTEX
  5
556
  8
0
 10
13.929743744439303
 20
1.6285506726314498
 30
0.0
 70
0
  0
VERTEX
  5
557
  8
0
 10
13.998434645297735
 20
1.5989047982154183
 30
0.0
 70
0
  0
VERTEX
  5
558
  8
0
 10
14.068489873958764
 20
1.5710841952685222
 30
0.0
 70
0
  0
VERTEX
  5
559
  8
0
 10
14.139901393825093
 20
1.5451009186867033
 30
0.0
 70
0
  0
VERTEX
  5
55A
  8
0
 10
14.21266116829943
 20
1.5209670233659054
 30
0.0
 70
0
  0
VERTEX
  5
55B
  8
0
 10
14.286761160784483
 20
1.498694564202074
 30
0.0
 70
0
  0
VERTEX
  5
55C
  8
0
 10
14.36219333468294
 20
1.4782955960911544
 30
0.0
 70
0
  0
VERTEX
  5
55D
  8
0
 10
14.438949653397515
 20
1.4597821739290922
 30
0.0
 70
0
  0
VERTEX
  5
55E
  8
0
 10
14.51702208033091
 20
1.443166352611831
 30
0.0
 70
0
  0
VERTEX
  5
55F
  8
0
 10
14.596402578885828
 20
1.4284601870353182
 30
0.0
 70
0
  0
VERTEX
  5
560
  8
0
 10
14.677083112464977
 20
1.4156757320954956
 30
0.0
 70
0
  0
VERTEX
  5
561
  8
0
 10
14.75905564447105
 20
1.4048250426883087
 30
0.0
 70
0
  0
VERTEX
  5
562
  8
0
 10
14.842312138306756
 20
1.3959201737097047
 30
0.0
 70
0
  0
VERTEX
  5
563
  8
0
 10
14.9268445573748
 20
1.3889731800556273
 30
0.0
 70
0
  0
VERTEX
  5
564
  8
0
 10
15.012644865077888
 20
1.3839961166220203
 30
0.0
 70
0
  0
VERTEX
  5
565
  8
0
 10
15.099705024818714
 20
1.381001038304829
 30
0.0
 70
0
  0
VERTEX
  5
566
  8
0
 10
15.188017
 20
1.3800000000000008
 30
0.0
 70
0
  0
SEQEND
  5
331
  8
0
  0
POLYLINE
  5
567
  8
0
 66
1
 10
0.0
 20
0.0
 30
0.0
 70
1
  0
VERTEX
  5
569
  8
0
 10
21.308007
 20
2.1240000000000006
 30
0.0
 70
0
  0
VERTEX
  5
56A
  8
0
 10
21.304321698404262
 20
2.2069378059439746
 30
0.0
 70
0
  0
VERTEX
  5
56B
  8
0
 10
21.293342568122537
 20
2.287929681573445
 30
0.0
 70
0
  0
VERTEX
  5
56C
  8
0
 10
21.27518477091306
 20
2.3663767857455866
 30
0.0
 70
0
  0
VERTEX
  5
56D
  8
0
 10
21.24996346853407
 20
2.441680277317573
 30
0.0
 70
0
  0
VERTEX
  5
56E
  8
0
 10
21.2177938227438
 20
2.513241315146578
 30
0.0
 70
0
  0
VERTEX
  5
56F
  8
0
 10
21.178790995300485
 20
2.580461058089776
 30
0.0
 70
0
  0
VERTEX
  5
570
  8
0
 10
21.133070147962364
 20
2.6427406650043395
 30
0.0
 70
0
  0
VERTEX
  5
571
  8
0
 10
21.080746442487673
 20
2.6994812947474447
 30
0.0
 70
0
  0
VERTEX
  5
572
  8
0
 10
21.021935040634645
 20
2.7500841061762635
 30
0.0
 70
0
  0
VERTEX
  5
573
  8
0
 10
20.956751104161516
 20
2.7939502581479694
 30
0.0
 70
0
  0
VERTEX
  5
574
  8
0
 10
20.885309794826522
 20
2.8304809095197374
 30
0.0
 70
0
  0
VERTEX
  5
575
  8
0
 10
20.8077262743879
 20
2.859077219148743
 30
0.0
 70
0
  0
VERTEX
  5
576
  8
0
 10
20.724115704603886
 20
2.8791403458921554
 30
0.0
 70
0
  0
VERTEX
  5
577
  8
0
 10
20.634593247232715
 20
2.890071448607154
 30
0.0
 70
0
  0
VERTEX
  5
578
  8
0
 10
20.541261448996334
 20
2.8912804270103347
 30
0.0
 70
0
  0
VERTEX
  5
579
  8
0
 10
20.452871820630193
 20
2.8826327384173833
 30
0.0
 70
0
  0
VERTEX
  5
57A
  8
0
 10
20.36967443037164
 20
2.8646597416882145
 30
0.0
 70
0
  0
VERTEX
  5
57B
  8
0
 10
20.291888257723777
 20
2.8379453821644507
 30
0.0
 70
0
  0
VERTEX
  5
57C
  8
0
 10
20.219732282189717
 20
2.803073605187718
 30
0.0
 70
0
  0
VERTEX
  5
57D
  8
0
 10
20.15342548327257
 20
2.760628356099639
 30
0.0
 70
0
  0
VERTEX
  5
57E
  8
0
 10
20.093186840475447
 20
2.7111935802418383
 30
0.0
 70
0
  0
VERTEX
  5
57F
  8
0
 10
20.03923533330145
 20
2.6553532229559416
 30
0.0
 70
0
  0
VERTEX
  5
580
  8
0
 10
19.991789941253693
 20
2.5936912295835697
 30
0.0
 70
0
  0
VERTEX
  5
581
  8
0
 10
19.951069643835282
 20
2.5267915454663505
 30
0.0
 70
0
  0
VERTEX
  5
582
  8
0
 10
19.917293420549328
 20
2.455238115945905
 30
0.0
 70
0
  0
VERTEX
  5
583
  8
0
 10
19.890680250898942
 20
2.3796148863638606
 30
0.0
 70
0
  0
VERTEX
  5
584
  8
0
 10
19.871449114387232
 20
2.3005058020618367
 30
0.0
 70
0
  0
VERTEX
  5
585
  8
0
 10
19.859818990517304
 20
2.218494808381463
 30
0.0
 70
0
  0
VERTEX
  5
586
  8
0
 10
19.856008622442594
 20
2.1341157043050742
 30
0.0
 70
0
  0
VERTEX
  5
587
  8
0
 10
19.85967570823394
 20
2.048281626082737
 30
0.0
 70
0
  0
VERTEX
  5
588
  8
0
 10
19.870410472381256
 20
1.9662018169643094
 30
0.0
 70
0
  0
VERTEX
  5
589
  8
0
 10
19.88826577792145
 20
1.88829918124509
 30
0.0
 70
0
  0
VERTEX
  5
58A
  8
0
 10
19.913294487891445
 20
1.8149966232203738
 30
0.0
 70
0
  0
VERTEX
  5
58B
  8
0
 10
19.945549465328142
 20
1.7467170471854594
 30
0.0
 70
0
  0
VERTEX
  5
58C
  8
0
 10
19.985083573268458
 20
1.6838833574356418
 30
0.0
 70
0
  0
VERTEX
  5
58D
  8
0
 10
20.031949674749303
 20
1.6269184582662177
 30
0.0
 70
0
  0
VERTEX
  5
58E
  8
0
 10
20.08620063280759
 20
1.5762452539724858
 30
0.0
 70
0
  0
VERTEX
  5
58F
  8
0
 10
20.14788931048023
 20
1.532286648849741
 30
0.0
 70
0
  0
VERTEX
  5
590
  8
0
 10
20.21706857080414
 20
1.495465547193282
 30
0.0
 70
0
  0
VERTEX
  5
591
  8
0
 10
20.29379127681623
 20
1.4662048532984038
 30
0.0
 70
0
  0
VERTEX
  5
592
  8
0
 10
20.378110291553405
 20
1.4449274714604048
 30
0.0
 70
0
  0
VERTEX
  5
593
  8
0
 10
20.470078478052585
 20
1.4320563059745801
 30
0.0
 70
0
  0
VERTEX
  5
594
  8
0
 10
20.569690058636684
 20
1.428015176264429
 30
0.0
 70
0
  0
VERTEX
  5
595
  8
0
 10
20.668475641311638
 20
1.4333651541368972
 30
0.0
 70
0
  0
VERTEX
  5
596
  8
0
 10
20.760591680285508
 20
1.4479257186513532
 30
0.0
 70
0
  0
VERTEX
  5
597
  8
0
 10
20.845934459241562
 20
1.4711005009866405
 30
0.0
 70
0
  0
VERTEX
  5
598
  8
0
 10
20.92440026186308
 20
1.5022931323216078
 30
0.0
 70
0
  0
VERTEX
  5
599
  8
0
 10
20.995885371833346
 20
1.5409072438351021
 30
0.0
 70
0
  0
VERTEX
  5
59A
  8
0
 10
21.06028607283563
 20
1.5863464667059706
 30
0.0
 70
0
  0
VERTEX
  5
59B
  8
0
 10
21.117498648553212
 20
1.63801443211306
 30
0.0
 70
0
  0
VERTEX
  5
59C
  8
0
 10
21.167419382669372
 20
1.695314771235216
 30
0.0
 70
0
  0
VERTEX
  5
59D
  8
0
 10
21.209944558867388
 20
1.7576511152512886
 30
0.0
 70
0
  0
VERTEX
  5
59E
  8
0
 10
21.244970460830533
 20
1.8244270953401216
 30
0.0
 70
0
  0
VERTEX
  5
59F
  8
0
 10
21.27239337224209
 20
1.8950463426805637
 30
0.0
 70
0
  0
VERTEX
  5
5A0
  8
0
 10
21.292109576785332
 20
1.9689124884514602
 30
0.0
 70
0
  0
VERTEX
  5
5A1
  8
0
 10
21.30401535814354
 20
2.0454291638316597
 30
0.0
 70
0
  0
VERTEX
  5
5A2
  8
0
 10
21.308006999999993
 20
2.1240000000000094
 30
0.0
 70
0
  0
SEQEND
  5
568
  8
0
  0
POLYLINE
  5
5A3
  8
0
 66
1
 10
0.0
 20
0.0
 30
0.0
 70
1
  0
VERTEX
  5
5A5
  8
0
 10
23.432017000000002
 20
1.4160000000000004
 30
0.0
 70
0
  0
VERTEX
  5
5A6
  8
0
 10
23.518478097686323
 20
1.4173333013665879
 30
0.0
 70
0
  0
VERTEX
  5
5A7
  8
0
 10
23.603684571664008
 20
1.4213022772345383
 30
0.0
 70
0
  0
VERTEX
  5
5A8
  8
0
 10
23.68764182963003
 20
1.42786053525613
 30
0.0
 70
0
  0
VERTEX
  5
5A9
  8
0
 10
23.770355279281368
 20
1.4369616830836431
 30
0.0
 70
0
  0
VERTEX
  5
5AA
  8
0
 10
23.851830328314986
 20
1.4485593283693579
 30
0.0
 70
0
  0
VERTEX
  5
5AB
  8
0
 10
23.932072384427865
 20
1.4626070787655525
 30
0.0
 70
0
  0
VERTEX
  5
5AC
  8
0
 10
24.011086855316975
 20
1.4790585419245055
 30
0.0
 70
0
  0
VERTEX
  5
5AD
  8
0
 10
24.08887914867929
 20
1.4978673254984969
 30
0.0
 70
0
  0
VERTEX
  5
5AE
  8
0
 10
24.165454672211787
 20
1.5189870371398069
 30
0.0
 70
0
  0
VERTEX
  5
5AF
  8
0
 10
24.24081883361143
 20
1.5423712845007156
 30
0.0
 70
0
  0
VERTEX
  5
5B0
  8
0
 10
24.314977040575208
 20
1.5679736752335014
 30
0.0
 70
0
  0
VERTEX
  5
5B1
  8
0
 10
24.38793470080008
 20
1.5957478169904427
 30
0.0
 70
0
  0
VERTEX
  5
5B2
  8
0
 10
24.459697221983028
 20
1.6256473174238213
 30
0.0
 70
0
  0
VERTEX
  5
5B3
  8
0
 10
24.53027001182102
 20
1.6576257841859139
 30
0.0
 70
0
  0
VERTEX
  5
5B4
  8
0
 10
24.599658478011033
 20
1.6916368249290024
 30
0.0
 70
0
  0
VERTEX
  5
5B5
  8
0
 10
24.667868028250044
 20
1.727634047305365
 30
0.0
 70
0
  0
VERTEX
  5
5B6
  8
0
 10
24.734904070235018
 20
1.7655710589672804
 30
0.0
 70
0
  0
VERTEX
  5
5B7
  8
0
 10
24.800772011662936
 20
1.8054014675670302
 30
0.0
 70
0
  0
VERTEX
  5
5B8
  8
0
 10
24.86547726023077
 20
1.8470788807568912
 30
0.0
 70
0
  0
VERTEX
  5
5B9
  8
0
 10
24.929025223635488
 20
1.8905569061891452
 30
0.0
 70
0
  0
VERTEX
  5
5BA
  8
0
 10
24.99142130957407
 20
1.9357891515160706
 30
0.0
 70
0
  0
VERTEX
  5
5BB
  8
0
 10
25.052670925743488
 20
1.9827292243899475
 30
0.0
 70
0
  0
VERTEX
  5
5BC
  8
0
 10
25.112779479840714
 20
2.0313307324630525
 30
0.0
 70
0
  0
VERTEX
  5
5BD
  8
0
 10
25.171752379562722
 20
2.0815472833876694
 30
0.0
 70
0
  0
VERTEX
  5
5BE
  8
0
 10
25.229595032606486
 20
2.1333324848160746
 30
0.0
 70
0
  0
VERTEX
  5
5BF
  8
0
 10
25.28631284666898
 20
2.1866399444005484
 30
0.0
 70
0
  0
VERTEX
  5
5C0
  8
0
 10
25.34191122944718
 20
2.241423269793369
 30
0.0
 70
0
  0
VERTEX
  5
5C1
  8
0
 10
25.396395588638054
 20
2.2976360686468187
 30
0.0
 70
0
  0
VERTEX
  5
5C2
  8
0
 10
25.44977133193858
 20
2.3552319486131736
 30
0.0
 70
0
  0
VERTEX
  5
5C3
  8
0
 10
25.502043867045728
 20
2.414164517344716
 30
0.0
 70
0
  0
VERTEX
  5
5C4
  8
0
 10
25.553218601656475
 20
2.474387382493724
 30
0.0
 70
0
  0
VERTEX
  5
5C5
  8
0
 10
25.603300943467794
 20
2.535854151712476
 30
0.0
 70
0
  0
VERTEX
  5
5C6
  8
0
 10
25.65229630017666
 20
2.598518432653254
 30
0.0
 70
0
  0
VERTEX
  5
5C7
  8
0
 10
25.700210079480037
 20
2.6623338329683346
 30
0.0
 70
0
  0
VERTEX
  5
5C8
  8
0
 10
25.74704768907491
 20
2.7272539603099997
 30
0.0
 70
0
  0
VERTEX
  5
5C9
  8
0
 10
25.79281453665825
 20
2.7932324223305276
 30
0.0
 70
0
  0
VERTEX
  5
5CA
  8
0
 10
25.837516029927023
 20
2.8602228266821967
 30
0.0
 70
0
  0
VERTEX
  5
5CB
  8
0
 10
25.881157576578214
 20
2.9281787810172872
 30
0.0
 70
0
  0
VERTEX
  5
5CC
  8
0
 10
25.92374458430879
 20
2.997053892988081
 30
0.0
 70
0
  0
VERTEX
  5
5CD
  8
0
 10
25.965282460815722
 20
3.066801770246853
 30
0.0
 70
0
  0
VERTEX
  5
5CE
  8
0
 10
26.00577661379599
 20
3.1373760204458865
 30
0.0
 70
0
  0
VERTEX
  5
5CF
  8
0
 10
26.045232450946568
 20
3.2087302512374585
 30
0.0
 70
0
  0
VERTEX
  5
5D0
  8
0
 10
26.08365537996442
 20
3.280818070273849
 30
0.0
 70
0
  0
VERTEX
  5
5D1
  8
0
 10
26.121050808546528
 20
3.353593085207338
 30
0.0
 70
0
  0
VERTEX
  5
5D2
  8
0
 10
26.157424144389864
 20
3.427008903690206
 30
0.0
 70
0
  0
VERTEX
  5
5D3
  8
0
 10
26.192780795191403
 20
3.5010191333747276
 30
0.0
 70
0
  0
VERTEX
  5
5D4
  8
0
 10
26.227126168648113
 20
3.57557738191319
 30
0.0
 70
0
  0
VERTEX
  5
5D5
  8
0
 10
26.260465672456974
 20
3.6506372569578662
 30
0.0
 70
0
  0
VERTEX
  5
5D6
  8
0
 10
26.292804714314954
 20
3.7261523661610365
 30
0.0
 70
0
  0
VERTEX
  5
5D7
  8
0
 10
26.324148701919032
 20
3.8020763171749827
 30
0.0
 70
0
  0
VERTEX
  5
5D8
  8
0
 10
26.354503042966176
 20
3.8783627176519833
 30
0.0
 70
0
  0
VERTEX
  5
5D9
  8
0
 10
26.383873145153366
 20
3.9549651752443165
 30
0.0
 70
0
  0
VERTEX
  5
5DA
  8
0
 10
26.412264416177567
 20
4.031837297604264
 30
0.0
 70
0
  0
VERTEX
  5
5DB
  8
0
 10
26.43968226373576
 20
4.108932692384105
 30
0.0
 70
0
  0
VERTEX
  5
5DC
  8
0
 10
26.46613209552492
 20
4.186204967236115
 30
0.0
 70
0
  0
VERTEX
  5
5DD
  8
0
 10
26.491619319242012
 20
4.263607729812579
 30
0.0
 70
0
  0
VERTEX
  5
5DE
  8
0
 10
26.516149342584015
 20
4.341094587765772
 30
0.0
 70
0
  0
VERTEX
  5
5DF
  8
0
 10
26.5397275732479
 20
4.418619148747975
 30
0.0
 70
0
  0
VERTEX
  5
5E0
  8
0
 10
26.562359418930644
 20
4.4961350204114705
 30
0.0
 70
0
  0
VERTEX
  5
5E1
  8
0
 10
26.58405028732922
 20
4.573595810408532
 30
0.0
 70
0
  0
VERTEX
  5
5E2
  8
0
 10
26.6048055861406
 20
4.650955126391443
 30
0.0
 70
0
  0
VERTEX
  5
5E3
  8
0
 10
26.624630723061756
 20
4.728166576012482
 30
0.0
 70
0
  0
VERTEX
  5
5E4
  8
0
 10
26.643531105789663
 20
4.805183766923927
 30
0.0
 70
0
  0
VERTEX
  5
5E5
  8
0
 10
26.709785045487475
 20
4.8248275374171
 30
0.0
 70
0
  0
VERTEX
  5
5E6
  8
0
 10
26.7918292330779
 20
4.827192662919755
 30
0.0
 70
0
  0
VERTEX
  5
5E7
  8
0
 10
26.874122909244686
 20
4.830998126438891
 30
0.0
 70
0
  0
VERTEX
  5
5E8
  8
0
 10
26.956618052379472
 20
4.83623732182733
 30
0.0
 70
0
  0
VERTEX
  5
5E9
  8
0
 10
27.039266640873908
 20
4.842903642937891
 30
0.0
 70
0
  0
VERTEX
  5
5EA
  8
0
 10
27.122020653119645
 20
4.850990483623395
 30
0.0
 70
0
  0
VERTEX
  5
5EB
  8
0
 10
27.204832067508327
 20
4.860491237736657
 30
0.0
 70
0
  0
VERTEX
  5
5EC
  8
0
 10
27.287652862431603
 20
4.8713992991305
 30
0.0
 70
0
  0
VERTEX
  5
5ED
  8
0
 10
27.370435016281117
 20
4.883708061657742
 30
0.0
 70
0
  0
VERTEX
  5
5EE
  8
0
 10
27.453130507448524
 20
4.897410919171202
 30
0.0
 70
0
  0
VERTEX
  5
5EF
  8
0
 10
27.535691314325465
 20
4.912501265523698
 30
0.0
 70
0
  0
VERTEX
  5
5F0
  8
0
 10
27.618069415303587
 20
4.928972494568052
 30
0.0
 70
0
  0
VERTEX
  5
5F1
  8
0
 10
27.700216788774544
 20
4.946818000157082
 30
0.0
 70
0
  0
VERTEX
  5
5F2
  8
0
 10
27.78208541312998
 20
4.966031176143607
 30
0.0
 70
0
  0
VERTEX
  5
5F3
  8
0
 10
27.86362726676154
 20
4.986605416380446
 30
0.0
 70
0
  0
VERTEX
  5
5F4
  8
0
 10
27.944794328060876
 20
5.008534114720419
 30
0.0
 70
0
  0
VERTEX
  5
5F5
  8
0
 10
28.025538575419635
 20
5.031810665016344
 30
0.0
 70
0
  0
VERTEX
  5
5F6
  8
0
 10
28.10581198722946
 20
5.056428461121042
 30
0.0
 70
0
  0
VERTEX
  5
5F7
  8
0
 10
28.185566541882004
 20
5.082380896887331
 30
0.0
 70
0
  0
VERTEX
  5
5F8
  8
0
 10
28.26475421776891
 20
5.109661366168032
 30
0.0
 70
0
  0
VERTEX
  5
5F9
  8
0
 10
28.34332699328183
 20
5.138263262815961
 30
0.0
 70
0
  0
VERTEX
  5
5FA
  8
0
 10
28.42123684681241
 20
5.16817998068394
 30
0.0
 70
0
  0
VERTEX
  5
5FB
  8
0
 10
28.498435756752293
 20
5.199404913624788
 30
0.0
 70
0
  0
VERTEX
  5
5FC
  8
0
 10
28.574875701493134
 20
5.231931455491322
 30
0.0
 70
0
  0
VERTEX
  5
5FD
  8
0
 10
28.650508659426578
 20
5.265753000136364
 30
0.0
 70
0
  0
VERTEX
  5
5FE
  8
0
 10
28.72528660894427
 20
5.300862941412731
 30
0.0
 70
0
  0
VERTEX
  5
5FF
  8
0
 10
28.79916152843786
 20
5.337254673173243
 30
0.0
 70
0
  0
VERTEX
  5
600
  8
0
 10
28.872085396298992
 20
5.37492158927072
 30
0.0
 70
0
  0
VERTEX
  5
601
  8
0
 10
28.94401019091932
 20
5.413857083557982
 30
0.0
 70
0
  0
VERTEX
  5
602
  8
0
 10
29.01488789069049
 20
5.4540545498878465
 30
0.0
 70
0
  0
VERTEX
  5
603
  8
0
 10
29.08467047400414
 20
5.495507382113132
 30
0.0
 70
0
  0
VERTEX
  5
604
  8
0
 10
29.15330991925193
 20
5.538208974086659
 30
0.0
 70
0
  0
VERTEX
  5
605
  8
0
 10
29.220758204825504
 20
5.582152719661249
 30
0.0
 70
0
  0
VERTEX
  5
606
  8
0
 10
29.28696730911651
 20
5.627332012689717
 30
0.0
 70
0
  0
VERTEX
  5
607
  8
0
 10
29.35188921051659
 20
5.6737402470248846
 30
0.0
 70
0
  0
VERTEX
  5
608
  8
0
 10
29.415475887417397
 20
5.7213708165195705
 30
0.0
 70
0
  0
VERTEX
  5
609
  8
0
 10
29.477679318210576
 20
5.770217115026595
 30
0.0
 70
0
  0
VERTEX
  5
60A
  8
0
 10
29.538451481287776
 20
5.820272536398777
 30
0.0
 70
0
  0
VERTEX
  5
60B
  8
0
 10
29.597744355040646
 20
5.871530474488933
 30
0.0
 70
0
  0
VERTEX
  5
60C
  8
0
 10
29.65550991786083
 20
5.923984323149886
 30
0.0
 70
0
  0
VERTEX
  5
60D
  8
0
 10
29.711700148139975
 20
5.977627476234453
 30
0.0
 70
0
  0
VERTEX
  5
60E
  8
0
 10
29.766267024269734
 20
6.032453327595455
 30
0.0
 70
0
  0
VERTEX
  5
60F
  8
0
 10
29.81916252464175
 20
6.088455271085708
 30
0.0
 70
0
  0
VERTEX
  5
610
  8
0
 10
29.870338627647673
 20
6.1456267005580365
 30
0.0
 70
0
  0
VERTEX
  5
611
  8
0
 10
29.91974731167915
 20
6.203961009865255
 30
0.0
 70
0
  0
VERTEX
  5
612
  8
0
 10
29.96734055512783
 20
6.263451592860184
 30
0.0
 70
0
  0
VERTEX
  5
613
  8
0
 10
30.013070336385354
 20
6.324091843395644
 30
0.0
 70
0
  0
VERTEX
  5
614
  8
0
 10
30.05688863384338
 20
6.385875155324451
 30
0.0
 70
0
  0
VERTEX
  5
615
  8
0
 10
30.098747425893546
 20
6.448794922499429
 30
0.0
 70
0
  0
VERTEX
  5
616
  8
0
 10
30.138598690927502
 20
6.512844538773395
 30
0.0
 70
0
  0
VERTEX
  5
617
  8
0
 10
30.1763944073369
 20
6.578017397999169
 30
0.0
 70
0
  0
VERTEX
  5
618
  8
0
 10
30.212086553513384
 20
6.644306894029567
 30
0.0
 70
0
  0
VERTEX
  5
619
  8
0
 10
30.245627107848602
 20
6.711706420717411
 30
0.0
 70
0
  0
VERTEX
  5
61A
  8
0
 10
30.276968048734204
 20
6.780209371915522
 30
0.0
 70
0
  0
VERTEX
  5
61B
  8
0
 10
30.30606135456183
 20
6.849809141476715
 30
0.0
 70
0
  0
VERTEX
  5
61C
  8
0
 10
30.332859003723136
 20
6.92049912325381
 30
0.0
 70
0
  0
VERTEX
  5
61D
  8
0
 10
30.35731297460977
 20
6.992272711099629
 30
0.0
 70
0
  0
VERTEX
  5
61E
  8
0
 10
30.37937524561337
 20
7.065123298866991
 30
0.0
 70
0
  0
VERTEX
  5
61F
  8
0
 10
30.398997795125595
 20
7.139044280408713
 30
0.0
 70
0
  0
VERTEX
  5
620
  8
0
 10
30.416132601538084
 20
7.214029049577617
 30
0.0
 70
0
  0
VERTEX
  5
621
  8
0
 10
30.43073164324249
 20
7.2900710002265185
 30
0.0
 70
0
  0
VERTEX
  5
622
  8
0
 10
30.442746898630453
 20
7.367163526208239
 30
0.0
 70
0
  0
VERTEX
  5
623
  8
0
 10
30.452130346093632
 20
7.445300021375598
 30
0.0
 70
0
  0
VERTEX
  5
624
  8
0
 10
30.458833964023665
 20
7.524473879581414
 30
0.0
 70
0
  0
VERTEX
  5
625
  8
0
 10
30.462809730812204
 20
7.604678494678508
 30
0.0
 70
0
  0
VERTEX
  5
626
  8
0
 10
30.464008508054718
 20
7.686344567358843
 30
0.0
 70
0
  0
VERTEX
  5
627
  8
0
 10
30.46215792124268
 20
7.7726500507485525
 30
0.0
 70
0
  0
VERTEX
  5
628
  8
0
 10
30.457106266659846
 20
7.856286061056488
 30
0.0
 70
0
  0
VERTEX
  5
629
  8
0
 10
30.44889912234855
 20
7.937288792610384
 30
0.0
 70
0
  0
VERTEX
  5
62A
  8
0
 10
30.437582066351126
 20
8.015694439737977
 30
0.0
 70
0
  0
VERTEX
  5
62B
  8
0
 10
30.42320067670991
 20
8.091539196767009
 30
0.0
 70
0
  0
VERTEX
  5
62C
  8
0
 10
30.405800531467236
 20
8.164859258025214
 30
0.0
 70
0
  0
VERTEX
  5
62D
  8
0
 10
30.385427208665444
 20
8.235690817840325
 30
0.0
 70
0
  0
VERTEX
  5
62E
  8
0
 10
30.36212628634686
 20
8.304070070540082
 30
0.0
 70
0
  0
VERTEX
  5
62F
  8
0
 10
30.335943342553826
 20
8.370033210452222
 30
0.0
 70
0
  0
VERTEX
  5
630
  8
0
 10
30.306923955328674
 20
8.43361643190448
 30
0.0
 70
0
  0
VERTEX
  5
631
  8
0
 10
30.275113702713742
 20
8.494855929224594
 30
0.0
 70
0
  0
VERTEX
  5
632
  8
0
 10
30.240558162751363
 20
8.5537878967403
 30
0.0
 70
0
  0
VERTEX
  5
633
  8
0
 10
30.203302913483874
 20
8.610448528779335
 30
0.0
 70
0
  0
VERTEX
  5
634
  8
0
 10
30.163393532953606
 20
8.664874019669433
 30
0.0
 70
0
  0
VERTEX
  5
635
  8
0
 10
30.120875599202897
 20
8.717100563738338
 30
0.0
 70
0
  0
VERTEX
  5
636
  8
0
 10
30.075794690274083
 20
8.767164355313778
 30
0.0
 70
0
  0
VERTEX
  5
637
  8
0
 10
30.028196384209497
 20
8.815101588723495
 30
0.0
 70
0
  0
VERTEX
  5
638
  8
0
 10
29.978126259051475
 20
8.860948458295224
 30
0.0
 70
0
  0
VERTEX
  5
639
  8
0
 10
29.92562989284235
 20
8.904741158356703
 30
0.0
 70
0
  0
VERTEX
  5
63A
  8
0
 10
29.870752863624457
 20
8.946515883235666
 30
0.0
 70
0
  0
VERTEX
  5
63B
  8
0
 10
29.81354074944014
 20
8.986308827259851
 30
0.0
 70
0
  0
VERTEX
  5
63C
  8
0
 10
29.75403912833172
 20
9.024156184756993
 30
0.0
 70
0
  0
VERTEX
  5
63D
  8
0
 10
29.69229357834154
 20
9.060094150054834
 30
0.0
 70
0
  0
VERTEX
  5
63E
  8
0
 10
29.628349677511938
 20
9.094158917481106
 30
0.0
 70
0
  0
VERTEX
  5
63F
  8
0
 10
29.562253003885242
 20
9.126386681363545
 30
0.0
 70
0
  0
VERTEX
  5
640
  8
0
 10
29.49404913550379
 20
9.156813636029892
 30
0.0
 70
0
  0
VERTEX
  5
641
  8
0
 10
29.42378365040992
 20
9.185475975807881
 30
0.0
 70
0
  0
VERTEX
  5
642
  8
0
 10
29.35150212664596
 20
9.212409895025246
 30
0.0
 70
0
  0
VERTEX
  5
643
  8
0
 10
29.277250142254253
 20
9.23765158800973
 30
0.0
 70
0
  0
VERTEX
  5
644
  8
0
 10
29.20107327527713
 20
9.261237249089064
 30
0.0
 70
0
  0
VERTEX
  5
645
  8
0
 10
29.123017103756926
 20
9.283203072590986
 30
0.0
 70
0
  0
VERTEX
  5
646
  8
0
 10
29.043127205735974
 20
9.303585252843236
 30
0.0
 70
0
  0
VERTEX
  5
647
  8
0
 10
28.961449159256613
 20
9.322419984173546
 30
0.0
 70
0
  0
VERTEX
  5
648
  8
0
 10
28.87802854236118
 20
9.339743460909656
 30
0.0
 70
0
  0
VERTEX
  5
649
  8
0
 10
28.792910933092003
 20
9.3555918773793
 30
0.0
 70
0
  0
VERTEX
  5
64A
  8
0
 10
28.70614190949142
 20
9.370001427910218
 30
0.0
 70
0
  0
VERTEX
  5
64B
  8
0
 10
28.61776704960177
 20
9.383008306830144
 30
0.0
 70
0
  0
VERTEX
  5
64C
  8
0
 10
28.527831931465386
 20
9.394648708466814
 30
0.0
 70
0
  0
VERTEX
  5
64D
  8
0
 10
28.436382133124596
 20
9.404958827147968
 30
0.0
 70
0
  0
VERTEX
  5
64E
  8
0
 10
28.343463232621744
 20
9.41397485720134
 30
0.0
 70
0
  0
VERTEX
  5
64F
  8
0
 10
28.249120807999166
 20
9.421732992954668
 30
0.0
 70
0
  0
VERTEX
  5
650
  8
0
 10
28.15340043729919
 20
9.428269428735689
 30
0.0
 70
0
  0
VERTEX
  5
651
  8
0
 10
28.056347698564153
 20
9.433620358872137
 30
0.0
 70
0
  0
VERTEX
  5
652
  8
0
 10
27.95800816983639
 20
9.437821977691751
 30
0.0
 70
0
  0
VERTEX
  5
653
  8
0
 10
27.85842742915824
 20
9.440910479522266
 30
0.0
 70
0
  0
VERTEX
  5
654
  8
0
 10
27.757651054572033
 20
9.44292205869142
 30
0.0
 70
0
  0
VERTEX
  5
655
  8
0
 10
27.655724624120108
 20
9.443892909526951
 30
0.0
 70
0
  0
VERTEX
  5
656
  8
0
 10
27.616713077796692
 20
9.486031042683992
 30
0.0
 70
0
  0
VERTEX
  5
657
  8
0
 10
27.632947649462288
 20
9.564498139067704
 30
0.0
 70
0
  0
VERTEX
  5
658
  8
0
 10
27.649182221127884
 20
9.642965235451415
 30
0.0
 70
0
  0
VERTEX
  5
659
  8
0
 10
27.66541679279348
 20
9.721432331835127
 30
0.0
 70
0
  0
VERTEX
  5
65A
  8
0
 10
27.673987851731148
 20
9.79735924290565
 30
0.0
 70
0
  0
VERTEX
  5
65B
  8
0
 10
27.61409873758033
 20
9.850594011039707
 30
0.0
 70
0
  0
VERTEX
  5
65C
  8
0
 10
27.550553958760386
 20
9.877656365667654
 30
0.0
 70
0
  0
VERTEX
  5
65D
  8
0
 10
27.47837024760365
 20
9.84286903498971
 30
0.0
 70
0
  0
VERTEX
  5
65E
  8
0
 10
27.406186536446913
 20
9.808081704311764
 30
0.0
 70
0
  0
VERTEX
  5
65F
  8
0
 10
27.334002825290177
 20
9.773294373633817
 30
0.0
 70
0
  0
VERTEX
  5
660
  8
0
 10
27.261819114133438
 20
9.738507042955874
 30
0.0
 70
0
  0
VERTEX
  5
661
  8
0
 10
27.189635402976702
 20
9.703719712277927
 30
0.0
 70
0
  0
VERTEX
  5
662
  8
0
 10
27.117451691819966
 20
9.668932381599982
 30
0.0
 70
0
  0
VERTEX
  5
663
  8
0
 10
27.04526798066323
 20
9.634145050922037
 30
0.0
 70
0
  0
VERTEX
  5
664
  8
0
 10
26.973084269506494
 20
9.599357720244091
 30
0.0
 70
0
  0
VERTEX
  5
665
  8
0
 10
26.900900558349758
 20
9.564570389566146
 30
0.0
 70
0
  0
VERTEX
  5
666
  8
0
 10
26.828716847193018
 20
9.5297830588882
 30
0.0
 70
0
  0
VERTEX
  5
667
  8
0
 10
26.756533136036282
 20
9.494995728210254
 30
0.0
 70
0
  0
VERTEX
  5
668
  8
0
 10
26.684349424879546
 20
9.460208397532309
 30
0.0
 70
0
  0
VERTEX
  5
669
  8
0
 10
26.61216571372281
 20
9.425421066854364
 30
0.0
 70
0
  0
VERTEX
  5
66A
  8
0
 10
26.5378117436748
 20
9.402701210058868
 30
0.0
 70
0
  0
VERTEX
  5
66B
  8
0
 10
26.460553100726436
 20
9.391015428974917
 30
0.0
 70
0
  0
VERTEX
  5
66C
  8
0
 10
26.38239462529049
 20
9.377911092379628
 30
0.0
 70
0
  0
VERTEX
  5
66D
  8
0
 10
26.303421261220972
 20
9.363401206030552
 30
0.0
 70
0
  0
VERTEX
  5
66E
  8
0
 10
26.22371795237187
 20
9.347498775685237
 30
0.0
 70
0
  0
VERTEX
  5
66F
  8
0
 10
26.14336964259718
 20
9.330216807101234
 30
0.0
 70
0
  0
VERTEX
  5
670
  8
0
 10
26.062461275750895
 20
9.311568306036092
 30
0.0
 70
0
  0
VERTEX
  5
671
  8
0
 10
25.981077795687018
 20
9.291566278247359
 30
0.0
 70
0
  0
VERTEX
  5
672
  8
0
 10
25.899304146259535
 20
9.270223729492589
 30
0.0
 70
0
  0
VERTEX
  5
673
  8
0
 10
25.81722527132245
 20
9.247553665529328
 30
0.0
 70
0
  0
VERTEX
  5
674
  8
0
 10
25.73492611472975
 20
9.223569092115124
 30
0.0
 70
0
  0
VERTEX
  5
675
  8
0
 10
25.65249162033544
 20
9.198283015007531
 30
0.0
 70
0
  0
VERTEX
  5
676
  8
0
 10
25.570006731993505
 20
9.171708439964096
 30
0.0
 70
0
  0
VERTEX
  5
677
  8
0
 10
25.487556393557945
 20
9.143858372742368
 30
0.0
 70
0
  0
VERTEX
  5
678
  8
0
 10
25.405225548882758
 20
9.114745819099898
 30
0.0
 70
0
  0
VERTEX
  5
679
  8
0
 10
25.323099141821938
 20
9.084383784794234
 30
0.0
 70
0
  0
VERTEX
  5
67A
  8
0
 10
25.24126211622948
 20
9.052785275582927
 30
0.0
 70
0
  0
VERTEX
  5
67B
  8
0
 10
25.159799415959377
 20
9.019963297223526
 30
0.0
 70
0
  0
VERTEX
  5
67C
  8
0
 10
25.07879598486563
 20
8.985930855473583
 30
0.0
 70
0
  0
VERTEX
  5
67D
  8
0
 10
24.998336766802225
 20
8.950700956090643
 30
0.0
 70
0
  0
VERTEX
  5
67E
  8
0
 10
24.918506705623166
 20
8.914286604832256
 30
0.0
 70
0
  0
VERTEX
  5
67F
  8
0
 10
24.839390745182445
 20
8.876700807455974
 30
0.0
 70
0
  0
VERTEX
  5
680
  8
0
 10
24.761073829334062
 20
8.837956569719346
 30
0.0
 70
0
  0
VERTEX
  5
681
  8
0
 10
24.683640901932005
 20
8.798066897379922
 30
0.0
 70
0
  0
VERTEX
  5
682
  8
0
 10
24.607176906830272
 20
8.757044796195249
 30
0.0
 70
0
  0
VERTEX
  5
683
  8
0
 10
24.531766787882862
 20
8.714903271922879
 30
0.0
 70
0
  0
VERTEX
  5
684
  8
0
 10
24.457495488943763
 20
8.671655330320359
 30
0.0
 70
0
  0
VERTEX
  5
685
  8
0
 10
24.384447953866978
 20
8.627313977145242
 30
0.0
 70
0
  0
VERTEX
  5
686
  8
0
 10
24.3127091265065
 20
8.581892218155078
 30
0.0
 70
0
  0
VERTEX
  5
687
  8
0
 10
24.24236395071632
 20
8.535403059107411
 30
0.0
 70
0
  0
VERTEX
  5
688
  8
0
 10
24.17349737035044
 20
8.487859505759795
 30
0.0
 70
0
  0
VERTEX
  5
689
  8
0
 10
24.106194329262852
 20
8.439274563869777
 30
0.0
 70
0
  0
VERTEX
  5
68A
  8
0
 10
24.040539771307554
 20
8.389661239194911
 30
0.0
 70
0
  0
VERTEX
  5
68B
  8
0
 10
23.976618640338536
 20
8.339032537492741
 30
0.0
 70
0
  0
VERTEX
  5
68C
  8
0
 10
23.914515880209798
 20
8.28740146452082
 30
0.0
 70
0
  0
VERTEX
  5
68D
  8
0
 10
23.854316434775335
 20
8.234781026036698
 30
0.0
 70
0
  0
VERTEX
  5
68E
  8
0
 10
23.79610524788914
 20
8.181184227797921
 30
0.0
 70
0
  0
VERTEX
  5
68F
  8
0
 10
23.73996726340521
 20
8.126624075562042
 30
0.0
 70
0
  0
VERTEX
  5
690
  8
0
 10
23.68598742517754
 20
8.071113575086606
 30
0.0
 70
0
  0
VERTEX
  5
691
  8
0
 10
23.634250677060127
 20
8.014665732129167
 30
0.0
 70
0
  0
VERTEX
  5
692
  8
0
 10
23.584841962906964
 20
7.957293552447278
 30
0.0
 70
0
  0
VERTEX
  5
693
  8
0
 10
23.53784622657205
 20
7.89901004179848
 30
0.0
 70
0
  0
VERTEX
  5
694
  8
0
 10
23.493348411909373
 20
7.839828205940325
 30
0.0
 70
0
  0
VERTEX
  5
695
  8
0
 10
23.451433462772936
 20
7.779761050630365
 30
0.0
 70
0
  0
VERTEX
  5
696
  8
0
 10
23.41218632301673
 20
7.718821581626148
 30
0.0
 70
0
  0
VERTEX
  5
697
  8
0
 10
23.375691936494754
 20
7.657022804685224
 30
0.0
 70
0
  0
VERTEX
  5
698
  8
0
 10
23.342035247061
 20
7.594377725565142
 30
0.0
 70
0
  0
VERTEX
  5
699
  8
0
 10
23.311301198569463
 20
7.530899350023456
 30
0.0
 70
0
  0
VERTEX
  5
69A
  8
0
 10
23.283574734874144
 20
7.466600683817708
 30
0.0
 70
0
  0
VERTEX
  5
69B
  8
0
 10
23.25894079982903
 20
7.40149473270545
 30
0.0
 70
0
  0
VERTEX
  5
69C
  8
0
 10
23.237484337288123
 20
7.335594502444234
 30
0.0
 70
0
  0
VERTEX
  5
69D
  8
0
 10
23.219290291105416
 20
7.268912998791608
 30
0.0
 70
0
  0
VERTEX
  5
69E
  8
0
 10
23.204443605134905
 20
7.201463227505121
 30
0.0
 70
0
  0
VERTEX
  5
69F
  8
0
 10
23.19302922323059
 20
7.133258194342323
 30
0.0
 70
0
  0
VERTEX
  5
6A0
  8
0
 10
23.185132089246455
 20
7.064310905060767
 30
0.0
 70
0
  0
VERTEX
  5
6A1
  8
0
 10
23.180837147036502
 20
6.994634365417996
 30
0.0
 70
0
  0
VERTEX
  5
6A2
  8
0
 10
23.180532695274252
 20
6.911948116724279
 30
0.0
 70
0
  0
VERTEX
  5
6A3
  8
0
 10
23.18812282080301
 20
6.8127603730289845
 30
0.0
 70
0
  0
VERTEX
  5
6A4
  8
0
 10
23.204690682916517
 20
6.725219007346883
 30
0.0
 70
0
  0
VERTEX
  5
6A5
  8
0
 10
23.230124405724375
 20
6.648932454061576
 30
0.0
 70
0
  0
VERTEX
  5
6A6
  8
0
 10
23.264312113336178
 20
6.583509147556661
 30
0.0
 70
0
  0
VERTEX
  5
6A7
  8
0
 10
23.30714192986153
 20
6.528557522215737
 30
0.0
 70
0
  0
VERTEX
  5
6A8
  8
0
 10
23.35850197941003
 20
6.483686012422394
 30
0.0
 70
0
  0
VERTEX
  5
6A9
  8
0
 10
23.418280386091276
 20
6.448503052560236
 30
0.0
 70
0
  0
VERTEX
  5
6AA
  8
0
 10
23.48636527401487
 20
6.422617077012857
 30
0.0
 70
0
  0
VERTEX
  5
6AB
  8
0
 10
23.562644767290404
 20
6.40563652016386
 30
0.0
 70
0
  0
VERTEX
  5
6AC
  8
0
 10
23.64700699002749
 20
6.397169816396838
 30
0.0
 70
0
  0
VERTEX
  5
6AD
  8
0
 10
23.74126422221383
 20
6.397047562268703
 30
0.0
 70
0
  0
VERTEX
  5
6AE
  8
0
 10
23.831573938005047
 20
6.406428799891179
 30
0.0
 70
0
  0
VERTEX
  5
6AF
  8
0
 10
23.911076309962688
 20
6.425149828281947
 30
0.0
 70
0
  0
VERTEX
  5
6B0
  8
0
 10
23.98057460871772
 20
6.4527330270658325
 30
0.0
 70
0
  0
VERTEX
  5
6B1
  8
0
 10
24.040872104901116
 20
6.488700775867658
 30
0.0
 70
0
  0
VERTEX
  5
6B2
  8
0
 10
24.092772069143855
 20
6.532575454312253
 30
0.0
 70
0
  0
VERTEX
  5
6B3
  8
0
 10
24.13707777207691
 20
6.58387944202444
 30
0.0
 70
0
  0
VERTEX
  5
6B4
  8
0
 10
24.17459248433126
 20
6.642135118629046
 30
0.0
 70
0
  0
VERTEX
  5
6B5
  8
0
 10
24.206119476537875
 20
6.7068648637508925
 30
0.0
 70
0
  0
VERTEX
  5
6B6
  8
0
 10
24.232462019327738
 20
6.777591057014812
 30
0.0
 70
0
  0
VERTEX
  5
6B7
  8
0
 10
24.254423383331815
 20
6.853836078045626
 30
0.0
 70
0
  0
VERTEX
  5
6B8
  8
0
 10
24.272806839181087
 20
6.935122306468161
 30
0.0
 70
0
  0
VERTEX
  5
6B9
  8
0
 10
24.28841565750653
 20
7.02097212190724
 30
0.0
 70
0
  0
VERTEX
  5
6BA
  8
0
 10
24.302053108939116
 20
7.110907903987693
 30
0.0
 70
0
  0
VERTEX
  5
6BB
  8
0
 10
24.31452246410982
 20
7.204452032334341
 30
0.0
 70
0
  0
VERTEX
  5
6BC
  8
0
 10
24.327212377585674
 20
7.299315785522719
 30
0.0
 70
0
  0
VERTEX
  5
6BD
  8
0
 10
24.34276055849883
 20
7.3908112934771
 30
0.0
 70
0
  0
VERTEX
  5
6BE
  8
0
 10
24.361317866514813
 20
7.479099523463551
 30
0.0
 70
0
  0
VERTEX
  5
6BF
  8
0
 10
24.382823604657776
 20
7.564242491957393
 30
0.0
 70
0
  0
VERTEX
  5
6C0
  8
0
 10
24.40721707595187
 20
7.64630221543395
 30
0.0
 70
0
  0
VERTEX
  5
6C1
  8
0
 10
24.434437583421246
 20
7.7253407103685445
 30
0.0
 70
0
  0
VERTEX
  5
6C2
  8
0
 10
24.46442443009006
 20
7.8014199932364985
 30
0.0
 70
0
  0
VERTEX
  5
6C3
  8
0
 10
24.497116918982456
 20
7.8746020805131325
 30
0.0
 70
0
  0
VERTEX
  5
6C4
  8
0
 10
24.5324543531226
 20
7.944948988673775
 30
0.0
 70
0
  0
VERTEX
  5
6C5
  8
0
 10
24.57037603553463
 20
8.012522734193745
 30
0.0
 70
0
  0
VERTEX
  5
6C6
  8
0
 10
24.610821269242706
 20
8.077385333548367
 30
0.0
 70
0
  0
VERTEX
  5
6C7
  8
0
 10
24.65372935727098
 20
8.139598803212962
 30
0.0
 70
0
  0
VERTEX
  5
6C8
  8
0
 10
24.6990396026436
 20
8.199225159662852
 30
0.0
 70
0
  0
VERTEX
  5
6C9
  8
0
 10
24.746691308384726
 20
8.25632641937336
 30
0.0
 70
0
  0
VERTEX
  5
6CA
  8
0
 10
24.7966237775185
 20
8.310964598819812
 30
0.0
 70
0
  0
VERTEX
  5
6CB
  8
0
 10
24.848776313069084
 20
8.363201714477528
 30
0.0
 70
0
  0
VERTEX
  5
6CC
  8
0
 10
24.903088218060628
 20
8.413099782821831
 30
0.0
 70
0
  0
VERTEX
  5
6CD
  8
0
 10
24.959498795517277
 20
8.460720820328044
 30
0.0
 70
0
  0
VERTEX
  5
6CE
  8
0
 10
25.017947348463192
 20
8.506126843471488
 30
0.0
 70
0
  0
VERTEX
  5
6CF
  8
0
 10
25.078373179922522
 20
8.549379868727488
 30
0.0
 70
0
  0
VERTEX
  5
6D0
  8
0
 10
25.140715592919413
 20
8.590541912571364
 30
0.0
 70
0
  0
VERTEX
  5
6D1
  8
0
 10
25.20491389047803
 20
8.629674991478444
 30
0.0
 70
0
  0
VERTEX
  5
6D2
  8
0
 10
25.270907375622514
 20
8.666841121924046
 30
0.0
 70
0
  0
VERTEX
  5
6D3
  8
0
 10
25.338635351377025
 20
8.702102320383492
 30
0.0
 70
0
  0
VERTEX
  5
6D4
  8
0
 10
25.408037120765712
 20
8.735520603332109
 30
0.0
 70
0
  0
VERTEX
  5
6D5
  8
0
 10
25.479051986812728
 20
8.767157987245216
 30
0.0
 70
0
  0
VERTEX
  5
6D6
  8
0
 10
25.55161925254222
 20
8.797076488598139
 30
0.0
 70
0
  0
VERTEX
  5
6D7
  8
0
 10
25.625678220978344
 20
8.825338123866196
 30
0.0
 70
0
  0
VERTEX
  5
6D8
  8
0
 10
25.701168195145257
 20
8.852004909524712
 30
0.0
 70
0
  0
VERTEX
  5
6D9
  8
0
 10
25.778028478067107
 20
8.877138862049014
 30
0.0
 70
0
  0
VERTEX
  5
6DA
  8
0
 10
25.85619837276805
 20
8.900801997914419
 30
0.0
 70
0
  0
VERTEX
  5
6DB
  8
0
 10
25.935617182272228
 20
8.92305633359625
 30
0.0
 70
0
  0
VERTEX
  5
6DC
  8
0
 10
26.016224209603806
 20
8.943963885569833
 30
0.0
 70
0
  0
VERTEX
  5
6DD
  8
0
 10
26.097958757786927
 20
8.96358667031049
 30
0.0
 70
0
  0
VERTEX
  5
6DE
  8
0
 10
26.18076012984574
 20
8.98198670429354
 30
0.0
 70
0
  0
VERTEX
  5
6DF
  8
0
 10
26.26456762880441
 20
8.999226003994309
 30
0.0
 70
0
  0
VERTEX
  5
6E0
  8
0
 10
26.349320557687086
 20
9.015366585888119
 30
0.0
 70
0
  0
VERTEX
  5
6E1
  8
0
 10
26.434958219517917
 20
9.030470466450293
 30
0.0
 70
0
  0
VERTEX
  5
6E2
  8
0
 10
26.458778837775643
 20
8.987467119581881
 30
0.0
 70
0
  0
VERTEX
  5
6E3
  8
0
 10
26.44379544099286
 20
8.908751528032901
 30
0.0
 70
0
  0
VERTEX
  5
6E4
  8
0
 10
26.42881204421008
 20
8.830035936483924
 30
0.0
 70
0
  0
VERTEX
  5
6E5
  8
0
 10
26.413828647427298
 20
8.751320344934948
 30
0.0
 70
0
  0
VERTEX
  5
6E6
  8
0
 10
26.398845250644516
 20
8.672604753385968
 30
0.0
 70
0
  0
VERTEX
  5
6E7
  8
0
 10
26.383861853861735
 20
8.593889161836989
 30
0.0
 70
0
  0
VERTEX
  5
6E8
  8
0
 10
26.368878457078953
 20
8.51517357028801
 30
0.0
 70
0
  0
VERTEX
  5
6E9
  8
0
 10
26.35389506029617
 20
8.436457978739032
 30
0.0
 70
0
  0
VERTEX
  5
6EA
  8
0
 10
26.33891166351339
 20
8.35774238719005
 30
0.0
 70
0
  0
VERTEX
  5
6EB
  8
0
 10
26.323928266730608
 20
8.279026795641073
 30
0.0
 70
0
  0
VERTEX
  5
6EC
  8
0
 10
26.30894486994783
 20
8.200311204092097
 30
0.0
 70
0
  0
VERTEX
  5
6ED
  8
0
 10
26.293961473165048
 20
8.121595612543118
 30
0.0
 70
0
  0
VERTEX
  5
6EE
  8
0
 10
26.278978076382266
 20
8.042880020994138
 30
0.0
 70
0
  0
VERTEX
  5
6EF
  8
0
 10
26.263994679599485
 20
7.96416442944516
 30
0.0
 70
0
  0
VERTEX
  5
6F0
  8
0
 10
26.249011282816703
 20
7.88544883789618
 30
0.0
 70
0
  0
VERTEX
  5
6F1
  8
0
 10
26.23402788603392
 20
7.806733246347201
 30
0.0
 70
0
  0
VERTEX
  5
6F2
  8
0
 10
26.21904448925114
 20
7.728017654798222
 30
0.0
 70
0
  0
VERTEX
  5
6F3
  8
0
 10
26.204061092468358
 20
7.649302063249246
 30
0.0
 70
0
  0
VERTEX
  5
6F4
  8
0
 10
26.189077695685576
 20
7.570586471700267
 30
0.0
 70
0
  0
VERTEX
  5
6F5
  8
0
 10
26.174094298902794
 20
7.491870880151287
 30
0.0
 70
0
  0
VERTEX
  5
6F6
  8
0
 10
26.159110902120013
 20
7.41315528860231
 30
0.0
 70
0
  0
VERTEX
  5
6F7
  8
0
 10
26.14412750533723
 20
7.33443969705333
 30
0.0
 70
0
  0
VERTEX
  5
6F8
  8
0
 10
26.12914410855445
 20
7.255724105504351
 30
0.0
 70
0
  0
VERTEX
  5
6F9
  8
0
 10
26.11416071177167
 20
7.177008513955375
 30
0.0
 70
0
  0
VERTEX
  5
6FA
  8
0
 10
26.09917731498889
 20
7.0982929224063955
 30
0.0
 70
0
  0
VERTEX
  5
6FB
  8
0
 10
26.084193918206108
 20
7.019577330857418
 30
0.0
 70
0
  0
VERTEX
  5
6FC
  8
0
 10
26.069210521423326
 20
6.940861739308437
 30
0.0
 70
0
  0
VERTEX
  5
6FD
  8
0
 10
26.054227124640544
 20
6.862146147759459
 30
0.0
 70
0
  0
VERTEX
  5
6FE
  8
0
 10
26.039243727857762
 20
6.7834305562104795
 30
0.0
 70
0
  0
VERTEX
  5
6FF
  8
0
 10
26.02426033107498
 20
6.7047149646615
 30
0.0
 70
0
  0
VERTEX
  5
700
  8
0
 10
26.0092769342922
 20
6.625999373112524
 30
0.0
 70
0
  0
VERTEX
  5
701
  8
0
 10
25.994293537509417
 20
6.547283781563545
 30
0.0
 70
0
  0
VERTEX
  5
702
  8
0
 10
25.979310140726636
 20
6.468568190014567
 30
0.0
 70
0
  0
VERTEX
  5
703
  8
0
 10
25.964326743943854
 20
6.389852598465586
 30
0.0
 70
0
  0
VERTEX
  5
704
  8
0
 10
25.949343347161072
 20
6.311137006916608
 30
0.0
 70
0
  0
VERTEX
  5
705
  8
0
 10
25.93435995037829
 20
6.232421415367629
 30
0.0
 70
0
  0
VERTEX
  5
706
  8
0
 10
25.91937655359551
 20
6.153705823818649
 30
0.0
 70
0
  0
VERTEX
  5
707
  8
0
 10
25.90439315681273
 20
6.074990232269675
 30
0.0
 70
0
  0
VERTEX
  5
708
  8
0
 10
25.88940976002995
 20
5.996274640720694
 30
0.0
 70
0
  0
VERTEX
  5
709
  8
0
 10
25.874426363247167
 20
5.917559049171716
 30
0.0
 70
0
  0
VERTEX
  5
70A
  8
0
 10
25.859442966464385
 20
5.838843457622737
 30
0.0
 70
0
  0
VERTEX
  5
70B
  8
0
 10
25.844459569681604
 20
5.760127866073757
 30
0.0
 70
0
  0
VERTEX
  5
70C
  8
0
 10
25.829476172898822
 20
5.681412274524778
 30
0.0
 70
0
  0
VERTEX
  5
70D
  8
0
 10
25.81449277611604
 20
5.6026966829757985
 30
0.0
 70
0
  0
VERTEX
  5
70E
  8
0
 10
25.79950937933326
 20
5.523981091426824
 30
0.0
 70
0
  0
VERTEX
  5
70F
  8
0
 10
25.784525982550477
 20
5.445265499877845
 30
0.0
 70
0
  0
VERTEX
  5
710
  8
0
 10
25.769542585767695
 20
5.3665499083288655
 30
0.0
 70
0
  0
VERTEX
  5
711
  8
0
 10
25.754559188984913
 20
5.287834316779886
 30
0.0
 70
0
  0
VERTEX
  5
712
  8
0
 10
25.73957579220213
 20
5.209118725230907
 30
0.0
 70
0
  0
VERTEX
  5
713
  8
0
 10
25.72459239541935
 20
5.130403133681927
 30
0.0
 70
0
  0
VERTEX
  5
714
  8
0
 10
25.70960899863657
 20
5.051687542132948
 30
0.0
 70
0
  0
VERTEX
  5
715
  8
0
 10
25.69462560185379
 20
4.972971950583974
 30
0.0
 70
0
  0
VERTEX
  5
716
  8
0
 10
25.67964220507101
 20
4.894256359034994
 30
0.0
 70
0
  0
VERTEX
  5
717
  8
0
 10
25.664658808288227
 20
4.815540767486015
 30
0.0
 70
0
  0
VERTEX
  5
718
  8
0
 10
25.649675411505445
 20
4.736825175937035
 30
0.0
 70
0
  0
VERTEX
  5
719
  8
0
 10
25.634692014722663
 20
4.658109584388056
 30
0.0
 70
0
  0
VERTEX
  5
71A
  8
0
 10
25.61970861793988
 20
4.579393992839078
 30
0.0
 70
0
  0
VERTEX
  5
71B
  8
0
 10
25.604804315425934
 20
4.504152221956076
 30
0.0
 70
0
  0
VERTEX
  5
71C
  8
0
 10
25.589058662816605
 20
4.4285047420162424
 30
0.0
 70
0
  0
VERTEX
  5
71D
  8
0
 10
25.57230458191705
 20
4.351257845447064
 30
0.0
 70
0
  0
VERTEX
  5
71E
  8
0
 10
25.55452096020844
 20
4.272584271038927
 30
0.0
 70
0
  0
VERTEX
  5
71F
  8
0
 10
25.535686685171957
 20
4.19265675758221
 30
0.0
 70
0
  0
VERTEX
  5
720
  8
0
 10
25.51578064428877
 20
4.111648043867298
 30
0.0
 70
0
  0
VERTEX
  5
721
  8
0
 10
25.494781725040063
 20
4.029730868684574
 30
0.0
 70
0
  0
VERTEX
  5
722
  8
0
 10
25.472668814907003
 20
3.9470779708244184
 30
0.0
 70
0
  0
VERTEX
  5
723
  8
0
 10
25.449420801370774
 20
3.8638620890772177
 30
0.0
 70
0
  0
VERTEX
  5
724
  8
0
 10
25.425016571912543
 20
3.780255962233346
 30
0.0
 70
0
  0
VERTEX
  5
725
  8
0
 10
25.399435014013488
 20
3.696432329083189
 30
0.0
 70
0
  0
VERTEX
  5
726
  8
0
 10
25.372655015154788
 20
3.612563928417128
 30
0.0
 70
0
  0
VERTEX
  5
727
  8
0
 10
25.344655462817617
 20
3.528823499025547
 30
0.0
 70
0
  0
VERTEX
  5
728
  8
0
 10
25.315415244483148
 20
3.445383779698828
 30
0.0
 70
0
  0
VERTEX
  5
729
  8
0
 10
25.28491324763256
 20
3.3624175092273507
 30
0.0
 70
0
  0
VERTEX
  5
72A
  8
0
 10
25.25312835974703
 20
3.2800974264015057
 30
0.0
 70
0
  0
VERTEX
  5
72B
  8
0
 10
25.220039468307725
 20
3.1985962700116612
 30
0.0
 70
0
  0
VERTEX
  5
72C
  8
0
 10
25.18562546079583
 20
3.118086778848207
 30
0.0
 70
0
  0
VERTEX
  5
72D
  8
0
 10
25.149865224692515
 20
3.038741691701526
 30
0.0
 70
0
  0
VERTEX
  5
72E
  8
0
 10
25.112737647478955
 20
2.9607337473619975
 30
0.0
 70
0
  0
VERTEX
  5
72F
  8
0
 10
25.07422161663633
 20
2.8842356846200055
 30
0.0
 70
0
  0
VERTEX
  5
730
  8
0
 10
25.034296019645815
 20
2.8094202422659365
 30
0.0
 70
0
  0
VERTEX
  5
731
  8
0
 10
24.99293974398858
 20
2.7364601590901625
 30
0.0
 70
0
  0
VERTEX
  5
732
  8
0
 10
24.950131677145805
 20
2.66552817388307
 30
0.0
 70
0
  0
VERTEX
  5
733
  8
0
 10
24.905850706598667
 20
2.596797025435043
 30
0.0
 70
0
  0
VERTEX
  5
734
  8
0
 10
24.860075719828334
 20
2.530439452536461
 30
0.0
 70
0
  0
VERTEX
  5
735
  8
0
 10
24.81278560431599
 20
2.4666281939777086
 30
0.0
 70
0
  0
VERTEX
  5
736
  8
0
 10
24.763959247542807
 20
2.4055359885491665
 30
0.0
 70
0
  0
VERTEX
  5
737
  8
0
 10
24.713575536989964
 20
2.347335575041221
 30
0.0
 70
0
  0
VERTEX
  5
738
  8
0
 10
24.66161336013863
 20
2.292199692244246
 30
0.0
 70
0
  0
VERTEX
  5
739
  8
0
 10
24.608051604469985
 20
2.2403010789486277
 30
0.0
 70
0
  0
VERTEX
  5
73A
  8
0
 10
24.5528691574652
 20
2.191812473944749
 30
0.0
 70
0
  0
VERTEX
  5
73B
  8
0
 10
24.496044906605455
 20
2.1469066160229904
 30
0.0
 70
0
  0
VERTEX
  5
73C
  8
0
 10
24.437557739371925
 20
2.1057562439737367
 30
0.0
 70
0
  0
VERTEX
  5
73D
  8
0
 10
24.377386543245787
 20
2.068534096587367
 30
0.0
 70
0
  0
VERTEX
  5
73E
  8
0
 10
24.315510205708215
 20
2.035412912654266
 30
0.0
 70
0
  0
VERTEX
  5
73F
  8
0
 10
24.251907614240384
 20
2.006565430964814
 30
0.0
 70
0
  0
VERTEX
  5
740
  8
0
 10
24.186557656323465
 20
1.982164390309391
 30
0.0
 70
0
  0
VERTEX
  5
741
  8
0
 10
24.11943921943864
 20
1.9623825294783845
 30
0.0
 70
0
  0
VERTEX
  5
742
  8
0
 10
24.050531191067083
 20
1.9473925872621702
 30
0.0
 70
0
  0
VERTEX
  5
743
  8
0
 10
23.979812458689967
 20
1.937367302451138
 30
0.0
 70
0
  0
VERTEX
  5
744
  8
0
 10
23.907261909788474
 20
1.9324794138356616
 30
0.0
 70
0
  0
VERTEX
  5
745
  8
0
 10
23.808160592292182
 20
1.9343412452970359
 30
0.0
 70
0
  0
VERTEX
  5
746
  8
0
 10
23.703209670326526
 20
1.9488753751694343
 30
0.0
 70
0
  0
VERTEX
  5
747
  8
0
 10
23.612895585010893
 20
1.9754254241934852
 30
0.0
 70
0
  0
VERTEX
  5
748
  8
0
 10
23.535581246914465
 20
2.0125120946907398
 30
0.0
 70
0
  0
VERTEX
  5
749
  8
0
 10
23.469629566606418
 20
2.058656088982751
 30
0.0
 70
0
  0
VERTEX
  5
74A
  8
0
 10
23.41340345465594
 20
2.1123781093910665
 30
0.0
 70
0
  0
VERTEX
  5
74B
  8
0
 10
23.36526582163221
 20
2.1721988582372376
 30
0.0
 70
0
  0
VERTEX
  5
74C
  8
0
 10
23.32357957810442
 20
2.236639037842812
 30
0.0
 70
0
  0
VERTEX
  5
74D
  8
0
 10
23.286707634641743
 20
2.3042193505293493
 30
0.0
 70
0
  0
VERTEX
  5
74E
  8
0
 10
23.253012901813364
 20
2.3734604986183925
 30
0.0
 70
0
  0
VERTEX
  5
74F
  8
0
 10
23.220858290188467
 20
2.442883184431496
 30
0.0
 70
0
  0
VERTEX
  5
750
  8
0
 10
23.188606710336234
 20
2.511008110290211
 30
0.0
 70
0
  0
VERTEX
  5
751
  8
0
 10
23.15462107282585
 20
2.5763559785160837
 30
0.0
 70
0
  0
VERTEX
  5
752
  8
0
 10
23.117264288226494
 20
2.6374474914306685
 30
0.0
 70
0
  0
VERTEX
  5
753
  8
0
 10
23.074899267107355
 20
2.692803351355513
 30
0.0
 70
0
  0
VERTEX
  5
754
  8
0
 10
23.02588892003761
 20
2.7409442606121743
 30
0.0
 70
0
  0
VERTEX
  5
755
  8
0
 10
22.968596157586443
 20
2.780390921522198
 30
0.0
 70
0
  0
VERTEX
  5
756
  8
0
 10
22.90138389032304
 20
2.809664036407135
 30
0.0
 70
0
  0
VERTEX
  5
757
  8
0
 10
22.82261502881658
 20
2.8272843075885365
 30
0.0
 70
0
  0
VERTEX
  5
758
  8
0
 10
22.735591140587864
 20
2.8318759452972717
 30
0.0
 70
0
  0
VERTEX
  5
759
  8
0
 10
22.66529054024979
 20
2.8264636020505414
 30
0.0
 70
0
  0
VERTEX
  5
75A
  8
0
 10
22.595383384306928
 20
2.8127940293749525
 30
0.0
 70
0
  0
VERTEX
  5
75B
  8
0
 10
22.527156054612398
 20
2.790520893694662
 30
0.0
 70
0
  0
VERTEX
  5
75C
  8
0
 10
22.46189493301933
 20
2.7592978614338293
 30
0.0
 70
0
  0
VERTEX
  5
75D
  8
0
 10
22.40088640138085
 20
2.7187785990166127
 30
0.0
 70
0
  0
VERTEX
  5
75E
  8
0
 10
22.345416841550083
 20
2.6686167728671695
 30
0.0
 70
0
  0
VERTEX
  5
75F
  8
0
 10
22.29677263538015
 20
2.608466049409662
 30
0.0
 70
0
  0
VERTEX
  5
760
  8
0
 10
22.256240164724183
 20
2.5379800950682494
 30
0.0
 70
0
  0
VERTEX
  5
761
  8
0
 10
22.2251058114353
 20
2.456812576267083
 30
0.0
 70
0
  0
VERTEX
  5
762
  8
0
 10
22.204655957366626
 20
2.3646171594303276
 30
0.0
 70
0
  0
VERTEX
  5
763
  8
0
 10
22.196176984371288
 20
2.2610475109821397
 30
0.0
 70
0
  0
VERTEX
  5
764
  8
0
 10
22.198996870425162
 20
2.171480456471855
 30
0.0
 70
0
  0
VERTEX
  5
765
  8
0
 10
22.20999001039516
 20
2.0906473321235968
 30
0.0
 70
0
  0
VERTEX
  5
766
  8
0
 10
22.228700193324723
 20
2.015062135565529
 30
0.0
 70
0
  0
VERTEX
  5
767
  8
0
 10
22.254729979887408
 20
1.9446056349997196
 30
0.0
 70
0
  0
VERTEX
  5
768
  8
0
 10
22.287681930756776
 20
1.8791585986282335
 30
0.0
 70
0
  0
VERTEX
  5
769
  8
0
 10
22.32715860660639
 20
1.818601794653139
 30
0.0
 70
0
  0
VERTEX
  5
76A
  8
0
 10
22.3727625681098
 20
1.762815991276506
 30
0.0
 70
0
  0
VERTEX
  5
76B
  8
0
 10
22.42409637594057
 20
1.7116819567004011
 30
0.0
 70
0
  0
VERTEX
  5
76C
  8
0
 10
22.48076259077227
 20
1.6650804591268926
 30
0.0
 70
0
  0
VERTEX
  5
76D
  8
0
 10
22.542363773278442
 20
1.6228922667580488
 30
0.0
 70
0
  0
VERTEX
  5
76E
  8
0
 10
22.60850248413265
 20
1.5849981477959396
 30
0.0
 70
0
  0
VERTEX
  5
76F
  8
0
 10
22.678781284008462
 20
1.5512788704426264
 30
0.0
 70
0
  0
VERTEX
  5
770
  8
0
 10
22.752802733579433
 20
1.5216152029001826
 30
0.0
 70
0
  0
VERTEX
  5
771
  8
0
 10
22.83016939351912
 20
1.495887913370673
 30
0.0
 70
0
  0
VERTEX
  5
772
  8
0
 10
22.910483824501085
 20
1.4739777700561678
 30
0.0
 70
0
  0
VERTEX
  5
773
  8
0
 10
22.993348587198888
 20
1.4557655411587316
 30
0.0
 70
0
  0
VERTEX
  5
774
  8
0
 10
23.078366242286087
 20
1.4411319948804362
 30
0.0
 70
0
  0
VERTEX
  5
775
  8
0
 10
23.165139350436235
 20
1.4299578994233482
 30
0.0
 70
0
  0
VERTEX
  5
776
  8
0
 10
23.253270472322903
 20
1.422124022989534
 30
0.0
 70
0
  0
VERTEX
  5
777
  8
0
 10
23.342362168619648
 20
1.4175111337810637
 30
0.0
 70
0
  0
VERTEX
  5
778
  8
0
 10
23.432017000000002
 20
1.4160000000000004
 30
0.0
 70
0
  0
SEQEND
  5
5A4
  8
0
  0
POLYLINE
  5
779
  8
0
 66
1
 10
0.0
 20
0.0
 30
0.0
 70
1
  0
VERTEX
  5
77B
  8
0
 10
26.720017000000002
 20
5.183999999999999
 30
0.0
 70
0
  0
VERTEX
  5
77C
  8
0
 10
26.735922753348426
 20
5.262549951151449
 30
0.0
 70
0
  0
VERTEX
  5
77D
  8
0
 10
26.75182850669685
 20
5.341099902302897
 30
0.0
 70
0
  0
VERTEX
  5
77E
  8
0
 10
26.767734260045277
 20
5.419649853454347
 30
0.0
 70
0
  0
VERTEX
  5
77F
  8
0
 10
26.7836400133937
 20
5.498199804605797
 30
0.0
 70
0
  0
VERTEX
  5
780
  8
0
 10
26.799545766742124
 20
5.576749755757245
 30
0.0
 70
0
  0
VERTEX
  5
781
  8
0
 10
26.815451520090548
 20
5.6552997069086945
 30
0.0
 70
0
  0
VERTEX
  5
782
  8
0
 10
26.83135727343897
 20
5.733849658060143
 30
0.0
 70
0
  0
VERTEX
  5
783
  8
0
 10
26.847263026787395
 20
5.812399609211592
 30
0.0
 70
0
  0
VERTEX
  5
784
  8
0
 10
26.863168780135823
 20
5.890949560363042
 30
0.0
 70
0
  0
VERTEX
  5
785
  8
0
 10
26.879074533484246
 20
5.96949951151449
 30
0.0
 70
0
  0
VERTEX
  5
786
  8
0
 10
26.89498028683267
 20
6.04804946266594
 30
0.0
 70
0
  0
VERTEX
  5
787
  8
0
 10
26.910886040181094
 20
6.12659941381739
 30
0.0
 70
0
  0
VERTEX
  5
788
  8
0
 10
26.926791793529517
 20
6.205149364968838
 30
0.0
 70
0
  0
VERTEX
  5
789
  8
0
 10
26.94269754687794
 20
6.283699316120288
 30
0.0
 70
0
  0
VERTEX
  5
78A
  8
0
 10
26.95860330022637
 20
6.3622492672717375
 30
0.0
 70
0
  0
VERTEX
  5
78B
  8
0
 10
26.974509053574792
 20
6.4407992184231855
 30
0.0
 70
0
  0
VERTEX
  5
78C
  8
0
 10
26.990414806923216
 20
6.519349169574635
 30
0.0
 70
0
  0
VERTEX
  5
78D
  8
0
 10
27.00632056027164
 20
6.597899120726083
 30
0.0
 70
0
  0
VERTEX
  5
78E
  8
0
 10
27.022226313620063
 20
6.676449071877533
 30
0.0
 70
0
  0
VERTEX
  5
78F
  8
0
 10
27.038132066968487
 20
6.754999023028983
 30
0.0
 70
0
  0
VERTEX
  5
790
  8
0
 10
27.054037820316914
 20
6.833548974180431
 30
0.0
 70
0
  0
VERTEX
  5
791
  8
0
 10
27.069943573665338
 20
6.912098925331881
 30
0.0
 70
0
  0
VERTEX
  5
792
  8
0
 10
27.08584932701376
 20
6.9906488764833306
 30
0.0
 70
0
  0
VERTEX
  5
793
  8
0
 10
27.101755080362185
 20
7.069198827634779
 30
0.0
 70
0
  0
VERTEX
  5
794
  8
0
 10
27.11766083371061
 20
7.147748778786228
 30
0.0
 70
0
  0
VERTEX
  5
795
  8
0
 10
27.133566587059033
 20
7.226298729937676
 30
0.0
 70
0
  0
VERTEX
  5
796
  8
0
 10
27.14947234040746
 20
7.304848681089128
 30
0.0
 70
0
  0
VERTEX
  5
797
  8
0
 10
27.165378093755884
 20
7.383398632240576
 30
0.0
 70
0
  0
VERTEX
  5
798
  8
0
 10
27.181283847104307
 20
7.461948583392024
 30
0.0
 70
0
  0
VERTEX
  5
799
  8
0
 10
27.19718960045273
 20
7.540498534543474
 30
0.0
 70
0
  0
VERTEX
  5
79A
  8
0
 10
27.213095353801155
 20
7.619048485694924
 30
0.0
 70
0
  0
VERTEX
  5
79B
  8
0
 10
27.22900110714958
 20
7.697598436846373
 30
0.0
 70
0
  0
VERTEX
  5
79C
  8
0
 10
27.244906860498006
 20
7.7761483879978215
 30
0.0
 70
0
  0
VERTEX
  5
79D
  8
0
 10
27.26081261384643
 20
7.854698339149271
 30
0.0
 70
0
  0
VERTEX
  5
79E
  8
0
 10
27.276718367194853
 20
7.93324829030072
 30
0.0
 70
0
  0
VERTEX
  5
79F
  8
0
 10
27.292624120543277
 20
8.01179824145217
 30
0.0
 70
0
  0
VERTEX
  5
7A0
  8
0
 10
27.3085298738917
 20
8.090348192603617
 30
0.0
 70
0
  0
VERTEX
  5
7A1
  8
0
 10
27.324435627240128
 20
8.168898143755069
 30
0.0
 70
0
  0
VERTEX
  5
7A2
  8
0
 10
27.34034138058855
 20
8.247448094906517
 30
0.0
 70
0
  0
VERTEX
  5
7A3
  8
0
 10
27.356247133936975
 20
8.325998046057967
 30
0.0
 70
0
  0
VERTEX
  5
7A4
  8
0
 10
27.3721528872854
 20
8.404547997209415
 30
0.0
 70
0
  0
VERTEX
  5
7A5
  8
0
 10
27.388058640633822
 20
8.483097948360864
 30
0.0
 70
0
  0
VERTEX
  5
7A6
  8
0
 10
27.403964393982246
 20
8.561647899512312
 30
0.0
 70
0
  0
VERTEX
  5
7A7
  8
0
 10
27.41987014733067
 20
8.640197850663762
 30
0.0
 70
0
  0
VERTEX
  5
7A8
  8
0
 10
27.435775900679097
 20
8.718747801815212
 30
0.0
 70
0
  0
VERTEX
  5
7A9
  8
0
 10
27.45168165402752
 20
8.797297752966662
 30
0.0
 70
0
  0
VERTEX
  5
7AA
  8
0
 10
27.467587407375945
 20
8.87584770411811
 30
0.0
 70
0
  0
VERTEX
  5
7AB
  8
0
 10
27.483493160724368
 20
8.95439765526956
 30
0.0
 70
0
  0
VERTEX
  5
7AC
  8
0
 10
27.499398914072792
 20
9.032947606421008
 30
0.0
 70
0
  0
VERTEX
  5
7AD
  8
0
 10
27.592139369998115
 20
9.035149806451564
 30
0.0
 70
0
  0
VERTEX
  5
7AE
  8
0
 10
27.68620193451124
 20
9.032417608565886
 30
0.0
 70
0
  0
VERTEX
  5
7AF
  8
0
 10
27.77838082311976
 20
9.027735368546743
 30
0.0
 70
0
  0
VERTEX
  5
7B0
  8
0
 10
27.868611222789077
 20
9.021036421558541
 30
0.0
 70
0
  0
VERTEX
  5
7B1
  8
0
 10
27.956828320484583
 20
9.012254102765688
 30
0.0
 70
0
  0
VERTEX
  5
7B2
  8
0
 10
28.04296730317167
 20
9.00132174733259
 30
0.0
 70
0
  0
VERTEX
  5
7B3
  8
0
 10
28.12696335781574
 20
8.988172690423653
 30
0.0
 70
0
  0
VERTEX
  5
7B4
  8
0
 10
28.208751671382185
 20
8.972740267203283
 30
0.0
 70
0
  0
VERTEX
  5
7B5
  8
0
 10
28.2882674308364
 20
8.95495781283589
 30
0.0
 70
0
  0
VERTEX
  5
7B6
  8
0
 10
28.365445823143776
 20
8.934758662485875
 30
0.0
 70
0
  0
VERTEX
  5
7B7
  8
0
 10
28.440222035269716
 20
8.912076151317649
 30
0.0
 70
0
  0
VERTEX
  5
7B8
  8
0
 10
28.51253125417961
 20
8.886843614495616
 30
0.0
 70
0
  0
VERTEX
  5
7B9
  8
0
 10
28.58230866683886
 20
8.858994387184186
 30
0.0
 70
0
  0
VERTEX
  5
7BA
  8
0
 10
28.649489460212852
 20
8.82846180454776
 30
0.0
 70
0
  0
VERTEX
  5
7BB
  8
0
 10
28.714008821266983
 20
8.795179201750752
 30
0.0
 70
0
  0
VERTEX
  5
7BC
  8
0
 10
28.775801936966655
 20
8.759079913957562
 30
0.0
 70
0
  0
VERTEX
  5
7BD
  8
0
 10
28.83480399427726
 20
8.720097276332599
 30
0.0
 70
0
  0
VERTEX
  5
7BE
  8
0
 10
28.89095018016419
 20
8.67816462404027
 30
0.0
 70
0
  0
VERTEX
  5
7BF
  8
0
 10
28.944175681592846
 20
8.633215292244984
 30
0.0
 70
0
  0
VERTEX
  5
7C0
  8
0
 10
28.994415685528615
 20
8.58518261611114
 30
0.0
 70
0
  0
VERTEX
  5
7C1
  8
0
 10
29.0416053789369
 20
8.533999930803152
 30
0.0
 70
0
  0
VERTEX
  5
7C2
  8
0
 10
29.085679948783095
 20
8.479600571485424
 30
0.0
 70
0
  0
VERTEX
  5
7C3
  8
0
 10
29.126574582032593
 20
8.421917873322364
 30
0.0
 70
0
  0
VERTEX
  5
7C4
  8
0
 10
29.16422446565079
 20
8.360885171478376
 30
0.0
 70
0
  0
VERTEX
  5
7C5
  8
0
 10
29.198564786603082
 20
8.296435801117866
 30
0.0
 70
0
  0
VERTEX
  5
7C6
  8
0
 10
29.229530731854865
 20
8.228503097405245
 30
0.0
 70
0
  0
VERTEX
  5
7C7
  8
0
 10
29.257057488371533
 20
8.157020395504915
 30
0.0
 70
0
  0
VERTEX
  5
7C8
  8
0
 10
29.28108024311848
 20
8.081921030581285
 30
0.0
 70
0
  0
VERTEX
  5
7C9
  8
0
 10
29.301534183061104
 20
8.003138337798761
 30
0.0
 70
0
  0
VERTEX
  5
7CA
  8
0
 10
29.318354495164797
 20
7.92060565232175
 30
0.0
 70
0
  0
VERTEX
  5
7CB
  8
0
 10
29.331476366394956
 20
7.834256309314658
 30
0.0
 70
0
  0
VERTEX
  5
7CC
  8
0
 10
29.34083498371698
 20
7.744023643941892
 30
0.0
 70
0
  0
VERTEX
  5
7CD
  8
0
 10
29.346365534096257
 20
7.649840991367858
 30
0.0
 70
0
  0
VERTEX
  5
7CE
  8
0
 10
29.348005641137917
 20
7.552347552978789
 30
0.0
 70
0
  0
VERTEX
  5
7CF
  8
0
 10
29.346118703443896
 20
7.461661920828446
 30
0.0
 70
0
  0
VERTEX
  5
7D0
  8
0
 10
29.34104549480395
 20
7.37268372186332
 30
0.0
 70
0
  0
VERTEX
  5
7D1
  8
0
 10
29.33285177324773
 20
7.285416609307283
 30
0.0
 70
0
  0
VERTEX
  5
7D2
  8
0
 10
29.321603296804888
 20
7.199864236384203
 30
0.0
 70
0
  0
VERTEX
  5
7D3
  8
0
 10
29.307365823505073
 20
7.11603025631795
 30
0.0
 70
0
  0
VERTEX
  5
7D4
  8
0
 10
29.290205111377933
 20
7.033918322332395
 30
0.0
 70
0
  0
VERTEX
  5
7D5
  8
0
 10
29.27018691845312
 20
6.953532087651405
 30
0.0
 70
0
  0
VERTEX
  5
7D6
  8
0
 10
29.247377002760288
 20
6.874875205498849
 30
0.0
 70
0
  0
VERTEX
  5
7D7
  8
0
 10
29.22184112232908
 20
6.7979513290986
 30
0.0
 70
0
  0
VERTEX
  5
7D8
  8
0
 10
29.193645035189153
 20
6.722764111674525
 30
0.0
 70
0
  0
VERTEX
  5
7D9
  8
0
 10
29.16285449937015
 20
6.649317206450494
 30
0.0
 70
0
  0
VERTEX
  5
7DA
  8
0
 10
29.12953527290173
 20
6.577614266650375
 30
0.0
 70
0
  0
VERTEX
  5
7DB
  8
0
 10
29.093753113813538
 20
6.50765894549804
 30
0.0
 70
0
  0
VERTEX
  5
7DC
  8
0
 10
29.055573780135223
 20
6.439454896217356
 30
0.0
 70
0
  0
VERTEX
  5
7DD
  8
0
 10
29.01506302989644
 20
6.3730057720321955
 30
0.0
 70
0
  0
VERTEX
  5
7DE
  8
0
 10
28.97228662112683
 20
6.308315226166425
 30
0.0
 70
0
  0
VERTEX
  5
7DF
  8
0
 10
28.927310311856054
 20
6.245386911843914
 30
0.0
 70
0
  0
VERTEX
  5
7E0
  8
0
 10
28.88019986011376
 20
6.184224482288535
 30
0.0
 70
0
  0
VERTEX
  5
7E1
  8
0
 10
28.83102102392959
 20
6.124831590724154
 30
0.0
 70
0
  0
VERTEX
  5
7E2
  8
0
 10
28.7798395613332
 20
6.067211890374644
 30
0.0
 70
0
  0
VERTEX
  5
7E3
  8
0
 10
28.726721230354244
 20
6.01136903446387
 30
0.0
 70
0
  0
VERTEX
  5
7E4
  8
0
 10
28.671731789022367
 20
5.957306676215705
 30
0.0
 70
0
  0
VERTEX
  5
7E5
  8
0
 10
28.614936995367223
 20
5.905028468854017
 30
0.0
 70
0
  0
VERTEX
  5
7E6
  8
0
 10
28.55640260741846
 20
5.854538065602675
 30
0.0
 70
0
  0
VERTEX
  5
7E7
  8
0
 10
28.496194383205722
 20
5.805839119685549
 30
0.0
 70
0
  0
VERTEX
  5
7E8
  8
0
 10
28.43437808075867
 20
5.75893528432651
 30
0.0
 70
0
  0
VERTEX
  5
7E9
  8
0
 10
28.37101945810695
 20
5.713830212749427
 30
0.0
 70
0
  0
VERTEX
  5
7EA
  8
0
 10
28.30618427328021
 20
5.670527558178167
 30
0.0
 70
0
  0
VERTEX
  5
7EB
  8
0
 10
28.239938284308103
 20
5.629030973836601
 30
0.0
 70
0
  0
VERTEX
  5
7EC
  8
0
 10
28.172347249220277
 20
5.589344112948599
 30
0.0
 70
0
  0
VERTEX
  5
7ED
  8
0
 10
28.103476926046383
 20
5.551470628738029
 30
0.0
 70
0
  0
VERTEX
  5
7EE
  8
0
 10
28.033393072816075
 20
5.515414174428763
 30
0.0
 70
0
  0
VERTEX
  5
7EF
  8
0
 10
27.962161447558994
 20
5.481178403244668
 30
0.0
 70
0
  0
VERTEX
  5
7F0
  8
0
 10
27.8898478083048
 20
5.448766968409613
 30
0.0
 70
0
  0
VERTEX
  5
7F1
  8
0
 10
27.81651791308314
 20
5.418183523147471
 30
0.0
 70
0
  0
VERTEX
  5
7F2
  8
0
 10
27.742237519923663
 20
5.389431720682108
 30
0.0
 70
0
  0
VERTEX
  5
7F3
  8
0
 10
27.66707238685602
 20
5.362515214237396
 30
0.0
 70
0
  0
VERTEX
  5
7F4
  8
0
 10
27.591088271909857
 20
5.337437657037201
 30
0.0
 70
0
  0
VERTEX
  5
7F5
  8
0
 10
27.514350933114834
 20
5.314202702305396
 30
0.0
 70
0
  0
VERTEX
  5
7F6
  8
0
 10
27.43692612850059
 20
5.29281400326585
 30
0.0
 70
0
  0
VERTEX
  5
7F7
  8
0
 10
27.358879616096782
 20
5.27327521314243
 30
0.0
 70
0
  0
VERTEX
  5
7F8
  8
0
 10
27.28027715393306
 20
5.255589985159007
 30
0.0
 70
0
  0
VERTEX
  5
7F9
  8
0
 10
27.201184500039073
 20
5.2397619725394495
 30
0.0
 70
0
  0
VERTEX
  5
7FA
  8
0
 10
27.12166741244447
 20
5.225794828507631
 30
0.0
 70
0
  0
VERTEX
  5
7FB
  8
0
 10
27.041791649178904
 20
5.213692206287416
 30
0.0
 70
0
  0
VERTEX
  5
7FC
  8
0
 10
26.961622968272025
 20
5.203457759102674
 30
0.0
 70
0
  0
VERTEX
  5
7FD
  8
0
 10
26.881227127753476
 20
5.195095140177278
 30
0.0
 70
0
  0
VERTEX
  5
7FE
  8
0
 10
26.80066988565292
 20
5.188608002735096
 30
0.0
 70
0
  0
VERTEX
  5
7FF
  8
0
 10
26.720016999999995
 20
5.1839999999999975
 30
0.0
 70
0
  0
SEQEND
  5
77A
  8
0
  0
POLYLINE
  5
800
  8
0
 66
1
 10
0.0
 20
0.0
 30
0.0
 70
1
  0
VERTEX
  5
802
  8
0
 10
32.684007
 20
2.1239999999999988
 30
0.0
 70
0
  0
VERTEX
  5
803
  8
0
 10
32.68032169840426
 20
2.206937805943973
 30
0.0
 70
0
  0
VERTEX
  5
804
  8
0
 10
32.66934256812254
 20
2.287929681573443
 30
0.0
 70
0
  0
VERTEX
  5
805
  8
0
 10
32.65118477091306
 20
2.366376785745583
 30
0.0
 70
0
  0
VERTEX
  5
806
  8
0
 10
32.625963468534074
 20
2.4416802773175696
 30
0.0
 70
0
  0
VERTEX
  5
807
  8
0
 10
32.593793822743805
 20
2.5132413151465745
 30
0.0
 70
0
  0
VERTEX
  5
808
  8
0
 10
32.55479099530049
 20
2.580461058089771
 30
0.0
 70
0
  0
VERTEX
  5
809
  8
0
 10
32.509070147962376
 20
2.642740665004334
 30
0.0
 70
0
  0
VERTEX
  5
80A
  8
0
 10
32.456746442487685
 20
2.6994812947474376
 30
0.0
 70
0
  0
VERTEX
  5
80B
  8
0
 10
32.39793504063466
 20
2.7500841061762564
 30
0.0
 70
0
  0
VERTEX
  5
80C
  8
0
 10
32.33275110416153
 20
2.7939502581479605
 30
0.0
 70
0
  0
VERTEX
  5
80D
  8
0
 10
32.261309794826545
 20
2.8304809095197285
 30
0.0
 70
0
  0
VERTEX
  5
80E
  8
0
 10
32.18372627438793
 20
2.8590772191487304
 30
0.0
 70
0
  0
VERTEX
  5
80F
  8
0
 10
32.100115704603915
 20
2.879140345892143
 30
0.0
 70
0
  0
VERTEX
  5
810
  8
0
 10
32.01059324723275
 20
2.8900714486071397
 30
0.0
 70
0
  0
VERTEX
  5
811
  8
0
 10
31.917261448996335
 20
2.891280427010333
 30
0.0
 70
0
  0
VERTEX
  5
812
  8
0
 10
31.828871820630194
 20
2.8826327384173815
 30
0.0
 70
0
  0
VERTEX
  5
813
  8
0
 10
31.74567443037164
 20
2.864659741688211
 30
0.0
 70
0
  0
VERTEX
  5
814
  8
0
 10
31.66788825772378
 20
2.837945382164447
 30
0.0
 70
0
  0
VERTEX
  5
815
  8
0
 10
31.595732282189722
 20
2.8030736051877145
 30
0.0
 70
0
  0
VERTEX
  5
816
  8
0
 10
31.529425483272576
 20
2.760628356099634
 30
0.0
 70
0
  0
VERTEX
  5
817
  8
0
 10
31.46918684047545
 20
2.711193580241833
 30
0.0
 70
0
  0
VERTEX
  5
818
  8
0
 10
31.415235333301457
 20
2.6553532229559345
 30
0.0
 70
0
  0
VERTEX
  5
819
  8
0
 10
31.3677899412537
 20
2.5936912295835644
 30
0.0
 70
0
  0
VERTEX
  5
81A
  8
0
 10
31.327069643835294
 20
2.5267915454663434
 30
0.0
 70
0
  0
VERTEX
  5
81B
  8
0
 10
31.293293420549347
 20
2.455238115945896
 30
0.0
 70
0
  0
VERTEX
  5
81C
  8
0
 10
31.26668025089896
 20
2.37961488636385
 30
0.0
 70
0
  0
VERTEX
  5
81D
  8
0
 10
31.247449114387255
 20
2.300505802061826
 30
0.0
 70
0
  0
VERTEX
  5
81E
  8
0
 10
31.23581899051733
 20
2.2184948083814486
 30
0.0
 70
0
  0
VERTEX
  5
81F
  8
0
 10
31.232008622442596
 20
2.1341157043050725
 30
0.0
 70
0
  0
VERTEX
  5
820
  8
0
 10
31.23567570823394
 20
2.0482816260827352
 30
0.0
 70
0
  0
VERTEX
  5
821
  8
0
 10
31.246410472381257
 20
1.9662018169643076
 30
0.0
 70
0
  0
VERTEX
  5
822
  8
0
 10
31.264265777921455
 20
1.8882991812450882
 30
0.0
 70
0
  0
VERTEX
  5
823
  8
0
 10
31.289294487891446
 20
1.814996623220372
 30
0.0
 70
0
  0
VERTEX
  5
824
  8
0
 10
31.321549465328143
 20
1.7467170471854576
 30
0.0
 70
0
  0
VERTEX
  5
825
  8
0
 10
31.36108357326846
 20
1.68388335743564
 30
0.0
 70
0
  0
VERTEX
  5
826
  8
0
 10
31.407949674749307
 20
1.626918458266216
 30
0.0
 70
0
  0
VERTEX
  5
827
  8
0
 10
31.462200632807594
 20
1.576245253972484
 30
0.0
 70
0
  0
VERTEX
  5
828
  8
0
 10
31.52388931048024
 20
1.5322866488497393
 30
0.0
 70
0
  0
VERTEX
  5
829
  8
0
 10
31.59306857080415
 20
1.4954655471932803
 30
0.0
 70
0
  0
VERTEX
  5
82A
  8
0
 10
31.669791276816238
 20
1.466204853298402
 30
0.0
 70
0
  0
VERTEX
  5
82B
  8
0
 10
31.754110291553417
 20
1.444927471460403
 30
0.0
 70
0
  0
VERTEX
  5
82C
  8
0
 10
31.846078478052597
 20
1.4320563059745783
 30
0.0
 70
0
  0
VERTEX
  5
82D
  8
0
 10
31.945690058636682
 20
1.4280151762644273
 30
0.0
 70
0
  0
VERTEX
  5
82E
  8
0
 10
32.04447564131164
 20
1.4333651541368955
 30
0.0
 70
0
  0
VERTEX
  5
82F
  8
0
 10
32.136591680285505
 20
1.4479257186513497
 30
0.0
 70
0
  0
VERTEX
  5
830
  8
0
 10
32.22193445924156
 20
1.471100500986637
 30
0.0
 70
0
  0
VERTEX
  5
831
  8
0
 10
32.30040026186308
 20
1.5022931323216042
 30
0.0
 70
0
  0
VERTEX
  5
832
  8
0
 10
32.37188537183334
 20
1.5409072438350968
 30
0.0
 70
0
  0
VERTEX
  5
833
  8
0
 10
32.436286072835635
 20
1.5863464667059635
 30
0.0
 70
0
  0
VERTEX
  5
834
  8
0
 10
32.49349864855322
 20
1.6380144321130512
 30
0.0
 70
0
  0
VERTEX
  5
835
  8
0
 10
32.54341938266938
 20
1.6953147712352052
 30
0.0
 70
0
  0
VERTEX
  5
836
  8
0
 10
32.585944558867396
 20
1.7576511152512744
 30
0.0
 70
0
  0
VERTEX
  5
837
  8
0
 10
32.62097046083054
 20
1.8244270953401056
 30
0.0
 70
0
  0
VERTEX
  5
838
  8
0
 10
32.648393372242104
 20
1.8950463426805442
 30
0.0
 70
0
  0
VERTEX
  5
839
  8
0
 10
32.66810957678535
 20
1.968912488451437
 30
0.0
 70
0
  0
VERTEX
  5
83A
  8
0
 10
32.680015358143564
 20
2.045429163831633
 30
0.0
 70
0
  0
VERTEX
  5
83B
  8
0
 10
32.684007000000015
 20
2.1239999999999792
 30
0.0
 70
0
  0
SEQEND
  5
801
  8
0
  0
ENDSEC
  0
EOF
