<?xml version="1.0" encoding="UTF-8" standalone="no"?>
<svg
   width="70mm"
   height="20mm"
   viewBox="0 0 70 20"
   version="1.1"
   id="svg1"
   xmlns="http://www.w3.org/2000/svg"
   xmlns:svg="http://www.w3.org/2000/svg">
  <defs
     id="defs1" />
  <path
     d="m 3.476,15.524 c 2.028,0 3.276,-2.064 3.672,-4.056 L 8.144,6.512 8.72,6.284 8.756,6.056 C 8.324,6.044 7.868,6.032 7.64,6.032 c -1.776,0 -4.104,0.768 -4.104,2.4 0,0.456 0.192,0.684 0.552,0.684 0.336,0 0.552,-0.204 0.552,-0.54 0,-0.228 -0.084,-0.528 -0.084,-0.768 0,-1.104 1.704,-1.32 2.544,-1.32 l -0.672,3.54 C 4.64,10.52 1.976,12.416 1.976,14.24 c 0,0.792 0.516,1.284 1.5,1.284 z M 6.344,10.424 6.068,11.9 C 5.876,13.112 5.24,15.008 3.824,15.008 3.14,15.008 2.948,14.552 2.948,14.072 2.948,12.68 4.532,11 6.344,10.424 Z m 4.464007,2.976 c 0,-0.408 -0.264,-0.768 -0.732,-0.768 -0.4439999,0 -0.7199999,0.348 -0.7199999,0.756 0,0.408 0.228,0.708 0.7079999,0.708 0.48,0 0.744,-0.324 0.744,-0.696 z m 4.38001,0.744 c 1.92,0 2.736,-1.368 2.736,-1.644 0,-0.12 -0.18,-0.42 -0.276,-0.552 l -0.216,0.06 c -0.432,1.104 -1.032,1.68 -2.028,1.68 -1.452,0 -1.92,-1.428 -1.92,-2.904 0,-2.352 1.176,-4.392 3.024,-4.392 0.792,0 1.368,0.372 1.368,1.224 0,0.792 -0.492,1.68 -1.416,1.68 -0.396,0 -0.516,-0.168 -0.516,-0.36 0,-0.192 0.12,-0.36 0.12,-0.588 0,-0.276 -0.168,-0.42 -0.432,-0.42 -0.456,0 -0.6,0.396 -0.6,0.732 0,0.768 0.732,0.984 1.38,0.984 1.296,0 2.436,-0.876 2.436,-2.112 0,-1.2 -1.056,-1.56 -2.112,-1.56 -2.832,0 -4.356,2.616 -4.356,5.004 0,1.968 1.032,3.168 2.808,3.168 z m 6.11999,-0.744 c 0,-0.408 -0.264,-0.768 -0.732,-0.768 -0.444,0 -0.72,0.348 -0.72,0.756 0,0.408 0.228,0.708 0.708,0.708 0.48,0 0.744,-0.324 0.744,-0.696 z m 2.12401,0.708 c 1.836,0 2.832,-1.788 3.216,-3.408 1.788,-0.012 3.816,-1.068 3.816,-2.856 0,-1.392 -1.224,-1.764 -2.856,-1.764 l 0.072,-0.348 -0.108,-0.096 -0.996,0.48 c -1.428,0.192 -3.396,1.14 -3.396,2.46 0,0.396 0.18,0.552 0.516,0.552 0.504,0 0.564,-0.372 0.624,-0.852 0.156,-1.2 1.056,-1.608 2.148,-1.788 l -0.852,4.476 c -0.204,1.032 -0.696,2.628 -1.74,2.628 -0.792,0 -0.504,-0.9 -1.128,-0.9 -0.264,0 -0.552,0.168 -0.552,0.588 0,0.612 0.612,0.828 1.236,0.828 z m 3.288,-3.768 0.78,-3.852 c 1.092,0 1.848,0.348 1.848,1.476 0,1.5 -1.308,2.316 -2.628,2.376 z m 5.96399,3.06 c 0,-0.408 -0.264,-0.768 -0.732,-0.768 -0.444,0 -0.72,0.348 -0.72,0.756 0,0.408 0.228,0.708 0.708,0.708 0.48,0 0.744,-0.324 0.744,-0.696 z"
     id="text1"
     style="font-size:12px;font-family:'STIX Two Math'"
     aria-label="𝒥.𝒞.𝒫." />
</svg>
